<svg width="535" height="357" viewBox="0 0 535 357" fill="none" xmlns="http://www.w3.org/2000/svg">
<path d="M138.901 59.2263H59.6064V198.085H138.901V59.2263Z" fill="#FAFAFA"/>
<path d="M84.3087 199.413C84.3087 199.413 75.6132 136.945 71.0693 130.077C71.0693 130.077 97.0489 110.556 97.8407 57.6412H58.4219V199.413H84.3087Z" fill="#F5F5F5"/>
<path d="M114.19 199.142C114.19 199.142 122.872 136.667 127.423 129.805C127.423 129.805 101.45 110.277 100.651 57.3699H140.07V199.142H114.19Z" fill="#F5F5F5"/>
<path d="M140.983 53.9355H52.2588V202.676H144.664V53.9355H140.983ZM75.542 131.212V166.583H59.6061V131.212H75.542ZM59.6061 128.656V92.0489H75.542V128.656H59.6061ZM99.8025 128.656V92.0489H119.776V128.656H99.8025ZM119.776 131.212V166.583H99.8025V131.212H119.776ZM76.2625 128.656V92.0489H97.2559V128.656H76.2625ZM97.2559 131.212V166.583H76.2553V131.212H97.2559ZM76.2553 91.392V59.262H97.2487V91.392H76.2553ZM97.2487 167.219V198.099H76.2553V167.219H97.2487ZM99.8025 167.219H119.776V198.099H99.8025V167.219ZM99.8025 91.4134V59.262H119.776V91.392L99.8025 91.4134ZM120.446 131.212H137.31V166.583H120.446V131.212ZM120.446 128.656V92.0489H137.31V128.656H120.446ZM137.31 91.392H120.446V59.262H137.31V91.392ZM75.542 59.262V91.392H59.6061V59.262H75.542ZM59.6061 167.219H75.542V198.099H59.6061V167.219ZM120.446 198.099V167.219H137.31V198.099H120.446Z" fill="#EBEBEB"/>
<path d="M408.882 86.7367H167.626V248.472H408.882V86.7367Z" fill="#F5F5F5"/>
<path d="M408.882 86.7367H167.626V102.895H408.882V86.7367Z" fill="#EBEBEB"/>
<path d="M178.077 94.812C178.105 95.2041 178.015 95.5957 177.818 95.9358C177.622 96.2759 177.327 96.5487 176.973 96.7187C176.619 96.8888 176.222 96.948 175.833 96.8889C175.445 96.8297 175.084 96.6549 174.796 96.3871C174.508 96.1193 174.308 95.7711 174.221 95.3877C174.134 95.0044 174.165 94.6037 174.309 94.2379C174.453 93.8722 174.703 93.5583 175.028 93.3372C175.353 93.1161 175.737 92.9981 176.129 92.9985C176.628 92.9811 177.113 93.1623 177.478 93.5023C177.843 93.8422 178.058 94.3132 178.077 94.812Z" fill="#FAFAFA"/>
<path d="M184.368 94.812C184.396 95.2041 184.306 95.5957 184.109 95.9358C183.913 96.2759 183.618 96.5487 183.264 96.7187C182.91 96.8888 182.513 96.948 182.124 96.8889C181.736 96.8297 181.375 96.6549 181.087 96.3871C180.799 96.1193 180.599 95.7711 180.512 95.3877C180.425 95.0044 180.456 94.6037 180.6 94.2379C180.744 93.8722 180.994 93.5583 181.319 93.3372C181.644 93.1161 182.028 92.9981 182.42 92.9985C182.919 92.9811 183.404 93.1623 183.769 93.5023C184.134 93.8422 184.349 94.3132 184.368 94.812Z" fill="#FAFAFA"/>
<path d="M190.66 94.812C190.688 95.2041 190.598 95.5957 190.401 95.9358C190.205 96.2759 189.91 96.5487 189.556 96.7187C189.202 96.8888 188.805 96.948 188.416 96.8889C188.028 96.8297 187.667 96.6549 187.379 96.3871C187.091 96.1193 186.891 95.7711 186.804 95.3877C186.717 95.0044 186.748 94.6037 186.892 94.2379C187.036 93.8722 187.286 93.5583 187.611 93.3372C187.936 93.1161 188.32 92.9981 188.712 92.9985C189.211 92.9811 189.696 93.1623 190.061 93.5023C190.426 93.8422 190.641 94.3132 190.66 94.812Z" fill="#FAFAFA"/>
<path d="M482.742 118.695H434.271V181.963L482.742 183.184V118.695Z" fill="#EBEBEB"/>
<path d="M479.553 120.952H437.138V178.329L479.553 179.764V120.952Z" fill="#FAFAFA"/>
<path d="M472.127 131.376L443.979 130.305V170.41H472.127V131.376Z" fill="#EBEBEB"/>
<path d="M443.979 170.41L472.127 149.804L443.979 130.305V170.41Z" fill="#F5F5F5"/>
<path d="M477.398 74.1775L450.42 73.335V108.549L477.398 109.228V74.1775Z" fill="#EBEBEB"/>
<path d="M475.622 75.7125L452.018 74.5916V106.522L475.622 107.321V75.7125Z" fill="#FAFAFA"/>
<path d="M471.492 80.3892L455.827 79.7966V102.116H471.492V80.3892Z" fill="#EBEBEB"/>
<path d="M455.827 102.116L471.492 90.6494L455.827 79.7966V102.116Z" fill="#F5F5F5"/>
<path d="M291.796 44.3536L289.214 68.3583H322.32L325.066 44.3536H291.796Z" fill="#EBEBEB"/>
<path d="M293.159 45.9316L290.641 66.9375H320.522L322.94 45.9316H293.159Z" fill="#FAFAFA"/>
<path d="M298.188 49.6086L296.64 63.5531H315.493L316.463 49.6086H298.188Z" fill="#EBEBEB"/>
<path d="M334.995 36.2069L331.528 68.3583H375.883L379.564 36.2069H334.995Z" fill="#EBEBEB"/>
<path d="M336.814 38.3203L333.447 66.4591H373.48L376.718 38.3203H336.814Z" fill="#FAFAFA"/>
<path d="M343.555 43.2469L341.479 61.918H366.739L368.037 43.2469H343.555Z" fill="#EBEBEB"/>
<path d="M396.122 68.3583H266.951V72.0568H396.122V68.3583Z" fill="#EBEBEB"/>
<path d="M289.049 81.0533L283.393 72.0569H291.796V81.0533H289.049Z" fill="#EBEBEB"/>
<path d="M286.125 72.0569L291.125 81.0533H291.796V72.0569H286.125Z" fill="#E0E0E0"/>
<path d="M363.579 81.0533L357.922 72.0569H366.325V81.0533H363.579Z" fill="#EBEBEB"/>
<path d="M360.654 72.0569L365.655 81.0533H366.325V72.0569H360.654Z" fill="#E0E0E0"/>
<path d="M112.436 288.235C124.327 280.452 127.345 265.537 127.209 252.071C127.209 249.821 127.494 247.458 126.46 245.459C125.426 243.46 122.936 242.06 120.875 242.953C119.17 243.703 118.385 245.623 117.401 247.237C116.08 249.354 114.189 251.055 111.944 252.142C110.481 252.856 108.677 253.256 107.264 252.442C105.331 251.328 105.167 248.643 105.231 246.409L105.616 233.921C105.809 231.689 105.633 229.441 105.096 227.266C104.447 225.124 102.956 223.125 100.816 222.475C98.6757 221.826 95.9865 222.989 95.48 225.167C95.3727 226.091 95.3298 227.022 95.3516 227.952C95.266 228.873 94.8023 229.894 93.9249 230.094C93.0475 230.294 92.1273 229.68 91.4639 229.008C89.1884 226.695 87.669 223.753 86.2637 220.826C84.8585 217.899 83.4603 214.914 81.3917 212.401C79.323 209.887 76.4554 207.867 73.2169 207.61C69.9783 207.353 66.483 209.245 65.627 212.365C64.771 215.485 66.5115 218.741 68.4803 221.34C71.3968 225.198 74.854 228.616 78.7452 231.486C79.506 231.924 80.1061 232.595 80.4572 233.4C80.9137 234.899 79.4514 236.341 77.9463 236.798C76.2485 237.312 74.4224 237.098 72.6533 237.255C70.8843 237.412 68.9583 238.14 68.2521 239.776C67.2677 242.039 69.1437 244.474 71.0055 246.087C74.7491 249.327 79.0195 251.902 83.6315 253.699C85.2793 254.334 87.0127 254.905 88.3253 256.09C89.6378 257.276 90.4011 259.311 89.5522 260.86C88.7033 262.409 86.6133 262.873 84.8727 262.509C83.1322 262.145 81.6057 261.181 79.9579 260.517C76.8763 259.282 72.8245 259.403 70.8058 262.009C70.1761 262.904 69.7649 263.934 69.6051 265.017C69.4453 266.099 69.5413 267.204 69.8856 268.243C70.5981 270.313 71.7188 272.219 73.1812 273.848C77.9861 279.825 84.2832 284.426 91.4354 287.185C98.5687 289.827 105.253 290.655 112.479 288.235" fill="#00AFDB"/>
<path d="M68.9297 209.381L69.1437 209.595L69.8 210.209C70.3849 210.737 71.2266 211.523 72.3109 212.558C75.3465 215.481 78.1579 218.629 80.7211 221.976C82.3546 224.118 84.0452 226.474 85.8143 229.073C87.5834 231.672 89.4523 234.456 91.2998 237.462C93.2578 240.59 95.0438 243.822 96.6498 247.144C97.4773 248.872 98.212 250.678 98.961 252.52L101.222 258.118C104.142 265.202 106.657 272.447 108.755 279.817C110.445 285.838 111.558 292.006 112.079 298.238C112.416 302.443 112.382 306.669 111.979 310.869C111.83 312.354 111.687 313.503 111.558 314.281C111.509 314.653 111.466 314.945 111.43 315.167C111.424 315.267 111.424 315.367 111.43 315.467C111.468 315.373 111.492 315.274 111.501 315.174L111.673 314.296C111.822 313.517 111.994 312.368 112.172 310.883C112.637 306.677 112.713 302.437 112.4 298.216C111.915 291.959 110.823 285.763 109.14 279.717C107.058 272.327 104.548 265.065 101.622 257.968L99.3605 252.363C98.6115 250.528 97.8696 248.708 97.0279 246.973C95.4174 243.637 93.6193 240.395 91.6422 237.262C89.7733 234.256 87.8972 231.472 86.1139 228.873C84.3306 226.274 82.6257 223.875 80.9708 221.797C78.3732 218.454 75.5106 215.326 72.4108 212.444C71.3194 211.423 70.4491 210.651 69.8499 210.145L69.1366 209.566C69.0738 209.498 69.0045 209.436 68.9297 209.381Z" fill="#263238"/>
<path d="M96.8994 246.951C97.0158 246.645 97.0972 246.326 97.1419 246.002C97.2775 245.388 97.4416 244.495 97.627 243.388C97.998 241.168 98.4117 238.09 98.854 234.692C99.2962 231.293 99.7456 228.23 100.152 226.024C100.352 224.917 100.523 224.032 100.652 223.411C100.736 223.096 100.787 222.773 100.801 222.447C100.664 222.743 100.561 223.055 100.495 223.375C100.323 223.982 100.102 224.867 99.8669 225.967C99.3818 228.166 98.8825 231.236 98.4402 234.635C97.998 238.033 97.627 241.025 97.3346 243.338C97.1919 244.388 97.0778 245.266 96.985 245.973C96.9181 246.295 96.8894 246.623 96.8994 246.951Z" fill="#263238"/>
<path d="M67.9453 240.889C68.3247 240.979 68.7115 241.034 69.1009 241.054C69.8142 241.139 70.927 241.253 72.2538 241.432C74.9074 241.782 78.5668 242.389 82.5615 243.231C86.5562 244.074 90.1514 245.009 92.7265 245.752C94.0176 246.109 95.052 246.43 95.7724 246.651C96.1369 246.79 96.5146 246.89 96.8995 246.951C96.5543 246.768 96.194 246.615 95.8224 246.494C95.109 246.23 94.0961 245.866 92.8121 245.466C90.2512 244.652 86.6632 243.681 82.6471 242.824C78.631 241.967 74.9645 241.396 72.2895 241.139C70.9556 240.996 69.8642 240.925 69.1152 240.889C68.7261 240.852 68.3344 240.852 67.9453 240.889Z" fill="#263238"/>
<path d="M108.783 279.174C108.869 279.069 108.939 278.951 108.99 278.824L109.511 277.796C109.967 276.903 110.581 275.597 111.323 273.962C112.806 270.706 114.711 266.144 116.744 261.11C118.777 256.076 120.639 251.471 122.058 248.186C122.772 246.587 123.314 245.273 123.742 244.302L124.191 243.238C124.249 243.117 124.295 242.99 124.327 242.86C124.24 242.964 124.168 243.079 124.113 243.203C123.977 243.481 123.799 243.824 123.592 244.231C123.143 245.123 122.529 246.437 121.787 248.065C120.304 251.321 118.399 255.919 116.359 260.953C114.319 265.986 112.464 270.592 111.052 273.876L109.368 277.746L108.919 278.803C108.857 278.92 108.811 279.045 108.783 279.174Z" fill="#263238"/>
<path d="M70.4424 265.951C70.5598 266.024 70.6871 266.079 70.8204 266.115L71.9332 266.515L76.042 267.943C79.5088 269.149 84.2739 270.863 89.5383 272.769C94.8027 274.676 99.5963 276.339 103.092 277.475C104.839 278.046 106.259 278.489 107.243 278.774L108.377 279.103C108.509 279.146 108.646 279.175 108.784 279.188C108.666 279.115 108.539 279.057 108.406 279.017L107.293 278.624L103.184 277.196C99.7176 275.997 94.9525 274.283 89.681 272.377C84.4095 270.47 79.6301 268.807 76.1277 267.664C74.38 267.1 72.9605 266.658 71.9761 266.365L70.8418 266.044C70.7136 265.994 70.5792 265.963 70.4424 265.951Z" fill="#263238"/>
<path d="M436.267 315.281C436.267 315.388 356.274 315.467 257.613 315.467C158.952 315.467 78.9443 315.388 78.9443 315.281C78.9443 315.174 158.923 315.095 257.613 315.095C356.303 315.095 436.267 315.181 436.267 315.281Z" fill="#263238"/>
<path d="M370.377 100.488H127.537C126.541 100.488 125.555 100.685 124.636 101.066C123.716 101.448 122.881 102.007 122.177 102.712C121.474 103.417 120.916 104.253 120.536 105.174C120.155 106.095 119.96 107.082 119.961 108.078V279.759C119.96 280.756 120.155 281.743 120.536 282.663C120.916 283.584 121.474 284.421 122.177 285.126C122.881 285.831 123.716 286.39 124.636 286.771C125.555 287.153 126.541 287.349 127.537 287.349H220.741C220.741 287.349 226.668 305.699 208.286 315.195H295.434C295.434 315.195 274.69 308.055 280.026 287.349H370.377C372.388 287.349 374.316 286.55 375.738 285.126C377.16 283.703 377.959 281.772 377.959 279.759V108.078C377.959 106.065 377.16 104.135 375.738 102.711C374.316 101.288 372.388 100.488 370.377 100.488Z" fill="#263238"/>
<path d="M252.455 269.228C255.758 273.955 250.586 279.131 245.864 275.825C245.706 275.714 245.569 275.576 245.457 275.418C242.162 270.692 247.326 265.522 252.049 268.821C252.206 268.932 252.344 269.07 252.455 269.228Z" fill="#455A64"/>
<path d="M369.892 109.163H128.022C126.734 109.163 125.689 110.209 125.689 111.498V253.199C125.689 254.488 126.734 255.533 128.022 255.533H369.892C371.18 255.533 372.225 254.488 372.225 253.199V111.498C372.225 110.209 371.18 109.163 369.892 109.163Z" fill="#E0E0E0"/>
<path d="M372.225 119.888H125.689V255.533H372.225V119.888Z" fill="#FAFAFA"/>
<path d="M145.912 114.811C145.912 115.201 145.797 115.582 145.58 115.906C145.364 116.23 145.057 116.483 144.697 116.632C144.337 116.781 143.941 116.82 143.559 116.744C143.177 116.668 142.827 116.48 142.551 116.205C142.276 115.929 142.088 115.578 142.012 115.196C141.936 114.813 141.975 114.417 142.124 114.057C142.273 113.697 142.526 113.389 142.85 113.173C143.173 112.956 143.554 112.841 143.943 112.841C144.466 112.841 144.966 113.048 145.336 113.418C145.705 113.787 145.912 114.289 145.912 114.811Z" fill="#00AFDB"/>
<path d="M133.978 114.811C133.978 115.201 133.862 115.582 133.646 115.906C133.43 116.23 133.122 116.483 132.762 116.632C132.403 116.781 132.007 116.82 131.625 116.744C131.243 116.668 130.892 116.48 130.617 116.205C130.341 115.929 130.154 115.578 130.078 115.196C130.002 114.813 130.041 114.417 130.19 114.057C130.339 113.697 130.591 113.389 130.915 113.173C131.239 112.956 131.619 112.841 132.009 112.841C132.531 112.841 133.032 113.048 133.401 113.418C133.77 113.787 133.978 114.289 133.978 114.811Z" fill="#00AFDB"/>
<path d="M139.706 114.811C139.706 115.201 139.591 115.582 139.374 115.906C139.158 116.23 138.851 116.483 138.491 116.632C138.131 116.781 137.735 116.82 137.353 116.744C136.971 116.668 136.621 116.48 136.345 116.205C136.07 115.929 135.882 115.578 135.806 115.196C135.73 114.813 135.769 114.417 135.918 114.057C136.067 113.697 136.32 113.389 136.644 113.173C136.967 112.956 137.348 112.841 137.737 112.841C138.26 112.841 138.76 113.048 139.13 113.418C139.499 113.787 139.706 114.289 139.706 114.811Z" fill="#00AFDB"/>
<path d="M247.162 183.048C247.162 183.155 238.131 183.248 226.996 183.248C215.861 183.248 206.823 183.155 206.823 183.048C206.823 182.941 215.854 182.848 226.996 182.848C238.139 182.848 247.162 182.934 247.162 183.048Z" fill="#455A64"/>
<path d="M247.162 188.453C247.162 188.56 238.131 188.653 226.996 188.653C215.861 188.653 206.823 188.56 206.823 188.453C206.823 188.346 215.854 188.246 226.996 188.246C238.139 188.246 247.162 188.339 247.162 188.453Z" fill="#455A64"/>
<path d="M230.998 193.851C230.998 193.965 225.591 194.058 218.914 194.058C212.237 194.058 206.823 193.965 206.823 193.851C206.823 193.737 212.237 193.651 218.914 193.651C225.591 193.651 230.998 193.744 230.998 193.851Z" fill="#455A64"/>
<path d="M226.005 127.827H206.823V130.262H226.005V127.827Z" fill="#455A64"/>
<path d="M248.974 135.674H206.823V176.494H248.974V135.674Z" fill="#E0E0E0"/>
<path d="M210.091 172.995L221.754 151.989L231.291 165.419L237.083 158.287L245.708 172.995H210.091Z" fill="#00AFDB"/>
<path d="M232.319 150.94C233.993 150.94 235.35 149.581 235.35 147.905C235.35 146.229 233.993 144.871 232.319 144.871C230.644 144.871 229.287 146.229 229.287 147.905C229.287 149.581 230.644 150.94 232.319 150.94Z" fill="#00AFDB"/>
<path d="M245.707 173.109C245.7 173.055 245.7 173 245.707 172.945C245.707 172.817 245.707 172.667 245.707 172.467C245.707 172.031 245.707 171.417 245.707 170.632C245.707 169.011 245.707 166.669 245.665 163.699C245.665 157.737 245.615 149.247 245.579 139.051L245.75 139.223H210.141C210.091 139.266 210.511 138.844 210.333 139.03V148.184C210.333 151.182 210.333 154.124 210.333 156.98C210.333 162.692 210.333 168.104 210.333 173.074L210.155 172.895L235.906 172.988L243.168 173.031H245.094H245.593H245.115H243.218L235.999 173.074L210.133 173.166H209.962V172.988C209.962 167.99 209.962 162.613 209.962 156.894C209.962 154.038 209.962 151.097 209.962 148.098V139.066C209.784 139.237 210.205 138.809 210.169 138.859H245.779H245.95V139.03C245.914 149.269 245.886 157.794 245.864 163.784C245.864 166.74 245.829 169.068 245.814 170.682C245.814 171.453 245.814 172.053 245.814 172.481C245.814 172.674 245.814 172.824 245.814 172.938C245.784 172.998 245.748 173.055 245.707 173.109Z" fill="#455A64"/>
<path d="M298.551 183.048C298.551 183.155 289.52 183.248 278.378 183.248C267.236 183.248 258.212 183.155 258.212 183.048C258.212 182.941 267.236 182.848 278.378 182.848C289.52 182.848 298.551 182.934 298.551 183.048Z" fill="#455A64"/>
<path d="M298.551 188.453C298.551 188.56 289.52 188.653 278.378 188.653C267.236 188.653 258.212 188.56 258.212 188.453C258.212 188.346 267.236 188.246 278.378 188.246C289.52 188.246 298.551 188.339 298.551 188.453Z" fill="#455A64"/>
<path d="M282.387 193.851C282.387 193.965 276.973 194.058 270.296 194.058C263.619 194.058 258.227 193.965 258.227 193.851C258.227 193.737 263.634 193.651 270.31 193.651C276.987 193.651 282.387 193.744 282.387 193.851Z" fill="#455A64"/>
<path d="M277.393 127.827H258.212V130.262H277.393V127.827Z" fill="#455A64"/>
<path d="M300.363 135.674H258.212V176.494H300.363V135.674Z" fill="#E0E0E0"/>
<path d="M261.479 172.995L273.135 151.989L282.673 165.419L288.472 158.287L297.089 172.995H261.479Z" fill="#00AFDB"/>
<path d="M286.759 147.905C286.761 148.507 286.583 149.096 286.25 149.598C285.917 150.099 285.442 150.49 284.887 150.721C284.331 150.952 283.719 151.013 283.129 150.896C282.539 150.779 281.997 150.489 281.572 150.063C281.146 149.637 280.857 149.095 280.74 148.504C280.623 147.913 280.683 147.301 280.914 146.745C281.145 146.189 281.536 145.714 282.037 145.38C282.537 145.047 283.126 144.869 283.728 144.871C284.532 144.871 285.303 145.19 285.871 145.759C286.44 146.328 286.759 147.1 286.759 147.905Z" fill="#00AFDB"/>
<path d="M297.089 173.109C297.089 173.109 297.089 173.052 297.089 172.945C297.089 172.838 297.089 172.667 297.089 172.467C297.089 172.031 297.089 171.417 297.089 170.632C297.089 169.011 297.089 166.669 297.046 163.699C297.046 157.737 296.989 149.247 296.953 139.051L297.125 139.223H261.515C261.465 139.266 261.893 138.844 261.715 139.03V148.184C261.715 151.182 261.715 154.124 261.715 156.98C261.715 162.692 261.715 168.104 261.715 173.074L261.543 172.895L287.295 172.988L294.557 173.031H296.483H296.982H296.497H294.606L287.38 173.074L261.522 173.166H261.344V172.988C261.344 167.99 261.344 162.613 261.344 156.894V139.066C261.158 139.237 261.586 138.809 261.543 138.859H297.153H297.331V139.03C297.289 149.269 297.26 157.794 297.239 163.784C297.239 166.74 297.203 169.068 297.196 170.682C297.196 171.453 297.196 172.053 297.196 172.481C297.196 172.674 297.196 172.824 297.196 172.938C297.17 173.001 297.134 173.059 297.089 173.109Z" fill="#455A64"/>
<path d="M227.353 201.384H208.172V203.818H227.353V201.384Z" fill="#455A64"/>
<path d="M250.323 209.223H208.172V250.043H250.323V209.223Z" fill="#E0E0E0"/>
<path d="M211.438 246.551L223.101 225.545L232.639 238.969L238.431 231.843L247.055 246.551H211.438Z" fill="#00AFDB"/>
<path d="M236.706 221.461C236.706 222.063 236.527 222.651 236.193 223.151C235.859 223.651 235.385 224.041 234.83 224.271C234.274 224.502 233.663 224.562 233.074 224.445C232.484 224.327 231.943 224.038 231.518 223.612C231.093 223.187 230.804 222.645 230.686 222.055C230.569 221.465 230.629 220.853 230.859 220.297C231.089 219.742 231.479 219.267 231.978 218.932C232.478 218.598 233.066 218.42 233.667 218.42C234.066 218.419 234.462 218.497 234.831 218.649C235.2 218.802 235.535 219.026 235.818 219.309C236.1 219.591 236.324 219.927 236.476 220.296C236.629 220.666 236.706 221.062 236.706 221.461Z" fill="#00AFDB"/>
<path d="M247.056 246.666C247.056 246.666 247.056 246.601 247.056 246.494C247.056 246.387 247.056 246.216 247.056 246.016C247.056 245.587 247.056 244.973 247.056 244.181C247.056 242.567 247.056 240.225 247.006 237.248C247.006 231.286 246.956 222.797 246.92 212.608L247.091 212.779H211.482L211.682 212.579V214.914C211.682 215.685 211.682 216.456 211.682 217.22V230.565C211.682 236.277 211.682 241.682 211.682 246.658L211.503 246.48L237.255 246.573L244.516 246.616H246.449H246.949C247.006 246.61 247.063 246.61 247.12 246.616H246.485H244.595L237.369 246.666L211.503 246.751H211.332V246.58C211.332 241.582 211.332 236.198 211.332 230.486C211.332 227.63 211.332 224.698 211.332 221.69V212.608L211.539 212.401H247.148H247.32V212.579C247.284 222.818 247.255 231.343 247.234 237.334C247.234 240.29 247.234 242.617 247.191 244.224C247.191 245.002 247.191 245.602 247.191 246.03C247.191 246.216 247.191 246.366 247.191 246.487C247.161 246.556 247.114 246.618 247.056 246.666Z" fill="#455A64"/>
<path d="M278.777 201.384H259.596V203.818H278.777V201.384Z" fill="#455A64"/>
<path d="M301.747 209.223H259.596V250.043H301.747V209.223Z" fill="#E0E0E0"/>
<path d="M262.863 246.551L274.526 225.545L284.064 238.969L289.856 231.843L298.48 246.551H262.863Z" fill="#00AFDB"/>
<path d="M288.122 221.461C288.121 222.061 287.942 222.647 287.608 223.145C287.274 223.643 286.8 224.031 286.245 224.26C285.691 224.488 285.082 224.547 284.494 224.43C283.907 224.312 283.367 224.022 282.944 223.597C282.521 223.173 282.233 222.632 282.116 222.044C282 221.455 282.06 220.845 282.29 220.291C282.52 219.737 282.908 219.264 283.407 218.931C283.905 218.598 284.491 218.42 285.09 218.42C285.489 218.42 285.884 218.498 286.252 218.651C286.62 218.804 286.955 219.029 287.236 219.311C287.518 219.594 287.741 219.929 287.893 220.298C288.045 220.667 288.123 221.062 288.122 221.461Z" fill="#00AFDB"/>
<path d="M298.48 246.666C298.475 246.609 298.475 246.551 298.48 246.494C298.48 246.373 298.48 246.216 298.48 246.016C298.48 245.587 298.48 244.973 298.48 244.181C298.48 242.567 298.48 240.225 298.437 237.248C298.437 231.286 298.387 222.797 298.351 212.608L298.523 212.779H262.906L263.106 212.579V221.747C263.106 224.746 263.106 227.678 263.106 230.543C263.106 236.255 263.106 241.66 263.106 246.637L262.927 246.458L288.679 246.551L295.94 246.594H297.866H298.366H298.544H297.909H296.012L288.793 246.644L262.927 246.73H262.749V246.558C262.749 241.56 262.749 236.177 262.749 230.465C262.749 227.609 262.749 224.677 262.749 221.668V212.608L262.949 212.401H298.565H298.737V212.579C298.701 222.818 298.673 231.343 298.651 237.334C298.651 240.29 298.615 242.617 298.601 244.224C298.601 245.002 298.601 245.602 298.601 246.03C298.601 246.216 298.601 246.366 298.601 246.487C298.566 246.55 298.526 246.61 298.48 246.666Z" fill="#455A64"/>
<path d="M331.835 201.384H312.653V203.818H331.835V201.384Z" fill="#455A64"/>
<path d="M354.804 209.223H312.653V250.043H354.804V209.223Z" fill="#E0E0E0"/>
<path d="M315.921 246.551L327.584 225.545L337.121 238.969L342.913 231.843L351.538 246.551H315.921Z" fill="#00AFDB"/>
<path d="M341.187 221.461C341.187 222.063 341.009 222.651 340.675 223.151C340.341 223.651 339.866 224.041 339.311 224.271C338.756 224.502 338.145 224.562 337.555 224.445C336.966 224.327 336.424 224.038 335.999 223.612C335.574 223.187 335.285 222.645 335.168 222.055C335.051 221.465 335.111 220.853 335.341 220.297C335.571 219.742 335.96 219.267 336.46 218.932C336.96 218.598 337.547 218.42 338.148 218.42C338.548 218.419 338.943 218.497 339.312 218.649C339.681 218.802 340.017 219.026 340.299 219.309C340.581 219.591 340.805 219.927 340.958 220.296C341.11 220.666 341.188 221.062 341.187 221.461Z" fill="#00AFDB"/>
<path d="M351.537 246.666C351.537 246.666 351.537 246.601 351.537 246.494C351.537 246.387 351.537 246.216 351.537 246.016C351.537 245.587 351.537 244.973 351.537 244.181C351.537 242.567 351.537 240.225 351.487 237.248C351.487 231.286 351.437 222.797 351.402 212.608L351.573 212.779H315.963L316.163 212.579V230.543C316.163 236.255 316.163 241.66 316.163 246.637L315.985 246.458L341.736 246.551L348.998 246.594H350.931H351.423C351.482 246.588 351.542 246.588 351.601 246.594H350.967H349.076L341.85 246.644L315.985 246.73H315.813V246.558C315.813 241.56 315.813 236.177 315.813 230.465C315.813 227.609 315.813 224.677 315.813 221.668V212.608L316.02 212.401H351.63H351.801V212.579C351.765 222.818 351.737 231.343 351.716 237.334C351.716 240.29 351.68 242.617 351.673 244.224C351.673 245.002 351.673 245.602 351.673 246.03C351.673 246.216 351.673 246.366 351.673 246.487C351.642 246.556 351.596 246.618 351.537 246.666Z" fill="#455A64"/>
<path d="M350.859 176.487C352.392 176.289 353.938 176.222 355.482 176.287L355.282 176.487V176.03C355.282 175.872 355.282 175.723 355.282 175.573C355.282 175.273 355.282 174.987 355.282 174.702C355.282 174.195 355.282 173.702 355.325 173.231C355.303 172.774 355.351 172.316 355.468 171.874C355.574 172.318 355.62 172.774 355.603 173.231C355.603 173.702 355.603 174.195 355.646 174.702C355.646 174.987 355.646 175.273 355.646 175.573V176.487L355.439 176.694C353.909 176.76 352.377 176.69 350.859 176.487Z" fill="#455A64"/>
<path d="M329.838 176.486C333.338 176.22 336.853 176.22 340.352 176.486C336.853 176.763 333.337 176.763 329.838 176.486Z" fill="#455A64"/>
<path d="M314.701 171.86C314.902 173.393 314.969 174.941 314.9 176.486L314.701 176.287H316.505L317.975 176.329C318.431 176.317 318.887 176.365 319.33 176.472C318.888 176.588 318.431 176.636 317.975 176.615L316.505 176.658H315.635H314.701L314.501 176.451C314.439 174.918 314.506 173.382 314.701 171.86Z" fill="#455A64"/>
<path d="M314.701 150.818C314.903 152.564 314.969 154.324 314.901 156.08C314.97 157.835 314.903 159.591 314.701 161.335C314.504 159.591 314.437 157.835 314.501 156.08C314.437 154.324 314.504 152.565 314.701 150.818Z" fill="#455A64"/>
<path d="M319.33 135.66C317.796 135.861 316.247 135.928 314.701 135.86L314.9 135.66V136.581C314.9 136.874 314.9 137.166 314.9 137.452C314.9 137.959 314.9 138.445 314.857 138.923C314.878 139.38 314.83 139.837 314.715 140.28C314.599 139.837 314.551 139.38 314.572 138.923C314.572 138.445 314.572 137.959 314.529 137.452C314.529 137.166 314.529 136.874 314.529 136.581C314.529 136.431 314.529 136.274 314.529 136.117V135.66L314.729 135.46C316.266 135.398 317.805 135.464 319.33 135.66Z" fill="#455A64"/>
<path d="M340.352 135.66C336.853 135.927 333.338 135.927 329.838 135.66C333.338 135.393 336.853 135.393 340.352 135.66Z" fill="#455A64"/>
<path d="M355.489 140.301C355.283 138.766 355.214 137.215 355.282 135.667C355.689 136.067 355.396 135.781 355.482 135.867H354.526H353.656L352.186 135.824C351.73 135.845 351.273 135.797 350.831 135.681C351.273 135.566 351.73 135.518 352.186 135.539L353.656 135.496H355.453L355.66 135.696C355.732 137.233 355.675 138.773 355.489 140.301Z" fill="#455A64"/>
<path d="M355.489 161.364C355.283 159.62 355.214 157.863 355.283 156.109C355.214 154.352 355.283 152.593 355.489 150.847C355.687 152.593 355.753 154.352 355.689 156.109C355.754 157.863 355.687 159.62 355.489 161.364Z" fill="#455A64"/>
<path d="M354.897 182.991C354.897 183.098 345.859 183.191 334.724 183.191C323.589 183.191 314.551 183.098 314.551 182.991C314.551 182.884 323.582 182.791 334.724 182.791C345.866 182.791 354.897 182.877 354.897 182.991Z" fill="#455A64"/>
<path d="M354.898 188.396C354.898 188.503 345.86 188.596 334.725 188.596C323.589 188.596 314.58 188.496 314.58 188.396C314.58 188.296 323.611 188.189 334.753 188.189C345.895 188.189 354.898 188.282 354.898 188.396Z" fill="#455A64"/>
<path d="M333.732 127.77H314.551V130.205H333.732V127.77Z" fill="#455A64"/>
<path d="M191.301 204.632C191.301 204.739 180.687 204.832 167.597 204.832C154.507 204.832 143.886 204.739 143.886 204.632C143.886 204.525 154.5 204.425 167.597 204.425C180.694 204.425 191.301 204.518 191.301 204.632Z" fill="#455A64"/>
<path d="M191.301 209.916C191.301 210.03 180.687 210.116 167.597 210.116C154.507 210.116 143.886 210.03 143.886 209.916C143.886 209.802 154.5 209.716 167.597 209.716C180.694 209.716 191.301 209.766 191.301 209.916Z" fill="#455A64"/>
<path d="M191.301 215.128C191.301 215.242 180.687 215.328 167.597 215.328C154.507 215.328 143.886 215.242 143.886 215.128C143.886 215.014 154.5 214.914 167.633 214.914C180.765 214.914 191.301 215.021 191.301 215.128Z" fill="#455A64"/>
<path d="M171.128 220.49C171.128 220.605 164.972 220.69 157.382 220.69C149.792 220.69 143.629 220.605 143.629 220.49C143.629 220.376 149.785 220.29 157.382 220.29C164.979 220.29 171.128 220.383 171.128 220.49Z" fill="#455A64"/>
<path d="M418.113 151.125L421.238 161.614C421.404 162.085 421.498 162.578 421.516 163.078C421.516 164.556 420.089 165.719 418.662 165.991C417.189 166.15 415.7 165.975 414.304 165.477C413.919 166.983 412.164 167.619 410.63 167.904C403.798 169.176 396.74 168.296 390.429 165.384C393.122 161.524 395.311 157.334 396.941 152.917L412.877 153.631C413.816 153.733 414.765 153.653 415.674 153.396C416.125 153.259 416.529 152.996 416.837 152.638C417.145 152.28 417.345 151.842 417.414 151.375" fill="#00AFDB"/>
<path d="M399.852 171.61C400.052 170.439 399.574 165.512 399.574 165.512C399.574 165.512 395.087 165.034 394.816 160.579C394.545 156.123 394.816 145.842 394.816 145.842L402.991 141.843L411.993 148.662L410.63 170.946L400.893 179.642L399.852 171.61Z" fill="#FFBE9D"/>
<path d="M395.707 153.331C395.706 153.445 395.738 153.556 395.8 153.651C395.862 153.746 395.95 153.82 396.054 153.864C396.159 153.909 396.273 153.921 396.385 153.9C396.496 153.878 396.598 153.825 396.679 153.745C396.759 153.665 396.814 153.564 396.837 153.453C396.86 153.342 396.849 153.227 396.806 153.122C396.763 153.017 396.69 152.927 396.596 152.864C396.502 152.801 396.391 152.767 396.278 152.767C396.203 152.766 396.129 152.78 396.06 152.808C395.991 152.836 395.928 152.878 395.875 152.93C395.822 152.983 395.779 153.045 395.751 153.114C395.722 153.183 395.707 153.257 395.707 153.331Z" fill="#263238"/>
<path d="M395.187 152.71C395.265 152.789 395.686 152.432 396.3 152.396C396.913 152.36 397.37 152.66 397.434 152.575C397.498 152.489 397.391 152.403 397.191 152.268C396.919 152.088 396.596 152.003 396.271 152.025C395.948 152.041 395.64 152.164 395.394 152.375C395.187 152.539 395.116 152.682 395.187 152.71Z" fill="#263238"/>
<path d="M402.32 153.331C402.319 153.445 402.351 153.556 402.414 153.651C402.476 153.747 402.565 153.821 402.669 153.865C402.774 153.909 402.889 153.921 403.001 153.899C403.112 153.877 403.214 153.823 403.294 153.742C403.375 153.662 403.429 153.56 403.451 153.448C403.473 153.337 403.461 153.221 403.417 153.117C403.373 153.012 403.299 152.923 403.204 152.861C403.109 152.799 402.997 152.766 402.884 152.767C402.734 152.767 402.591 152.827 402.485 152.933C402.38 153.038 402.32 153.182 402.32 153.331Z" fill="#263238"/>
<path d="M401.956 152.71C402.028 152.789 402.449 152.432 403.062 152.396C403.675 152.36 404.139 152.66 404.203 152.575C404.268 152.489 404.161 152.403 403.954 152.268C403.683 152.091 403.363 152.006 403.041 152.025C402.718 152.044 402.411 152.167 402.163 152.375C401.978 152.539 401.921 152.682 401.956 152.71Z" fill="#263238"/>
<path d="M401.771 158.508C400.834 158.987 399.836 159.333 398.804 159.536C399.031 159.843 399.354 160.067 399.722 160.171C400.09 160.276 400.482 160.256 400.837 160.114C401.006 160.075 401.166 160.001 401.305 159.898C401.445 159.794 401.563 159.663 401.65 159.513C401.738 159.363 401.793 159.196 401.814 159.023C401.835 158.85 401.82 158.675 401.771 158.508Z" fill="#FAFAFA"/>
<path d="M399.573 165.512C401.689 165.425 403.736 164.734 405.472 163.52C405.472 163.52 404.139 166.79 399.673 166.605L399.573 165.512Z" fill="#EB996E"/>
<path d="M424.947 161.478C424.387 161.499 423.831 161.374 423.335 161.114C422.602 160.715 421.992 160.122 421.573 159.4C421.053 158.501 420.614 157.557 420.26 156.58C419.426 154.51 418.834 152.582 418.37 151.182C418.306 150.961 418.242 150.761 418.185 150.568C418.158 150.362 418.12 150.157 418.07 149.954C415.638 140.672 407.477 138.93 405.865 138.93C404.132 138.93 401.1 137.973 396.685 142.571C396.016 143.257 395.452 144.036 395.008 144.885C394.035 146.111 393.363 147.549 393.047 149.083C392.853 149.803 392.819 150.556 392.947 151.289C393.032 151.289 393.047 150.454 393.389 149.147C393.594 148.388 393.881 147.653 394.245 146.955C393.861 148.672 394.018 150.466 394.695 152.089L396.278 151.646L401.985 149.719C401.464 147.962 402.227 145.777 402.655 144.721H402.698C403.996 151.389 411.337 152.089 411.337 152.089L410.973 164.748C418.513 163.135 418.613 154.895 418.563 152.846C418.905 154.003 419.347 155.331 419.904 156.723C420.277 157.715 420.74 158.671 421.288 159.579C421.751 160.349 422.431 160.965 423.242 161.35C423.788 161.609 424.399 161.698 424.997 161.607C425.218 161.586 425.43 161.507 425.61 161.378C425.387 161.397 425.166 161.431 424.947 161.478Z" fill="#00AFDB"/>
<path d="M399.745 157.901C399.42 157.826 399.087 157.79 398.753 157.794C398.596 157.794 398.439 157.794 398.411 157.651C398.389 157.48 398.419 157.306 398.497 157.151C398.632 156.752 398.768 156.33 398.917 155.88C399.21 154.974 399.459 154.153 399.631 153.553C399.749 153.236 399.823 152.904 399.852 152.568C399.684 152.864 399.555 153.181 399.467 153.51C399.253 154.095 398.974 154.938 398.682 155.823L398.275 157.101C398.187 157.304 398.167 157.529 398.218 157.744C398.243 157.798 398.28 157.846 398.326 157.884C398.371 157.922 398.425 157.95 398.482 157.965C398.57 157.975 398.658 157.975 398.746 157.965C399.08 157.984 399.416 157.963 399.745 157.901Z" fill="#263238"/>
<path d="M410.095 154.274C408.711 154.003 407.542 153.81 407.142 153.781C407.195 153.547 407.224 153.308 407.228 153.067C407.221 152.296 406.972 151.546 406.514 150.925C406.093 150.347 405.506 149.911 404.831 149.676C404.225 149.46 403.572 149.411 402.941 149.533C402.39 149.644 401.876 149.889 401.443 150.247C400.805 150.74 400.359 151.439 400.18 152.225C400.13 152.435 400.103 152.651 400.102 152.867C400.09 152.941 400.09 153.015 400.102 153.089C400.102 153.089 400.101 152.782 400.258 152.253C400.464 151.505 400.914 150.847 401.535 150.383C401.955 150.066 402.444 149.853 402.962 149.761C403.626 149.641 404.311 149.722 404.929 149.995C405.547 150.268 406.069 150.719 406.428 151.291C406.787 151.864 406.967 152.53 406.944 153.206C406.921 153.881 406.697 154.534 406.3 155.081C405.908 155.625 405.361 156.038 404.731 156.266C404.166 156.475 403.555 156.529 402.962 156.423C402.443 156.33 401.955 156.114 401.535 155.795C400.913 155.334 400.463 154.678 400.258 153.931C400.2 153.721 400.159 153.506 400.137 153.289C400.244 153.289 400.315 153.232 400.315 153.203C400.315 153.174 400.23 153.132 400.109 153.11C399.966 153.097 399.823 153.097 399.681 153.11C399.508 153.109 399.335 153.128 399.167 153.167V153.124C399.164 152.352 398.914 151.602 398.454 150.982C398.034 150.406 397.45 149.97 396.777 149.733C396.169 149.517 395.514 149.468 394.88 149.59C394.214 149.725 393.601 150.047 393.112 150.519C392.623 150.991 392.278 151.592 392.119 152.253C392.069 152.464 392.043 152.679 392.041 152.896C392.029 152.969 392.029 153.044 392.041 153.117C392.041 153.117 392.041 152.81 392.198 152.282C392.404 151.534 392.853 150.875 393.475 150.411C393.894 150.094 394.383 149.881 394.901 149.79C395.388 149.701 395.889 149.72 396.368 149.847C396.847 149.973 397.292 150.203 397.673 150.52C398.053 150.837 398.359 151.234 398.569 151.683C398.779 152.132 398.888 152.622 398.889 153.117C398.888 153.809 398.676 154.485 398.281 155.053C397.885 155.621 397.326 156.054 396.678 156.295C396.11 156.504 395.497 156.558 394.901 156.452C394.383 156.358 393.894 156.143 393.475 155.823C392.852 155.363 392.403 154.707 392.198 153.96C392.055 153.431 392.069 153.117 392.041 153.117C392.03 153.193 392.03 153.27 392.041 153.346C392.043 153.56 392.069 153.773 392.119 153.981C392.297 154.769 392.744 155.471 393.382 155.966C393.818 156.319 394.331 156.563 394.88 156.68C395.514 156.802 396.169 156.753 396.777 156.537C397.448 156.298 398.032 155.863 398.454 155.288C398.879 154.718 399.127 154.035 399.167 153.324C399.34 153.367 399.517 153.386 399.695 153.381C399.833 153.39 399.971 153.39 400.109 153.381C400.11 153.596 400.137 153.809 400.187 154.017C400.341 154.681 400.683 155.287 401.173 155.76C401.663 156.234 402.279 156.556 402.948 156.687C403.579 156.809 404.232 156.76 404.838 156.544C405.512 156.306 406.098 155.871 406.522 155.295C406.815 154.896 407.019 154.438 407.121 153.953C407.499 154.074 408.654 154.345 410.053 154.617C411.076 154.858 412.115 155.022 413.163 155.109C412.165 154.745 411.139 154.466 410.095 154.274Z" fill="#263238"/>
<path d="M412.464 157.715C412.393 156.974 412.476 156.225 412.707 155.516C412.824 155.163 413.035 154.849 413.316 154.605C413.597 154.361 413.939 154.198 414.304 154.131C414.728 154.11 415.145 154.243 415.478 154.505C415.811 154.768 416.038 155.142 416.116 155.559C416.168 155.986 416.09 156.419 415.893 156.801C415.696 157.183 415.388 157.496 415.011 157.701C414.63 157.898 414.21 158.007 413.781 158.02C413.353 158.032 412.927 157.948 412.535 157.773" fill="#FFBE9D"/>
<path d="M413.734 157.08C413.734 157.03 413.976 157.137 414.29 157.08C414.486 157.011 414.655 156.883 414.774 156.712C414.894 156.542 414.956 156.338 414.953 156.13C414.973 156.026 414.969 155.919 414.942 155.816C414.915 155.714 414.865 155.619 414.796 155.538C414.66 155.428 414.486 155.377 414.311 155.395C413.976 155.395 413.741 155.509 413.726 155.452C413.712 155.395 413.876 155.245 414.276 155.138C414.398 155.107 414.525 155.104 414.648 155.129C414.772 155.154 414.888 155.205 414.989 155.281C415.107 155.392 415.196 155.53 415.249 155.683C415.302 155.835 415.318 155.999 415.296 156.159C415.285 156.465 415.169 156.757 414.968 156.987C414.8 157.181 414.566 157.306 414.311 157.337C413.926 157.33 413.734 157.08 413.734 157.08Z" fill="#EB996E"/>
<path d="M431.01 326.748L425.639 323.099L432.408 312.989L440.319 318.244L439.941 318.894C438.229 321.793 431.031 333.488 429.241 334.98C427.201 336.637 431.01 326.748 431.01 326.748Z" fill="#00AFDB"/>
<path d="M428.57 334.866C428.47 334.802 430.946 330.982 434.099 326.341C437.252 321.7 439.877 317.98 439.976 318.044C440.076 318.108 437.594 321.928 434.441 326.612C431.288 331.296 428.663 334.945 428.57 334.866Z" fill="#263238"/>
<path d="M431.987 327.669C431.987 327.783 431.652 327.847 431.274 327.876C430.896 327.904 430.561 327.876 430.525 327.762C430.489 327.647 430.818 327.483 431.238 327.462C431.659 327.44 432.002 327.555 431.987 327.669Z" fill="#263238"/>
<path d="M431.909 328.554C431.909 328.668 431.517 328.683 431.082 328.654C430.646 328.626 430.283 328.568 430.275 328.447C430.268 328.326 430.639 328.211 431.103 328.24C431.567 328.269 431.93 328.44 431.909 328.554Z" fill="#263238"/>
<path d="M437.88 321.071C437.83 321.071 437.695 320.879 437.531 320.515C437.309 320.026 437.181 319.501 437.152 318.965C437.125 318.41 437.286 317.861 437.609 317.409C437.873 317.066 438.13 316.973 438.158 317.016C438.187 317.059 438.023 317.237 437.852 317.566C437.644 317.997 437.546 318.473 437.566 318.951C437.6 319.448 437.681 319.94 437.809 320.422C437.901 320.8 437.937 321.05 437.88 321.071Z" fill="#263238"/>
<path d="M430.96 327.012C430.91 326.912 431.103 326.712 431.367 326.519C431.631 326.327 431.873 326.198 431.959 326.277C432.044 326.355 431.909 326.634 431.609 326.855C431.31 327.076 431.003 327.119 430.96 327.012Z" fill="#263238"/>
<path d="M430.546 326.505C430.453 326.434 430.546 326.112 430.789 325.791C431.031 325.47 431.281 325.256 431.374 325.313C431.466 325.37 431.374 325.691 431.131 326.027C430.889 326.362 430.632 326.576 430.546 326.505Z" fill="#263238"/>
<path d="M367.702 335.059V328.561L379.828 328.483L379.928 337.993L379.172 338.043C375.819 338.25 362.109 338.864 359.855 338.2C357.38 337.458 367.702 335.059 367.702 335.059Z" fill="#00AFDB"/>
<path d="M359.605 337.601C359.605 337.486 364.157 337.394 369.763 337.394C375.37 337.394 379.921 337.486 379.921 337.601C379.921 337.715 375.377 337.815 369.763 337.815C364.149 337.815 359.605 337.722 359.605 337.601Z" fill="#263238"/>
<path d="M367.488 336.387C367.388 336.444 367.153 336.208 366.91 335.894C366.668 335.58 366.504 335.294 366.582 335.18C366.661 335.066 366.982 335.273 367.239 335.616C367.495 335.958 367.588 336.33 367.488 336.387Z" fill="#263238"/>
<path d="M366.71 336.815C366.603 336.858 366.389 336.565 366.168 336.187C365.947 335.808 365.79 335.473 365.883 335.401C365.975 335.33 366.282 335.573 366.525 335.98C366.767 336.387 366.817 336.772 366.71 336.815Z" fill="#263238"/>
<path d="M376.255 337.558C376.212 337.558 376.312 337.294 376.519 336.958C376.799 336.502 377.159 336.1 377.582 335.773C378.029 335.44 378.573 335.265 379.13 335.273C379.558 335.273 379.786 335.466 379.764 335.509C379.743 335.551 379.501 335.509 379.137 335.566C378.665 335.64 378.217 335.826 377.831 336.108C377.439 336.415 377.079 336.759 376.754 337.137C376.49 337.422 376.305 337.593 376.255 337.558Z" fill="#263238"/>
<path d="M367.452 335.166C367.509 335.066 367.787 335.116 368.087 335.223C368.387 335.33 368.643 335.466 368.622 335.58C368.601 335.694 368.301 335.737 367.952 335.616C367.602 335.494 367.367 335.266 367.452 335.166Z" fill="#263238"/>
<path d="M367.645 334.538C367.645 334.423 367.98 334.33 368.358 334.338C368.736 334.345 369.072 334.445 369.072 334.559C369.072 334.673 368.758 334.759 368.358 334.759C367.959 334.759 367.631 334.652 367.645 334.538Z" fill="#263238"/>
<path d="M398.375 185.033L385.2 180.642C385.2 180.642 379.386 197.407 377.603 197.571C367.73 198.471 357.166 195.193 353.456 193.901C353.085 193.48 352.657 192.973 352.179 192.352C351.769 191.817 351.452 191.215 351.245 190.574C350.96 189.787 350.782 188.966 350.717 188.132C350.732 187.971 350.697 187.81 350.617 187.67C350.536 187.53 350.414 187.418 350.268 187.351C350.121 187.283 349.957 187.263 349.799 187.293C349.64 187.323 349.495 187.402 349.383 187.518C348.962 188.075 348.848 190.188 349.825 192.473C350.803 194.758 347.35 192.937 346.08 192.294C344.811 191.652 340.795 189.867 340.288 190.102C339.575 190.452 339.782 191.309 341.066 191.916C342.35 192.523 346.059 194.615 345.695 195.272C345.331 195.929 338.911 192.58 338.911 192.58C338.911 192.58 337.656 191.645 337.206 192.387C336.393 193.722 343.47 196.771 344.154 197.043C344.625 197.228 344.254 197.956 343.755 197.757C343.256 197.557 337.435 194.279 336.586 195.615C335.944 196.65 342.392 198.171 343.227 199.513C344.062 200.855 338.448 197.864 337.877 198.885C337.663 199.263 337.549 199.599 341.016 200.827C343.561 201.617 346.147 202.268 348.762 202.776V202.812C348.762 202.812 383.395 218.313 390.849 203.376C398.753 187.525 398.375 185.033 398.375 185.033Z" fill="#FFBE9D"/>
<path d="M390.315 221.875C390.315 221.875 381.919 277.725 383.124 280.423C384.33 283.122 427.508 328.976 427.508 328.976L437.609 311.654C437.609 311.654 403.547 273.598 403.804 272.577C404.061 271.556 415.873 217.242 415.873 217.242L390.315 221.875Z" fill="#455A64"/>
<path d="M392.147 290.855L399.245 275.254L406.343 259.653L394.387 280.395L392.147 290.855Z" fill="#263238"/>
<path d="M396.378 276.939C396.411 277.142 396.425 277.348 396.421 277.553C396.421 277.996 396.421 278.588 396.464 279.324V279.267C399.167 282.323 405.159 289.263 412.079 297.374L424.098 311.554L427.708 315.888C428.107 316.373 428.421 316.773 428.671 317.073C428.793 317.205 428.898 317.351 428.985 317.509C428.847 317.395 428.721 317.268 428.607 317.13L427.587 315.988C426.674 314.953 425.447 313.51 423.877 311.747L411.751 297.645C404.838 289.541 398.911 282.53 396.321 279.381C396.321 278.667 396.321 278.053 396.357 277.61C396.333 277.387 396.341 277.161 396.378 276.939Z" fill="#263238"/>
<path d="M434.37 308.07C434.47 308.134 432.109 311.882 429.106 316.438C426.102 320.993 423.591 324.641 423.499 324.577C423.406 324.513 425.76 320.764 428.763 316.209C431.766 311.654 434.277 308.005 434.37 308.07Z" fill="#263238"/>
<path d="M387.275 242.853C387.354 242.267 394.059 227.145 394.059 227.145L390.806 222.554L390.229 222.425L387.275 242.853Z" fill="#263238"/>
<path d="M396.892 221.34L390.229 222.454L394.06 227.173C387.875 241.182 375.1 270.842 373.566 280.402C371.526 293.068 363.843 332.631 364.614 333.238C365.384 333.845 383.096 333.238 383.096 333.238L394.388 280.402L419.355 237.119C422.46 231.73 423.367 225.348 421.887 219.305L421.388 217.249" fill="#455A64"/>
<path d="M376.933 327.369C376.937 327.271 376.948 327.173 376.968 327.076C376.968 326.862 377.04 326.576 377.097 326.212L377.646 322.907C378.152 320.015 378.873 315.866 379.786 310.769C380.699 305.671 381.79 299.537 382.996 292.769C383.624 289.384 384.28 285.828 384.958 282.144C385.129 281.23 385.314 280.302 385.493 279.367C385.585 278.896 385.671 278.431 385.778 277.939C385.835 277.703 385.878 277.46 385.949 277.225L386.213 276.511C386.926 274.697 387.74 272.941 388.539 271.092C394.994 256.576 401 243.51 405.345 234.056L410.531 222.868C411.137 221.568 411.622 220.555 411.957 219.841C412.114 219.512 412.243 219.248 412.342 219.055C412.381 218.962 412.428 218.874 412.485 218.791L412.378 219.077L412.036 219.876L410.673 222.939C409.454 225.624 407.713 229.48 405.587 234.192C401.307 243.681 395.344 256.762 388.895 271.277C388.096 273.091 387.29 274.89 386.577 276.668L386.32 277.325C386.249 277.553 386.213 277.789 386.156 278.039C386.049 278.496 385.963 278.974 385.864 279.467C385.685 280.402 385.507 281.33 385.329 282.244C384.615 285.921 383.98 289.477 383.346 292.854C382.104 299.623 380.984 305.706 380.043 310.84C379.101 315.974 378.338 320.079 377.81 322.978C377.539 324.406 377.325 325.491 377.182 326.269C377.104 326.626 377.047 326.912 377.004 327.126C376.989 327.21 376.965 327.291 376.933 327.369Z" fill="#263238"/>
<path d="M384.151 328.154C384.151 328.269 379.871 328.283 374.657 328.154C369.442 328.026 365.162 327.89 365.162 327.776C365.162 327.662 369.442 327.647 374.664 327.74C379.885 327.833 384.158 328.04 384.151 328.154Z" fill="#263238"/>
<path d="M390.229 222.447L390.485 223.054L422.493 220.462L421.366 217.242L390.229 222.447Z" fill="#263238"/>
<path d="M403.447 170.253L401.307 178.907L401.228 172.681L401.392 171.303L401.585 170.253L398.732 169.289L397.262 171.581H396.834C396.834 171.581 385.314 170.432 381.284 185.669L377.596 194.701L388.759 200.27V200.984L389.473 222.539L421.715 217.313C421.844 212.472 416.907 203.704 417.999 199.32L421.715 184.326L416.843 170.353L413.469 170.46L411.593 168.24L403.483 170.253" fill="#263238"/>
<path d="M388.959 200.141C388.699 200.069 388.457 199.945 388.246 199.777C387.651 199.368 387.144 198.844 386.755 198.235C386.165 197.323 385.896 196.24 385.992 195.158C386.046 193.834 386.482 192.554 387.247 191.473C387.841 190.626 388.622 189.927 389.53 189.431L389.43 189.56C389.701 187.582 389.943 185.883 390.143 184.676C390.211 184.032 390.331 183.395 390.5 182.77C390.5 183.42 390.453 184.069 390.357 184.712C390.236 185.918 390.043 187.632 389.801 189.61V189.696L389.715 189.745C388.746 190.298 387.932 191.085 387.346 192.034C386.76 192.983 386.422 194.065 386.363 195.179C386.255 196.196 386.48 197.221 387.005 198.099C387.362 198.694 387.82 199.22 388.36 199.656C388.766 199.97 388.966 200.113 388.959 200.141Z" fill="#455A64"/>
<path d="M390.193 185.64C390.101 185.683 389.787 185.226 389.48 184.612C389.173 183.998 389.009 183.462 389.102 183.419C389.195 183.377 389.509 183.834 389.815 184.448C390.122 185.062 390.265 185.554 390.193 185.64Z" fill="#455A64"/>
<path d="M357.209 179.514L458.631 199.013C465.864 200.406 470.415 207.017 469.594 214.55C469.583 214.656 469.564 214.761 469.537 214.864C469.2 216.645 468.512 218.34 467.514 219.853C466.515 221.365 465.227 222.663 463.723 223.672C462.219 224.682 460.529 225.382 458.752 225.731C456.976 226.081 455.147 226.074 453.373 225.71L353.977 205.632L332.057 188.096L357.209 179.514Z" fill="#00AFDB"/>
<path d="M357.209 179.514C357.209 179.514 362.744 181.592 361.603 186.904C360.462 192.216 355.104 191.995 355.104 191.995C355.104 191.995 360.312 193.151 358.871 200.598C357.936 205.396 353.977 205.646 353.977 205.646L332.057 188.096L357.209 179.514Z" fill="#E0E0E0"/>
<path d="M336.822 191.909C338.962 190.845 339.711 188.01 338.962 185.747L332.078 188.096L336.822 191.909Z" fill="#455A64"/>
<path d="M457.247 212.715L456.983 212.679L456.198 212.551L453.209 212.015C450.613 211.544 446.868 210.837 442.231 209.945C432.958 208.16 420.196 205.596 406.101 202.683L370.02 195.172L359.085 192.88L356.117 192.244L355.347 192.066C355.256 192.053 355.168 192.029 355.083 191.995C355.174 191.998 355.265 192.01 355.354 192.03L356.132 192.166L359.113 192.737L370.092 194.922L406.2 202.326C420.289 205.239 433.057 207.845 442.309 209.695L453.259 211.879L456.234 212.486L457.011 212.651C457.092 212.662 457.171 212.684 457.247 212.715Z" fill="#455A64"/>
<path d="M453.373 225.71C455.147 226.074 456.975 226.081 458.752 225.731C460.529 225.381 462.218 224.682 463.723 223.672C465.227 222.663 466.515 221.365 467.513 219.853C468.512 218.34 469.2 216.645 469.537 214.864C469.564 214.761 469.583 214.656 469.594 214.55C470.415 207.017 465.864 200.405 458.63 199.013L453.373 225.71Z" fill="#455A64"/>
<path d="M413.063 183.577C413.063 183.577 406.893 203.062 405.174 203.49C395.558 205.946 384.608 204.383 380.749 203.69C380.314 203.333 379.8 202.89 379.237 202.362C378.75 201.897 378.345 201.354 378.038 200.755C377.63 200.025 377.325 199.242 377.132 198.428C377.125 198.263 377.066 198.106 376.963 197.977C376.861 197.848 376.72 197.756 376.562 197.712C376.403 197.668 376.235 197.676 376.081 197.734C375.927 197.792 375.796 197.898 375.706 198.035C375.37 198.649 375.599 200.755 376.918 202.855C376.918 202.855 369.186 207.767 367.495 207.724C365.805 207.681 360.961 207.56 361.468 208.231C361.974 208.902 367.495 209.823 367.495 209.823L377.482 213.215C377.482 213.215 414.119 223.082 419.133 207.146C422.201 197.378 424.327 191.63 424.804 189.296L413.063 183.577Z" fill="#FFBE9D"/>
<path d="M416.893 170.382C416.893 170.382 424.954 171.81 425.268 185.019C425.417 193.052 423.687 201.008 420.217 208.252L406.036 200.798C409.221 194.419 411.617 187.674 413.169 180.713L416.85 170.375L416.893 170.382Z" fill="#263238"/>
<path d="M412.756 181.449C412.757 181.723 412.726 181.996 412.664 182.263C412.585 182.777 412.45 183.519 412.25 184.405C411.727 186.78 411.067 189.124 410.274 191.423C409.477 193.723 408.545 195.973 407.485 198.164C407.078 199.006 406.729 199.677 406.472 200.127C406.355 200.38 406.212 200.619 406.044 200.841C406.109 200.576 406.21 200.322 406.344 200.084C406.586 199.534 406.893 198.863 407.249 198.078C408.006 196.379 408.99 194.001 409.924 191.323C410.859 188.646 411.537 186.168 411.993 184.362C412.202 183.519 412.381 182.805 412.528 182.22C412.573 181.955 412.649 181.696 412.756 181.449Z" fill="#455A64"/>
<rect x="144" y="135" width="47" height="113" fill="#D9D9D9"/>
<path d="M148 241.124L159.663 220.118L169.2 233.549L174.993 226.416L183.617 241.124H148Z" fill="#00AFDB"/>
<path d="M170.227 219.069C171.901 219.069 173.259 217.71 173.259 216.034C173.259 214.359 171.901 213 170.227 213C168.553 213 167.195 214.359 167.195 216.034C167.195 217.71 168.553 219.069 170.227 219.069Z" fill="#00AFDB"/>
</svg>
