<svg width="55" height="55" viewBox="0 0 55 55" fill="none" xmlns="http://www.w3.org/2000/svg">
<path d="M25.6035 37.931H29.3966V39.8276H25.6035V37.931Z" fill="white"/>
<path d="M51.2069 0H3.7931C2.78746 0.00112945 1.82332 0.401121 1.11222 1.11222C0.401121 1.82332 0.00112945 2.78746 0 3.7931V39.8276C0.00112945 40.8332 0.401121 41.7974 1.11222 42.5085C1.82332 43.2196 2.78746 43.6196 3.7931 43.6207H20.8621V53.1034H18.0172V55H36.9828V53.1034H34.1379V43.6207H51.2069C52.2125 43.6196 53.1767 43.2196 53.8878 42.5085C54.5989 41.7974 54.9989 40.8332 55 39.8276V3.7931C54.9989 2.78746 54.5989 1.82332 53.8878 1.11222C53.1767 0.401121 52.2125 0.00112945 51.2069 0ZM1.89655 3.7931C1.89715 3.29029 2.09715 2.80824 2.4527 2.4527C2.80824 2.09715 3.29029 1.89715 3.7931 1.89655H51.2069C51.7097 1.89715 52.1918 2.09715 52.5473 2.4527C52.9028 2.80824 53.1029 3.29029 53.1034 3.7931V34.1379H1.89655V3.7931ZM32.2414 53.1034H22.7586V43.6207H32.2414V53.1034ZM51.2069 41.7241H3.7931C3.29029 41.7235 2.80824 41.5235 2.4527 41.168C2.09715 40.8125 1.89715 40.3304 1.89655 39.8276V36.0345H53.1034V39.8276C53.1029 40.3304 52.9028 40.8125 52.5473 41.168C52.1918 41.5235 51.7097 41.7235 51.2069 41.7241Z" fill="white"/>
<path d="M31.2933 5.6897C30.2752 5.68943 29.2708 5.92339 28.3576 6.37349C27.4444 6.82359 26.6471 7.47776 26.0272 8.28536C25.4074 9.09297 24.9816 10.0324 24.783 11.0309C24.5843 12.0294 24.618 13.0602 24.8815 14.0435L21.9112 15.3166C21.5173 14.7472 21.0033 14.2712 20.4054 13.9221C19.8075 13.5729 19.1404 13.3592 18.4509 13.2959C17.7615 13.2326 17.0665 13.3213 16.4151 13.5557C15.7637 13.7902 15.1716 14.1647 14.6806 14.6528L9.39584 11.1304C9.56207 10.4789 9.49257 9.78963 9.19963 9.18443C8.9067 8.57922 8.40919 8.0971 7.79508 7.82331C7.18098 7.54951 6.48984 7.50169 5.84388 7.6883C5.19792 7.8749 4.63875 8.28392 4.26525 8.84301C3.89176 9.4021 3.72799 10.0753 3.80291 10.7434C3.87783 11.4116 4.18661 12.0318 4.67465 12.4943C5.1627 12.9568 5.79856 13.2318 6.46981 13.2707C7.14106 13.3096 7.80444 13.1099 8.34266 12.7069L13.6268 16.23C13.369 16.8614 13.2509 17.5411 13.2806 18.2225C13.3103 18.9038 13.4871 19.5707 13.7989 20.1772L11.568 21.9623C10.6644 21.2098 9.51361 20.8196 8.33868 20.8674C7.16375 20.9152 6.04842 21.3975 5.20894 22.2209C4.36946 23.0443 3.86564 24.1501 3.79517 25.3239C3.7247 26.4977 4.0926 27.6559 4.82754 28.5738C5.56247 29.4917 6.61208 30.1041 7.77286 30.2921C8.93363 30.4801 10.1229 30.2303 11.11 29.5913C12.0971 28.9523 12.8117 27.9695 13.1154 26.8335C13.419 25.6974 13.29 24.4891 12.7533 23.4428L14.9843 21.6577C15.8224 22.3583 16.8773 22.7471 17.9696 22.7581C19.0619 22.769 20.1244 22.4015 20.9764 21.7178L26.7297 26.5118C26.5387 27.027 26.5009 27.5865 26.6209 28.1227C26.741 28.6589 27.0137 29.1488 27.4063 29.5333C27.7988 29.9178 28.2943 30.1804 28.8328 30.2894C29.3714 30.3984 29.9299 30.3491 30.4411 30.1474C30.9522 29.9457 31.394 29.6004 31.7131 29.153C32.0321 28.7057 32.2148 28.1755 32.2391 27.6266C32.2633 27.0777 32.1281 26.5335 31.8497 26.0597C31.5713 25.586 31.1616 25.2031 30.6703 24.9571L31.4204 18.9624C33.1685 18.9277 34.8323 18.2047 36.0504 16.9503C37.2685 15.6959 37.9423 14.0115 37.9256 12.2631C37.9088 10.5148 37.2028 8.8436 35.961 7.61276C34.7192 6.38193 33.0418 5.69086 31.2933 5.6897ZM25.63 15.7862C26.5126 17.2269 27.9094 18.2786 29.5379 18.7285L28.788 24.7217C28.4905 24.7868 28.2056 24.8995 27.9441 25.0555L22.1922 20.2627C22.7198 19.2828 22.8859 18.1486 22.6613 17.0586L25.63 15.7862ZM6.63813 11.3794C6.45058 11.3794 6.26724 11.3237 6.1113 11.2195C5.95536 11.1153 5.83381 10.9672 5.76204 10.794C5.69027 10.6207 5.67149 10.43 5.70808 10.2461C5.74467 10.0621 5.83498 9.89316 5.9676 9.76054C6.10022 9.62793 6.26919 9.53761 6.45313 9.50102C6.63708 9.46443 6.82775 9.48321 7.00102 9.55498C7.1743 9.62676 7.3224 9.7483 7.4266 9.90424C7.53079 10.0602 7.58641 10.2435 7.58641 10.4311C7.58613 10.6825 7.48613 10.9235 7.30835 11.1013C7.13058 11.2791 6.88955 11.3791 6.63813 11.3794ZM8.53469 28.4483C7.97203 28.4483 7.42201 28.2815 6.95418 27.9689C6.48635 27.6563 6.12173 27.212 5.90641 26.6922C5.69109 26.1723 5.63475 25.6003 5.74452 25.0485C5.85429 24.4966 6.12523 23.9897 6.52309 23.5919C6.92095 23.194 7.42784 22.9231 7.97969 22.8133C8.53153 22.7036 9.10353 22.7599 9.62335 22.9752C10.1432 23.1905 10.5875 23.5552 10.9001 24.023C11.2127 24.4908 11.3795 25.0408 11.3795 25.6035C11.3786 26.3577 11.0786 27.0808 10.5453 27.6141C10.012 28.1474 9.28891 28.4474 8.53469 28.4483ZM18.0174 20.8621C17.4548 20.8621 16.9048 20.6953 16.4369 20.3827C15.9691 20.0701 15.6045 19.6258 15.3892 19.106C15.1738 18.5861 15.1175 18.0141 15.2273 17.4623C15.337 16.9104 15.608 16.4035 16.0058 16.0057C16.4037 15.6078 16.9106 15.3369 17.4624 15.2271C18.0143 15.1173 18.5863 15.1737 19.1061 15.389C19.6259 15.6043 20.0702 15.969 20.3828 16.4368C20.6954 16.9046 20.8623 17.4546 20.8623 18.0173C20.8614 18.7715 20.5614 19.4946 20.0281 20.0279C19.4948 20.5612 18.7717 20.8612 18.0174 20.8621ZM29.3968 28.4483C29.2092 28.4483 29.0259 28.3927 28.8699 28.2885C28.714 28.1843 28.5924 28.0362 28.5207 27.8629C28.4489 27.6897 28.4301 27.499 28.4667 27.315C28.5033 27.1311 28.5936 26.9621 28.7262 26.8295C28.8588 26.6969 29.0278 26.6066 29.2118 26.57C29.3957 26.5334 29.5864 26.5522 29.7596 26.6239C29.9329 26.6957 30.081 26.8173 30.1852 26.9732C30.2894 27.1292 30.345 27.3125 30.345 27.5C30.3447 27.7515 30.2448 27.9925 30.067 28.1703C29.8892 28.348 29.6482 28.448 29.3968 28.4483ZM31.2933 17.069C30.3556 17.069 29.4389 16.7909 28.6591 16.2699C27.8794 15.749 27.2717 15.0084 26.9128 14.1421C26.554 13.2757 26.4601 12.3224 26.643 11.4026C26.826 10.4829 27.2776 9.63806 27.9406 8.97497C28.6037 8.31187 29.4486 7.8603 30.3683 7.67735C31.288 7.49441 32.2414 7.5883 33.1078 7.94716C33.9741 8.30603 34.7146 8.91374 35.2356 9.69346C35.7566 10.4732 36.0347 11.3899 36.0347 12.3276C36.0333 13.5847 35.5333 14.7899 34.6444 15.6787C33.7555 16.5676 32.5504 17.0676 31.2933 17.069Z" fill="white"/>
<path d="M40.7764 5.6897H50.2591V7.58625H40.7764V5.6897Z" fill="white"/>
<path d="M40.7764 9.48279H44.5695V11.3793H40.7764V9.48279Z" fill="white"/>
<path d="M40.7764 13.2759H48.3626V15.1724H40.7764V13.2759Z" fill="white"/>
<path d="M40.7764 17.069H50.2591V18.9655H40.7764V17.069Z" fill="white"/>
<path d="M40.7764 20.8621H46.466V22.7586H40.7764V20.8621Z" fill="white"/>
<path d="M40.7764 24.6552H48.3626V26.5517H40.7764V24.6552Z" fill="white"/>
<path d="M40.7764 28.4482H50.2591V30.3448H40.7764V28.4482Z" fill="white"/>
</svg>
