<svg width="65" height="55" viewBox="0 0 65 55" fill="none" xmlns="http://www.w3.org/2000/svg">
<path d="M61.7363 0H3.2466C1.45653 0 0 1.4564 0 3.2466V39.8908C0 41.6817 1.45653 43.1387 3.2466 43.1387H26.0297C26.6279 45.7431 25.7827 48.0063 23.559 49.73H22.1501C20.8108 49.73 19.639 50.4751 19.2342 51.584L18.6611 53.1541C18.5074 53.5752 18.5691 54.0459 18.8261 54.4134C19.0831 54.7807 19.5043 55 19.9525 55H45.0303C45.4787 55 45.9 54.7806 46.157 54.4131C46.4139 54.0456 46.4754 53.5749 46.3217 53.1541L45.7487 51.5841C45.3441 50.4752 44.1724 49.73 42.8327 49.73H41.4239C39.2003 48.0063 38.355 45.7431 38.9532 43.1387H48.5383C49.0641 43.1387 49.4902 42.7127 49.4902 42.1868C49.4902 41.661 49.0641 41.2349 48.5383 41.2349C43.7519 41.2349 7.60503 41.2349 3.24648 41.2349C2.50603 41.2349 1.90367 40.6319 1.90367 39.8908V32.8455C75.502 32.8458 55.8478 32.8457 63.0789 32.8455V39.8908C63.0789 40.6319 62.4766 41.2349 61.7361 41.2349H52.3442C51.8184 41.2349 51.3923 41.661 51.3923 42.1868C51.3923 42.7127 51.8184 43.1387 52.3442 43.1387H61.7361C63.5262 43.1387 64.9827 41.6818 64.9827 39.8908V3.2466C64.9829 1.4564 63.5263 0 61.7363 0ZM43.9601 52.2366L44.2739 53.0961H20.709L21.0227 52.2366C21.132 51.937 21.5544 51.6337 22.1501 51.6337H42.8328C43.4286 51.6337 43.851 51.9369 43.9601 52.2366ZM37.0075 43.1386C36.5527 45.6017 37.1333 47.8609 38.6864 49.7299H26.2965C27.8496 47.8609 28.4303 45.6019 27.9754 43.1386H37.0075ZM52.5055 23.3103L50.3065 22.0129L52.5055 20.7156V23.3103ZM48.4332 20.9076L46.8957 20.0005H49.9706L48.4332 20.9076ZM44.3608 20.7156L46.5598 22.0129L44.3608 23.3103V20.7156ZM48.4332 23.1183L49.9707 24.0254H46.8958L48.4332 23.1183ZM53.4574 18.0968H43.4088C42.883 18.0968 42.4569 18.5229 42.4569 19.0487V24.0254H39.2818V19.0487C39.2818 18.5229 38.8557 18.0968 38.3299 18.0968H28.2813C27.7554 18.0968 27.3294 18.5229 27.3294 19.0487V24.0254H22.2134V5.45704H59.5253V24.0254H54.4093V19.0487C54.4093 18.5229 53.9832 18.0968 53.4574 18.0968ZM35.1791 22.0129L37.3781 20.7156V23.3103L35.1791 22.0129ZM33.3057 20.9076L31.7684 20.0005H34.8431L33.3057 20.9076ZM31.4323 22.0129L29.2333 23.3103V20.7156L31.4323 22.0129ZM33.3057 23.1183L34.8431 24.0254H31.7684L33.3057 23.1183ZM61.4291 30.9417V4.50514C61.4291 3.97931 61.003 3.55324 60.4772 3.55324H4.50565C3.97982 3.55324 3.55375 3.97931 3.55375 4.50514V21.8398C3.55375 22.3657 3.97982 22.7917 4.50565 22.7917C5.03148 22.7917 5.45755 22.3657 5.45755 21.8398V5.45704H20.3098V24.9773C20.3098 25.5031 20.7359 25.9292 21.2617 25.9292H59.5253V30.9417H5.45755V25.6461C5.45755 25.1203 5.03148 24.6943 4.50565 24.6943C3.97982 24.6943 3.55375 25.1203 3.55375 25.6461V30.9417H1.90379V3.2466C1.90379 2.50616 2.50616 1.90379 3.2466 1.90379H61.7363C62.4767 1.90379 63.0791 2.50616 63.0791 3.2466V30.9417H61.4291Z" fill="white"/>
<path d="M31.3054 36.0883C30.7796 36.0883 30.3535 36.5143 30.3535 37.0402C30.3535 37.566 30.7796 37.9921 31.3054 37.9921H33.678C34.2039 37.9921 34.6299 37.566 34.6299 37.0402C34.6299 36.5143 34.2039 36.0883 33.678 36.0883H31.3054Z" fill="white"/>
<path d="M8.56713 9.77831H17.23C17.7559 9.77831 18.1819 9.35224 18.1819 8.82641C18.1819 8.30058 17.7559 7.87451 17.23 7.87451H8.56713C8.0413 7.87451 7.61523 8.30058 7.61523 8.82641C7.61523 9.35224 8.0413 9.77831 8.56713 9.77831Z" fill="white"/>
<path d="M8.56713 14.6451H17.23C17.7559 14.6451 18.1819 14.2191 18.1819 13.6932C18.1819 13.1674 17.7559 12.7413 17.23 12.7413H8.56713C8.0413 12.7413 7.61523 13.1674 7.61523 13.6932C7.61523 14.2191 8.0413 14.6451 8.56713 14.6451Z" fill="white"/>
<path d="M8.56713 19.5123H17.23C17.7559 19.5123 18.1819 19.0862 18.1819 18.5604C18.1819 18.0346 17.7559 17.6085 17.23 17.6085H8.56713C8.0413 17.6085 7.61523 18.0346 7.61523 18.5604C7.61523 19.0862 8.0413 19.5123 8.56713 19.5123Z" fill="white"/>
<path d="M8.56713 24.3793H17.23C17.7559 24.3793 18.1819 23.9532 18.1819 23.4274C18.1819 22.9015 17.7559 22.4755 17.23 22.4755H8.56713C8.0413 22.4755 7.61523 22.9015 7.61523 23.4274C7.61523 23.9532 8.0413 24.3793 8.56713 24.3793Z" fill="white"/>
<path d="M54.4098 8.19177C54.4098 7.66594 53.9837 7.23987 53.4579 7.23987H43.0104C42.4845 7.23987 42.0585 7.66594 42.0585 8.19177C42.0585 8.71759 42.4845 9.14366 43.0104 9.14366H46.0179L40.87 10.4829L35.7221 9.14366H39.2046C39.7304 9.14366 40.1565 8.71759 40.1565 8.19177C40.1565 7.66594 39.7304 7.23987 39.2046 7.23987H28.282C27.7561 7.23987 27.3301 7.66594 27.3301 8.19177V14.7413C27.3301 15.2672 27.7561 15.6932 28.282 15.6932H53.458C53.9838 15.6932 54.4099 15.2672 54.4099 14.7413V8.19177H54.4098ZM52.506 9.42301V13.51L44.6509 11.4664L52.506 9.42301ZM46.0179 13.7893H35.722L40.8699 12.45L46.0179 13.7893ZM29.2337 13.51V9.42301L37.0888 11.4665L29.2337 13.51Z" fill="white"/>
</svg>
