<svg width="55" height="48" viewBox="0 0 55 48" fill="none" xmlns="http://www.w3.org/2000/svg">
<path d="M37.1052 7.72159L31.8669 0.44666C31.665 0.166289 31.3406 0.000106812 30.9952 0.000106812C30.6497 0.000106812 30.3253 0.166289 30.1234 0.44666L24.8851 7.72159C24.7534 7.90442 24.6826 8.12399 24.6826 8.34926V8.52081V43.3807C24.6826 45.5973 26.4859 47.4005 28.7025 47.4005H33.2878C35.5044 47.4005 37.3077 45.5973 37.3077 43.3807V8.52081V8.34926C37.3077 8.12399 37.2369 7.90432 37.1052 7.72159ZM30.9952 2.91274L34.2598 7.44659H27.7306L30.9952 2.91274ZM26.8311 9.59503H31.9314V37.419H30.0585V16.9004C30.0587 16.307 29.5777 15.826 28.9844 15.826C28.3912 15.826 27.9102 16.307 27.9102 16.9003V37.4189H26.8311V9.59503ZM35.1593 43.3806C35.1593 44.4125 34.3198 45.252 33.2878 45.252H28.7025C27.6707 45.252 26.8311 44.4125 26.8311 43.3806V39.5673H35.1593V43.3806ZM35.1593 37.419H34.08V9.59503H35.1593V37.419Z" fill="white"/>
<path d="M30.0371 12.3764C30.0231 12.3087 30.0027 12.241 29.9759 12.1755C29.949 12.111 29.9157 12.0487 29.8771 11.9907C29.8384 11.9316 29.7933 11.8769 29.7438 11.8274C29.6944 11.778 29.6396 11.7329 29.5806 11.6932C29.5226 11.6545 29.4603 11.6223 29.3947 11.5954C29.3303 11.5686 29.2627 11.5471 29.1938 11.5331C29.0553 11.5063 28.9124 11.5063 28.7738 11.5331C28.7061 11.5471 28.6385 11.5686 28.5731 11.5954C28.5085 11.6223 28.4462 11.6545 28.3882 11.6932C28.3291 11.7329 28.2743 11.778 28.2249 11.8274C28.1755 11.8769 28.1304 11.9316 28.0906 11.9907C28.052 12.0487 28.0187 12.111 27.9918 12.1755C27.9649 12.241 27.9445 12.3087 27.9306 12.3764C27.9166 12.4462 27.9102 12.5171 27.9102 12.5869C27.9102 12.8694 28.0251 13.1466 28.225 13.3464C28.4247 13.5462 28.7019 13.6611 28.9844 13.6611C29.0542 13.6611 29.1252 13.6536 29.1938 13.6397C29.2627 13.6257 29.3304 13.6053 29.3947 13.5784C29.4603 13.5516 29.5226 13.5183 29.5806 13.4796C29.6396 13.4409 29.6944 13.3958 29.7438 13.3464C29.7933 13.297 29.8384 13.2422 29.8771 13.1831C29.9157 13.1251 29.949 13.0628 29.9759 12.9973C30.0027 12.9328 30.0231 12.8651 30.0371 12.7964C30.0511 12.7276 30.0585 12.6567 30.0585 12.5869C30.0585 12.5171 30.0511 12.4462 30.0371 12.3764Z" fill="white"/>
<path d="M10.4484 20.1186L10.4481 19.9549C10.4482 19.1083 11.137 18.4195 11.9836 18.4195C11.9987 18.4195 12.0138 18.4192 12.029 18.4186L15.3011 18.2801C17.2118 18.2667 18.7622 16.7081 18.7622 14.7941C18.7622 12.8719 17.1983 11.3082 15.2762 11.3082H7.96544C7.22799 11.3082 6.62793 10.7081 6.62793 9.97058C6.62793 9.61372 6.76865 9.27867 7.0241 9.0272C7.26913 8.78582 7.58946 8.65369 7.92784 8.65369C7.9403 8.65369 7.95298 8.65401 7.96544 8.65401L14.3621 8.6538C16.7479 8.6538 18.6888 6.71269 18.6888 4.32685C18.6888 1.94101 16.7478 0 14.362 0H7.08544C6.49226 0 6.01122 0.480928 6.01122 1.07422C6.01122 1.66751 6.49226 2.14844 7.08544 2.14844H14.362C15.5632 2.14844 16.5404 3.12565 16.5404 4.32685C16.5404 5.52804 15.5632 6.50525 14.3621 6.50536L7.97307 6.50558C7.05289 6.4929 6.17826 6.84492 5.51697 7.49601C4.84795 8.15472 4.47949 9.03343 4.47949 9.97068C4.47949 11.8929 6.04334 13.4567 7.96544 13.4567H15.2761C16.0136 13.4567 16.6137 14.0567 16.6137 14.7942C16.6137 15.5318 16.0136 16.1319 15.2761 16.1319C15.261 16.1319 15.2458 16.1322 15.2307 16.1328L11.959 16.2713C9.93889 16.2845 8.29974 17.9319 8.29974 19.9572L8.30006 20.1193C3.63505 20.6548 0 24.6271 0 29.4333V38.0425C0 43.2126 4.20621 47.4188 9.37632 47.4188C14.5464 47.4188 18.7526 43.2126 18.7526 38.0425V29.4333C18.7526 24.6257 15.1154 20.6523 10.4484 20.1186ZM2.14844 29.4333C2.14844 25.8126 4.8241 22.8053 8.3021 22.285V31.0465H2.14844V29.4333ZM16.6042 38.0425C16.6042 42.028 13.3618 45.2704 9.37632 45.2704C5.39086 45.2704 2.14844 42.028 2.14844 38.0425V33.1951H16.6042V38.0425ZM16.6042 31.0465H10.4505V22.285C13.9285 22.8053 16.6042 25.8126 16.6042 29.4333V31.0465Z" fill="white"/>
<path d="M4.00271 0.863977C3.98875 0.796301 3.96834 0.728625 3.94148 0.663098C3.91463 0.598645 3.88133 0.53634 3.84266 0.478333C3.80409 0.419251 3.75897 0.364465 3.70956 0.315051C3.50976 0.115247 3.23261 0.000305176 2.95009 0.000305176C2.66757 0.000305176 2.39042 0.115247 2.19062 0.315051C2.1412 0.364465 2.09608 0.419251 2.05741 0.478333C2.01777 0.53634 1.98544 0.598645 1.95858 0.663098C1.93065 0.728625 1.91035 0.796301 1.89628 0.863977C1.88231 0.933801 1.87598 1.0047 1.87598 1.07452C1.87598 1.14435 1.88242 1.21525 1.89628 1.284C1.91024 1.35275 1.93065 1.42042 1.95848 1.48488C1.98533 1.5504 2.01767 1.61271 2.0573 1.67072C2.09598 1.7298 2.14109 1.78458 2.19051 1.834C2.23992 1.88341 2.29471 1.92853 2.3539 1.9672C2.4119 2.00587 2.47421 2.03917 2.53866 2.06603C2.60419 2.09288 2.67187 2.11329 2.74062 2.12726C2.80937 2.14122 2.88026 2.14874 2.95009 2.14874C3.23261 2.14874 3.50976 2.0338 3.70956 1.834C3.75897 1.78458 3.80409 1.7298 3.84266 1.67072C3.88133 1.61271 3.91463 1.5504 3.94148 1.48488C3.96834 1.42042 3.98875 1.35275 4.00271 1.284C4.01668 1.21525 4.0242 1.14435 4.0242 1.07452C4.0242 1.0047 4.01668 0.933801 4.00271 0.863977Z" fill="white"/>
<path d="M54.9914 10.7187C54.8727 8.18382 53.5958 6.92924 52.5697 5.92119C51.4596 4.83043 50.7895 4.17204 51.4222 2.01426C51.7087 1.03737 51.3142 0.524426 51.0533 0.305608C50.7288 0.0334009 50.1497 -0.195837 49.2323 0.258235C48.0437 0.846692 46.2395 2.57672 44.845 4.46509C43.5646 6.19899 42.0632 8.79537 42.1814 11.3185C42.2698 13.2053 43.0697 14.9353 44.3757 16.1522C43.7303 17.0231 43.3477 18.1 43.3477 19.2648C43.3477 20.0038 43.4984 20.7081 43.7723 21.3475V42.3402C43.7723 44.8952 45.851 46.9739 48.4059 46.9739C50.9608 46.9739 53.0396 44.8952 53.0396 42.3402V22.0412C53.5404 21.2346 53.8264 20.2826 53.8264 19.2648C53.8265 18.114 53.4527 17.0495 52.8214 16.1842C54.2781 14.8321 55.0906 12.8373 54.9914 10.7187ZM50.8911 42.3401C50.8912 43.7105 49.7764 44.8253 48.406 44.8253C47.0357 44.8253 45.9208 43.7105 45.9208 42.3401V23.782C46.4787 24.1088 47.1059 24.3378 47.7828 24.4423C47.837 24.4507 47.8918 24.4549 47.9466 24.4549H49.2277C49.2826 24.4549 49.3374 24.4507 49.3915 24.4423C49.4623 24.4314 49.5328 24.4187 49.6029 24.4048C49.6477 24.3961 49.6919 24.386 49.7362 24.3763C49.7554 24.372 49.7746 24.3679 49.7937 24.3634C50.1794 24.2734 50.5465 24.1424 50.8911 23.9756V42.3401ZM50.0392 21.9916C50.0345 21.9939 50.0301 21.9962 50.0257 21.9986C49.9948 22.015 49.9635 22.0307 49.932 22.0462C49.917 22.0535 49.902 22.0606 49.8868 22.0677C49.8628 22.0789 49.8386 22.0899 49.8143 22.1005C49.7915 22.1105 49.7684 22.1201 49.7453 22.1295C49.7265 22.1372 49.7078 22.1449 49.6889 22.1522C49.6602 22.1633 49.6312 22.1736 49.6022 22.1838C49.5871 22.1891 49.5722 22.1945 49.5571 22.1996C49.5243 22.2104 49.4913 22.2205 49.4582 22.2303C49.4457 22.2341 49.4332 22.238 49.4205 22.2417C49.3844 22.2519 49.348 22.261 49.3115 22.2698C49.3012 22.2723 49.2911 22.2752 49.2808 22.2776C49.2338 22.2884 49.1867 22.2982 49.1392 22.3068H48.0356C48.0346 22.3066 48.0335 22.3064 48.0324 22.3061C47.9805 22.2968 47.9293 22.2856 47.8783 22.2736C47.8579 22.2688 47.8377 22.2635 47.8174 22.2582C47.787 22.2504 47.7567 22.2421 47.7266 22.2333C47.7012 22.2259 47.6758 22.2186 47.6506 22.2105C47.6316 22.2045 47.6128 22.1978 47.5939 22.1913C46.3682 21.7719 45.4965 20.5956 45.4965 19.2649C45.4965 18.2687 45.9708 17.3816 46.7048 16.8159C46.733 16.7941 46.7617 16.773 46.7906 16.7522C46.84 16.7168 46.8905 16.6827 46.9421 16.6502C46.9646 16.6359 46.9873 16.6217 47.0102 16.6081C47.0814 16.5656 47.1544 16.5259 47.2291 16.4891C47.2364 16.4855 47.2437 16.4816 47.251 16.4781C47.2943 16.4572 47.3383 16.4374 47.3826 16.4185C47.3899 16.4153 47.3973 16.4127 47.4046 16.4097C47.4818 16.3775 47.5605 16.3487 47.6407 16.3229C47.6655 16.3149 47.6903 16.3074 47.7153 16.3001C47.7696 16.2841 47.8245 16.2697 47.88 16.2566C47.9223 16.2467 47.9648 16.2373 48.0077 16.2293C48.0368 16.2237 48.0659 16.2183 48.0953 16.2136C48.1625 16.203 48.2303 16.1942 48.2987 16.1879C48.3172 16.1862 48.3359 16.185 48.3545 16.1836C48.4317 16.1779 48.5093 16.174 48.5876 16.174C48.6671 16.174 48.7456 16.1782 48.8238 16.184C48.8423 16.1854 48.8609 16.1864 48.8792 16.1881C48.9478 16.1945 49.0157 16.2035 49.083 16.2143C49.1134 16.2192 49.1436 16.2247 49.1738 16.2305C49.217 16.2386 49.2598 16.2483 49.3025 16.2584C49.3585 16.2717 49.4141 16.2864 49.4689 16.3028C49.4916 16.3095 49.5144 16.3166 49.5371 16.3239C49.6141 16.3489 49.6898 16.3767 49.7641 16.4073C49.775 16.4118 49.7861 16.4161 49.7969 16.4207C49.9271 16.4763 50.0526 16.5407 50.1729 16.6129C50.1995 16.6289 50.2258 16.6457 50.252 16.6625C50.3005 16.6937 50.3481 16.726 50.3947 16.7597C50.4273 16.7834 50.4595 16.8076 50.4913 16.8327C51.2132 17.399 51.6783 18.2784 51.6783 19.2649C51.6783 20.4229 51.0183 21.4645 50.0392 21.9916ZM51.2198 14.7351C51.1965 14.7215 51.1721 14.71 51.1487 14.6968C51.0927 14.6652 51.0357 14.6348 50.9784 14.6053C50.949 14.5902 50.9199 14.5747 50.8903 14.5602C50.699 14.4662 50.501 14.3841 50.2975 14.3136C50.2862 14.3098 50.2751 14.306 50.2638 14.3021C50.162 14.2677 50.0588 14.2358 49.9543 14.2075C49.9539 14.2074 49.9534 14.2073 49.9529 14.2071C49.7412 14.1498 49.5243 14.1059 49.3029 14.0755C49.2827 14.0727 49.2624 14.0703 49.2422 14.0677C49.1567 14.057 49.0707 14.0484 48.984 14.042C48.9581 14.04 48.9323 14.0377 48.9064 14.0361C48.8007 14.0297 48.6945 14.0254 48.5873 14.0254C48.4811 14.0254 48.376 14.0296 48.2713 14.0358C48.2463 14.0373 48.2214 14.0397 48.1963 14.0415C48.1105 14.0479 48.0252 14.0563 47.9406 14.0668C47.9207 14.0693 47.9009 14.0716 47.8811 14.0744C47.5532 14.1188 47.235 14.1936 46.9291 14.296C46.9204 14.2989 46.9118 14.3018 46.9032 14.3048C46.8063 14.3378 46.7105 14.3733 46.6162 14.4117C46.6083 14.4149 46.6004 14.4178 46.5925 14.4211C46.4941 14.4618 46.397 14.5048 46.3016 14.5513C46.2809 14.5614 46.2607 14.5725 46.2401 14.5828C46.1749 14.6156 46.1103 14.6494 46.0467 14.6849C46.0281 14.6952 46.0088 14.7041 45.9903 14.7146C45.0025 13.8741 44.3928 12.6108 44.3275 11.2181C44.2554 9.67806 45.1581 7.57034 46.8043 5.43533C47.6294 4.36519 48.4243 3.55727 49.0535 3.00824C48.8753 5.30309 50.0701 6.4771 51.0641 7.45368C51.9774 8.35097 52.7661 9.1258 52.8453 10.8191C52.9179 12.367 52.3061 13.811 51.2198 14.7351Z" fill="white"/>
</svg>
