<svg width="59" height="55" viewBox="0 0 59 55" fill="none" xmlns="http://www.w3.org/2000/svg">
<path d="M15.5487 34.9913C16.0915 34.6782 16.2773 33.9833 15.9642 33.4405C15.6507 32.8982 14.9562 32.712 14.4135 33.025C13.8707 33.3386 13.6844 34.0334 13.998 34.5758C14.311 35.1185 15.0059 35.3048 15.5487 34.9913Z" fill="white"/>
<path d="M10.8963 42.8265L16.6132 52.729C17.8468 54.8682 20.6219 55.6602 22.8165 54.3915C24.9881 53.1366 25.7344 50.3619 24.4781 48.1886L21.0725 42.289L24.0218 40.5862C24.5646 40.2722 24.7508 39.5782 24.4373 39.0355L22.9611 36.4786C23.1371 36.4444 24.2945 36.2174 44.7049 32.2135C47.2281 32.0765 48.7398 29.3169 47.4654 27.1108L43.6925 20.5762L46.1035 16.9245C46.3403 16.5653 46.3545 16.1036 46.1395 15.7311L43.869 11.7987C43.654 11.4262 43.2455 11.208 42.8176 11.2333L38.4501 11.4954L34.2618 4.24062C33.6552 3.18966 32.5683 2.55332 31.355 2.53824C31.3404 2.5378 31.3262 2.5378 31.3116 2.5378C30.1391 2.5378 29.0748 3.12137 28.4443 4.10803L13.6146 22.9996L3.97369 28.5658C0.181794 30.7542 -1.13169 35.6187 1.06513 39.4208C3.07216 42.8974 7.30351 44.265 10.8963 42.8265ZM22.5123 49.3243C23.1393 50.4089 22.7682 51.7969 21.6804 52.4253C20.5891 53.0563 19.1993 52.6687 18.5794 51.5943L12.9033 41.7618L16.8358 39.4913C23.405 50.871 22.4068 49.142 22.5123 49.3243ZM19.9372 40.3223L18.802 38.3561L20.7682 37.2209L21.9035 39.1871L19.9372 40.3223ZM42.2536 13.5414L43.8225 16.2588L42.4234 18.3776L39.7193 13.6935L42.2536 13.5414ZM30.3431 5.35278C30.6477 4.85435 31.1311 4.80291 31.3271 4.80823C31.5209 4.81045 32.0038 4.87076 32.2951 5.3754L45.4991 28.246C45.9293 28.9906 45.4065 29.9267 44.544 29.948C44.3892 29.9515 44.3178 29.9795 43.9214 30.0535L29.9542 5.86141C30.2473 5.48448 30.285 5.44812 30.3431 5.35278ZM28.4434 7.78596L41.5662 30.5156L21.7611 34.4001L15.7391 23.9699L28.4434 7.78596ZM3.03137 38.2856C2.53294 37.4231 2.26953 36.444 2.26953 35.4533C2.26953 33.4286 3.35774 31.543 5.1089 30.532L13.9569 25.4235L19.633 35.2547L10.785 40.3636C8.07421 41.9281 4.59628 40.9959 3.03137 38.2856Z" fill="white"/>
<path d="M12.0319 35.711C11.7184 35.1682 11.0239 34.9819 10.4811 35.2954L8.51492 36.4307C7.97303 36.7437 7.27726 36.557 6.96419 36.0152C6.65068 35.4724 5.95624 35.2861 5.41347 35.5996C4.87069 35.9132 4.68444 36.6076 4.99796 37.1504C5.9323 38.7689 8.01648 39.3397 9.65013 38.3969L11.6164 37.2617C12.1591 36.9482 12.3454 36.2542 12.0319 35.711Z" fill="white"/>
<path d="M56.4355 4.96613L50.1098 8.48619C49.5621 8.79128 49.3648 9.48261 49.6699 10.0303C49.9741 10.5775 50.665 10.7757 51.214 10.4702L57.5393 6.9501C58.0874 6.64501 58.2842 5.95368 57.9792 5.40603C57.6745 4.85793 56.9832 4.66104 56.4355 4.96613Z" fill="white"/>
<path d="M55.7727 16.7236L51.3866 15.5485C50.7809 15.3862 50.1583 15.7454 49.996 16.3511C49.8337 16.9569 50.1933 17.579 50.7991 17.7413L55.1856 18.9165C55.7949 19.0801 56.4144 18.7151 56.5758 18.1138C56.7381 17.5081 56.3785 16.8855 55.7727 16.7236Z" fill="white"/>
<path d="M44.7506 0.841623L43.5741 5.22817C43.4118 5.83392 43.771 6.45607 44.3768 6.61881C44.9821 6.78067 45.6047 6.42237 45.7674 5.81618L46.9434 1.42963C47.1057 0.823886 46.7465 0.20129 46.1408 0.0389895C45.5355 -0.123311 44.9129 0.235879 44.7506 0.841623Z" fill="white"/>
</svg>
