<svg width="97" height="80" viewBox="0 0 97 80" fill="none" xmlns="http://www.w3.org/2000/svg">
<path d="M17.4312 54.0475L14.2508 66.2407H10.6534L8.7069 58.2161L6.69093 66.2407H3.09347L0 54.0475H3.18037L4.93565 62.9232L7.10803 54.0475H10.3753L12.4608 62.9232L14.2334 54.0475H17.4312Z" fill="black"/>
<path d="M26.5162 64.0869H21.9629L21.233 66.2407H18.1221L22.5364 54.0475H25.9775L30.3918 66.2407H27.2461L26.5162 64.0869ZM25.7515 61.7942L24.2396 57.3303L22.745 61.7942H25.7515Z" fill="black"/>
<path d="M34.8982 63.809H40.1467V66.2407H31.5267V63.9827L36.7404 56.4792H31.5267V54.0475H40.1467V56.3055L34.8982 63.809Z" fill="black"/>
<path d="M58.8761 54.0475L55.6958 66.2407H52.0983L50.1519 58.2161L48.1359 66.2407H44.5384L41.445 54.0475H44.6253L46.3806 62.9232L48.553 54.0475H51.8203L53.9057 62.9232L55.6784 54.0475H58.8761Z" fill="black"/>
<path d="M66.1364 66.3623C64.9894 66.3623 63.935 66.096 62.9734 65.5633C62.0233 65.0307 61.2645 64.2896 60.6967 63.34C60.1406 62.3789 59.8625 61.302 59.8625 60.1094C59.8625 58.9167 60.1406 57.8456 60.6967 56.896C61.2645 55.9465 62.0233 55.2054 62.9734 54.6728C63.935 54.1401 64.9894 53.8738 66.1364 53.8738C67.2834 53.8738 68.3319 54.1401 69.282 54.6728C70.2436 55.2054 70.9967 55.9465 71.5413 56.896C72.0974 57.8456 72.3755 58.9167 72.3755 60.1094C72.3755 61.302 72.0974 62.3789 71.5413 63.34C70.9851 64.2896 70.2321 65.0307 69.282 65.5633C68.3319 66.096 67.2834 66.3623 66.1364 66.3623ZM66.1364 63.6527C67.1096 63.6527 67.8859 63.3285 68.4652 62.68C69.0561 62.0316 69.3515 61.1747 69.3515 60.1094C69.3515 59.0325 69.0561 58.1756 68.4652 57.5387C67.8859 56.8902 67.1096 56.566 66.1364 56.566C65.1516 56.566 64.3637 56.8845 63.7728 57.5213C63.1935 58.1582 62.9039 59.0209 62.9039 60.1094C62.9039 61.1863 63.1935 62.0489 63.7728 62.6974C64.3637 63.3343 65.1516 63.6527 66.1364 63.6527Z" fill="black"/>
<path d="M80.2505 66.2407L77.7131 61.6379H77.0006V66.2407H74.0288V54.0475H79.0166C79.9782 54.0475 80.795 54.2154 81.467 54.5512C82.1506 54.887 82.6604 55.3502 82.9964 55.9407C83.3324 56.5197 83.5004 57.1682 83.5004 57.8861C83.5004 58.6967 83.2686 59.4204 82.8052 60.0572C82.3533 60.6941 81.6814 61.1457 80.7892 61.4121L83.6046 66.2407H80.2505ZM77.0006 59.5362H78.8428C79.3873 59.5362 79.7928 59.403 80.0593 59.1367C80.3374 58.8703 80.4764 58.494 80.4764 58.0077C80.4764 57.5445 80.3374 57.1797 80.0593 56.9134C79.7928 56.6471 79.3873 56.5139 78.8428 56.5139H77.0006V59.5362Z" fill="black"/>
<path d="M92.4392 66.2407L88.3377 60.8562V66.2407H85.3659V54.0475H88.3377V59.3972L92.4044 54.0475H95.8976L91.1705 60.0225L96.0714 66.2407H92.4392Z" fill="black"/>
<path d="M6.89553 73.7154L4.74461 77.8756V79.9292H3.231V77.8756L1.08008 73.7154H2.79727L4.00108 76.3178L5.19604 73.7154H6.89553Z" fill="#00AFDB"/>
<path d="M9.75367 80C9.26979 80 8.83311 79.8967 8.44364 79.6902C8.06008 79.4837 7.75618 79.1886 7.53194 78.805C7.3136 78.4215 7.20443 77.973 7.20443 77.4596C7.20443 76.9521 7.31655 76.5066 7.54079 76.123C7.76503 75.7336 8.07188 75.4356 8.46135 75.229C8.85081 75.0225 9.28749 74.9192 9.77137 74.9192C10.2553 74.9192 10.6919 75.0225 11.0814 75.229C11.4709 75.4356 11.7777 75.7336 12.002 76.123C12.2262 76.5066 12.3383 76.9521 12.3383 77.4596C12.3383 77.9671 12.2232 78.4156 11.9931 78.805C11.7689 79.1886 11.4591 79.4837 11.0637 79.6902C10.6742 79.8967 10.2376 80 9.75367 80ZM9.75367 78.69C10.0428 78.69 10.2877 78.5837 10.4883 78.3713C10.6949 78.1589 10.7982 77.855 10.7982 77.4596C10.7982 77.0642 10.6978 76.7603 10.4972 76.5479C10.3025 76.3355 10.0605 76.2292 9.77137 76.2292C9.47632 76.2292 9.23143 76.3355 9.0367 76.5479C8.84196 76.7544 8.7446 77.0583 8.7446 77.4596C8.7446 77.855 8.83901 78.1589 9.02784 78.3713C9.22258 78.5837 9.46452 78.69 9.75367 78.69Z" fill="#00AFDB"/>
<path d="M18.0185 74.99V79.9292H16.5049V79.2565C16.3515 79.4748 16.142 79.6518 15.8764 79.7876C15.6168 79.9174 15.3276 79.9823 15.009 79.9823C14.6313 79.9823 14.2979 79.8997 14.0088 79.7344C13.7196 79.5633 13.4954 79.3184 13.336 78.9998C13.1767 78.6811 13.0971 78.3064 13.0971 77.8756V74.99H14.6018V77.672C14.6018 78.0025 14.6874 78.2592 14.8585 78.4421C15.0296 78.6251 15.2598 78.7165 15.5489 78.7165C15.844 78.7165 16.0771 78.6251 16.2482 78.4421C16.4193 78.2592 16.5049 78.0025 16.5049 77.672V74.99H18.0185Z" fill="#00AFDB"/>
<path d="M20.7248 76.8134C20.7248 76.1997 20.8576 75.6539 21.1231 75.1759C21.3886 74.692 21.7575 74.3173 22.2295 74.0518C22.7075 73.7803 23.2475 73.6446 23.8494 73.6446C24.587 73.6446 25.2184 73.8393 25.7436 74.2288C26.2688 74.6183 26.6199 75.1494 26.7969 75.8221H25.1328C25.0089 75.5624 24.8319 75.3647 24.6018 75.229C24.3775 75.0933 24.1208 75.0254 23.8317 75.0254C23.3655 75.0254 22.9878 75.1877 22.6987 75.5123C22.4095 75.8368 22.265 76.2706 22.265 76.8134C22.265 77.3563 22.4095 77.7901 22.6987 78.1146C22.9878 78.4392 23.3655 78.6015 23.8317 78.6015C24.1208 78.6015 24.3775 78.5336 24.6018 78.3979C24.8319 78.2621 25.0089 78.0645 25.1328 77.8048H26.7969C26.6199 78.4775 26.2688 79.0086 25.7436 79.3981C25.2184 79.7817 24.587 79.9734 23.8494 79.9734C23.2475 79.9734 22.7075 79.8407 22.2295 79.5751C21.7575 79.3037 21.3886 78.929 21.1231 78.451C20.8576 77.973 20.7248 77.4272 20.7248 76.8134Z" fill="#00AFDB"/>
<path d="M27.4229 77.4508C27.4229 76.9433 27.5173 76.4977 27.7061 76.1142C27.9009 75.7306 28.1635 75.4356 28.4939 75.229C28.8244 75.0225 29.1932 74.9192 29.6004 74.9192C29.9485 74.9192 30.2524 74.99 30.5121 75.1317C30.7776 75.2733 30.9812 75.4592 31.1228 75.6893V74.99H32.6364V79.9292H31.1228V79.2299C30.9753 79.46 30.7688 79.6459 30.5032 79.7876C30.2436 79.9292 29.9397 80 29.5915 80C29.1903 80 28.8244 79.8967 28.4939 79.6902C28.1635 79.4778 27.9009 79.1798 27.7061 78.7962C27.5173 78.4067 27.4229 77.9582 27.4229 77.4508ZM31.1228 77.4596C31.1228 77.0819 31.0166 76.7839 30.8042 76.5656C30.5976 76.3473 30.3439 76.2381 30.0429 76.2381C29.742 76.2381 29.4853 76.3473 29.2729 76.5656C29.0663 76.778 28.9631 77.0731 28.9631 77.4508C28.9631 77.8284 29.0663 78.1294 29.2729 78.3536C29.4853 78.5719 29.742 78.6811 30.0429 78.6811C30.3439 78.6811 30.5976 78.5719 30.8042 78.3536C31.0166 78.1353 31.1228 77.8373 31.1228 77.4596Z" fill="#00AFDB"/>
<path d="M36.741 74.9369C37.3193 74.9369 37.7796 75.1258 38.1218 75.5034C38.47 75.8752 38.6441 76.3886 38.6441 77.0436V79.9292H37.1393V77.2472C37.1393 76.9167 37.0537 76.66 36.8826 76.4771C36.7115 76.2942 36.4813 76.2027 36.1922 76.2027C35.903 76.2027 35.6729 76.2942 35.5018 76.4771C35.3306 76.66 35.2451 76.9167 35.2451 77.2472V79.9292H33.7315V74.99H35.2451V75.645C35.3985 75.4267 35.605 75.2556 35.8647 75.1317C36.1243 75.0018 36.4164 74.9369 36.741 74.9369Z" fill="#00AFDB"/>
<path d="M46.9534 73.7154V79.9292H45.4398V77.3711H43.0852V79.9292H41.5716V73.7154H43.0852V76.1496H45.4398V73.7154H46.9534Z" fill="#00AFDB"/>
<path d="M48.8073 74.4766C48.5417 74.4766 48.3234 74.3999 48.1523 74.2465C47.987 74.0872 47.9044 73.8924 47.9044 73.6623C47.9044 73.4263 47.987 73.2315 48.1523 73.0781C48.3234 72.9188 48.5417 72.8391 48.8073 72.8391C49.0669 72.8391 49.2794 72.9188 49.4446 73.0781C49.6157 73.2315 49.7013 73.4263 49.7013 73.6623C49.7013 73.8924 49.6157 74.0872 49.4446 74.2465C49.2794 74.3999 49.0669 74.4766 48.8073 74.4766ZM49.5597 74.99V79.9292H48.046V74.99H49.5597Z" fill="#00AFDB"/>
<path d="M53.4094 78.6457V79.9292H52.6393C52.0905 79.9292 51.6627 79.7964 51.3558 79.5309C51.049 79.2594 50.8955 78.8198 50.8955 78.212V76.2469H50.2936V74.99H50.8955V73.7862H52.4092V74.99H53.4005V76.2469H52.4092V78.2297C52.4092 78.3772 52.4446 78.4834 52.5154 78.5483C52.5862 78.6133 52.7042 78.6457 52.8694 78.6457H53.4094Z" fill="#00AFDB"/>
<path d="M60.5983 73.7154V74.9281H58.9519V79.9292H57.4383V74.9281H55.7919V73.7154H60.5983Z" fill="#00AFDB"/>
<path d="M64.394 74.9369C64.9605 74.9369 65.4148 75.1258 65.7571 75.5034C66.0994 75.8752 66.2705 76.3886 66.2705 77.0436V79.9292H64.7657V77.2472C64.7657 76.9167 64.6802 76.66 64.509 76.4771C64.3379 76.2942 64.1078 76.2027 63.8186 76.2027C63.5295 76.2027 63.2993 76.2942 63.1282 76.4771C62.9571 76.66 62.8715 76.9167 62.8715 77.2472V79.9292H61.3579V73.3791H62.8715V75.6539C63.0249 75.4356 63.2344 75.2615 63.5 75.1317C63.7655 75.0018 64.0635 74.9369 64.394 74.9369Z" fill="#00AFDB"/>
<path d="M71.9782 77.3799C71.9782 77.5216 71.9693 77.6691 71.9516 77.8225H68.5261C68.5497 78.1294 68.6471 78.3654 68.8182 78.5306C68.9952 78.69 69.2106 78.7696 69.4644 78.7696C69.842 78.7696 70.1046 78.6103 70.2522 78.2916H71.8631C71.7805 78.6162 71.63 78.9083 71.4117 79.1679C71.1993 79.4276 70.9308 79.6312 70.6062 79.7787C70.2817 79.9262 69.9188 80 69.5175 80C69.0336 80 68.6028 79.8967 68.2252 79.6902C67.8475 79.4837 67.5524 79.1886 67.34 78.805C67.1276 78.4215 67.0214 77.973 67.0214 77.4596C67.0214 76.9462 67.1246 76.4977 67.3312 76.1142C67.5436 75.7306 67.8386 75.4356 68.2163 75.229C68.594 75.0225 69.0277 74.9192 69.5175 74.9192C69.9955 74.9192 70.4203 75.0195 70.7921 75.2202C71.1639 75.4208 71.453 75.707 71.6595 76.0788C71.872 76.4505 71.9782 76.8843 71.9782 77.3799ZM70.4292 76.9816C70.4292 76.722 70.3407 76.5154 70.1636 76.362C69.9866 76.2086 69.7653 76.1319 69.4998 76.1319C69.246 76.1319 69.0306 76.2056 68.8536 76.3532C68.6825 76.5007 68.5763 76.7102 68.535 76.9816H70.4292Z" fill="#00AFDB"/>
<path d="M77.8213 79.9292L76.529 77.5835H76.1661V79.9292H74.6525V73.7154H77.1929C77.6826 73.7154 78.0987 73.801 78.4409 73.9721C78.7891 74.1432 79.0487 74.3793 79.2199 74.6802C79.391 74.9753 79.4765 75.3057 79.4765 75.6716C79.4765 76.0847 79.3585 76.4535 79.1225 76.778C78.8923 77.1026 78.5501 77.3327 78.0957 77.4685L79.5297 79.9292H77.8213ZM76.1661 76.5125H77.1043C77.3817 76.5125 77.5882 76.4446 77.7239 76.3089C77.8656 76.1732 77.9364 75.9814 77.9364 75.7336C77.9364 75.4975 77.8656 75.3116 77.7239 75.1759C77.5882 75.0402 77.3817 74.9723 77.1043 74.9723H76.1661V76.5125Z" fill="#00AFDB"/>
<path d="M82.675 80C82.1911 80 81.7544 79.8967 81.365 79.6902C80.9814 79.4837 80.6775 79.1886 80.4533 78.805C80.2349 78.4215 80.1258 77.973 80.1258 77.4596C80.1258 76.9521 80.2379 76.5066 80.4621 76.123C80.6863 75.7336 80.9932 75.4356 81.3827 75.229C81.7721 75.0225 82.2088 74.9192 82.6927 74.9192C83.1766 74.9192 83.6132 75.0225 84.0027 75.229C84.3922 75.4356 84.699 75.7336 84.9233 76.123C85.1475 76.5066 85.2596 76.9521 85.2596 77.4596C85.2596 77.9671 85.1446 78.4156 84.9144 78.805C84.6902 79.1886 84.3804 79.4837 83.985 79.6902C83.5956 79.8967 83.1589 80 82.675 80ZM82.675 78.69C82.9641 78.69 83.209 78.5837 83.4097 78.3713C83.6162 78.1589 83.7195 77.855 83.7195 77.4596C83.7195 77.0642 83.6192 76.7603 83.4185 76.5479C83.2238 76.3355 82.9818 76.2292 82.6927 76.2292C82.3976 76.2292 82.1528 76.3355 81.958 76.5479C81.7633 76.7544 81.6659 77.0583 81.6659 77.4596C81.6659 77.855 81.7603 78.1589 81.9492 78.3713C82.1439 78.5837 82.3858 78.69 82.675 78.69Z" fill="#00AFDB"/>
<path d="M85.7617 77.4508C85.7617 76.9433 85.8561 76.4977 86.0449 76.1142C86.2397 75.7306 86.5023 75.4356 86.8327 75.229C87.1632 75.0225 87.532 74.9192 87.9392 74.9192C88.2873 74.9192 88.5912 74.99 88.8509 75.1317C89.1164 75.2733 89.32 75.4592 89.4616 75.6893V74.99H90.9752V79.9292H89.4616V79.2299C89.3141 79.46 89.1076 79.6459 88.842 79.7876C88.5824 79.9292 88.2785 80 87.9303 80C87.529 80 87.1632 79.8967 86.8327 79.6902C86.5023 79.4778 86.2397 79.1798 86.0449 78.7962C85.8561 78.4067 85.7617 77.9582 85.7617 77.4508ZM89.4616 77.4596C89.4616 77.0819 89.3554 76.7839 89.143 76.5656C88.9364 76.3473 88.6827 76.2381 88.3817 76.2381C88.0808 76.2381 87.8241 76.3473 87.6116 76.5656C87.4051 76.778 87.3018 77.0731 87.3018 77.4508C87.3018 77.8284 87.4051 78.1294 87.6116 78.3536C87.8241 78.5719 88.0808 78.6811 88.3817 78.6811C88.6827 78.6811 88.9364 78.5719 89.143 78.3536C89.3554 78.1353 89.4616 77.8373 89.4616 77.4596Z" fill="#00AFDB"/>
<path d="M91.7693 77.4508C91.7693 76.9433 91.8637 76.4977 92.0525 76.1142C92.2473 75.7306 92.5099 75.4356 92.8403 75.229C93.1708 75.0225 93.5396 74.9192 93.9468 74.9192C94.2713 74.9192 94.5664 74.9871 94.8319 75.1228C95.1034 75.2585 95.3158 75.4415 95.4692 75.6716V73.3791H96.9829V79.9292H95.4692V79.2211C95.3276 79.4571 95.124 79.6459 94.8585 79.7876C94.5988 79.9292 94.2949 80 93.9468 80C93.5396 80 93.1708 79.8967 92.8403 79.6902C92.5099 79.4778 92.2473 79.1798 92.0525 78.7962C91.8637 78.4067 91.7693 77.9582 91.7693 77.4508ZM95.4692 77.4596C95.4692 77.0819 95.363 76.7839 95.1506 76.5656C94.944 76.3473 94.6903 76.2381 94.3894 76.2381C94.0884 76.2381 93.8317 76.3473 93.6193 76.5656C93.4127 76.778 93.3095 77.0731 93.3095 77.4508C93.3095 77.8284 93.4127 78.1294 93.6193 78.3536C93.8317 78.5719 94.0884 78.6811 94.3894 78.6811C94.6903 78.6811 94.944 78.5719 95.1506 78.3536C95.363 78.1353 95.4692 77.8373 95.4692 77.4596Z" fill="#00AFDB"/>
<path d="M64.5559 0.656573C63.2705 0.117847 61.9436 -0.0893561 60.6583 0.0349654C60.4924 0.0349654 60.3265 0.0763958 60.2022 0.0763958C57.2997 0.490801 54.6875 2.43851 53.6094 5.33935L43.0361 33.3117C46.1459 33.0631 48.9655 31.0739 50.1264 28.0073L58.0046 7.20417C58.668 5.42223 60.5753 4.38622 62.3997 4.96639C64.3485 5.58799 65.3851 7.70145 64.6802 9.60772L57.5899 28.2974C57.3412 28.919 57.3826 29.5406 57.6314 30.1208C57.8802 30.6595 58.3363 31.1153 58.9582 31.364C60.2022 31.8198 61.5705 31.1982 62.0266 29.9965L69.0339 11.514C70.6096 7.24561 68.7022 2.39708 64.5559 0.656573Z" fill="#00AFDB"/>
<path d="M77.8656 8.19879L68.7436 32.3586C68.2875 33.6018 68.9094 34.9694 70.1119 35.4252C71.3558 35.881 72.7241 35.2594 73.1802 34.0577C75.129 28.919 80.3534 15.0365 82.3022 9.89785C82.7583 8.65463 82.1364 7.2871 80.9339 6.83125C79.69 6.37541 78.3217 6.99701 77.8656 8.19879Z" fill="#00AFDB"/>
<path d="M41.0455 5.25649C40.1748 4.34479 39.0552 3.59888 37.7284 3.14303C33.4576 1.73405 28.8551 4.05472 27.2795 8.28165L15.4623 39.5692C15.0062 40.8125 15.6282 42.18 16.8306 42.6359C17.4526 42.8845 18.0745 42.8431 18.655 42.5944C19.1941 42.3458 19.6502 41.8899 19.8989 41.2683L31.7991 9.77351C32.504 7.86725 34.7015 6.95555 36.5674 7.78436C38.3089 8.57173 39.0552 10.6023 38.3918 12.3843L30.5137 33.1874C29.3527 36.254 30.1405 39.6107 32.2966 41.8485L42.8699 13.9176C43.9894 10.8095 43.1601 7.45283 41.0455 5.25649Z" fill="#00AFDB"/>
<path d="M60.2023 0.11792C57.2998 0.532325 54.6876 2.48004 53.6095 5.38087L41.5435 37.3315C40.8387 39.2378 38.6411 40.1495 36.7752 39.3207C35.0337 38.5333 34.2874 36.5027 34.9508 34.7208L42.8289 13.9176C43.9899 10.851 43.2021 7.49433 41.046 5.25654L30.4727 33.1875C29.3117 36.2541 30.0995 39.6107 32.2556 41.8485C33.1264 42.7602 34.2459 43.5062 35.5728 43.962C39.8435 45.371 44.446 43.0503 46.0216 38.8234L60.1193 1.5269C60.3267 1.07105 60.3267 0.573766 60.2023 0.11792Z" fill="#00AFDB"/>
</svg>
