<svg width="26" height="26" viewBox="0 0 26 26" fill="none" xmlns="http://www.w3.org/2000/svg">
<path d="M23.08 25C9.16 25 1 16.84 1 2.92001C1 1.85962 1.85962 1 2.92001 1L7.91213 1.00001C8.8665 1.00001 9.64008 1.77482 9.73684 2.72427C9.84273 3.76341 10.0356 4.90574 10.3156 5.89196C10.6093 6.92668 10.2871 8.17317 9.35324 8.70682L7.72016 9.64C7.72016 13.96 12.0402 18.28 16.8402 18.28L17.401 16.9714C17.8582 15.9045 19.2201 15.4524 20.3424 15.7486C21.2725 15.9941 22.318 16.1657 23.2758 16.2633C24.2252 16.3601 25 17.1336 25 18.088V23.08C25 24.1404 24.1404 25 23.08 25Z" stroke="black" stroke-width="2" stroke-linecap="round" stroke-linejoin="round"/>
</svg>
