<svg width="610" height="415" viewBox="0 0 610 415" fill="none" xmlns="http://www.w3.org/2000/svg">
<path d="M236.086 84.6751L191.009 94.6122L204.334 157.56L249.411 147.623L236.086 84.6751Z" fill="#F5F5F5"/>
<path d="M450.692 58.8055H297.062V160.754H450.692V58.8055Z" fill="#F5F5F5"/>
<path d="M394.187 110.419C396.868 98.9601 389.939 87.4529 378.711 84.7167C367.482 81.9805 356.206 89.0515 353.525 100.51C350.843 111.969 357.772 123.476 369.001 126.212C380.23 128.948 391.506 121.877 394.187 110.419Z" fill="#E0E0E0"/>
<path d="M380.9 105.476L375.443 108.689L369.977 111.909V105.476V99.0439L375.443 102.256L380.9 105.476Z" fill="#F5F5F5"/>
<path d="M450.692 142.445H297.062V160.763H450.692V142.445Z" fill="#E0E0E0"/>
<path d="M311.986 151.6L309.774 152.911L307.554 154.214V151.6V148.993L309.774 150.296L311.986 151.6Z" fill="#F5F5F5"/>
<path d="M438.045 151.185H324.723V152.015H438.045V151.185Z" fill="#F5F5F5"/>
<path d="M327.017 151.6C327.019 151.941 326.921 152.276 326.736 152.561C326.551 152.846 326.287 153.069 325.978 153.2C325.669 153.332 325.329 153.368 325 153.302C324.672 153.236 324.369 153.073 324.132 152.832C323.895 152.59 323.733 152.283 323.667 151.948C323.601 151.613 323.634 151.265 323.762 150.949C323.889 150.633 324.106 150.363 324.385 150.173C324.663 149.983 324.99 149.881 325.325 149.881C325.773 149.881 326.202 150.062 326.519 150.384C326.836 150.706 327.015 151.143 327.017 151.6Z" fill="#F5F5F5"/>
<path d="M558.622 132.236H410.27C407.804 132.236 405.804 134.276 405.804 136.792V272.331C405.804 274.848 407.804 276.888 410.27 276.888H558.622C561.088 276.888 563.087 274.848 563.087 272.331V136.792C563.087 134.276 561.088 132.236 558.622 132.236Z" fill="#F5F5F5"/>
<path d="M411.018 132.236H557.873C559.256 132.236 560.582 132.796 561.56 133.794C562.538 134.792 563.087 136.145 563.087 137.556V148.387H405.804V137.556C405.804 136.857 405.939 136.165 406.201 135.52C406.463 134.874 406.847 134.288 407.331 133.794C407.816 133.3 408.39 132.908 409.023 132.641C409.655 132.373 410.333 132.236 411.018 132.236Z" fill="#EBEBEB"/>
<path d="M415.402 141.606C416.089 141.606 416.646 141.038 416.646 140.336C416.646 139.635 416.089 139.067 415.402 139.067C414.715 139.067 414.157 139.635 414.157 140.336C414.157 141.038 414.715 141.606 415.402 141.606Z" fill="#FAFAFA"/>
<path d="M424.088 140.336C424.09 140.588 424.018 140.834 423.882 141.044C423.747 141.254 423.553 141.418 423.326 141.516C423.098 141.613 422.848 141.639 422.606 141.591C422.364 141.543 422.142 141.423 421.967 141.246C421.792 141.068 421.673 140.842 421.624 140.596C421.575 140.349 421.599 140.093 421.693 139.861C421.787 139.628 421.947 139.429 422.152 139.289C422.356 139.15 422.597 139.075 422.844 139.075C423.172 139.075 423.488 139.207 423.721 139.444C423.954 139.68 424.086 140.001 424.088 140.336Z" fill="#FAFAFA"/>
<path d="M430.286 141.606C430.973 141.606 431.53 141.038 431.53 140.336C431.53 139.635 430.973 139.067 430.286 139.067C429.599 139.067 429.042 139.635 429.042 140.336C429.042 141.038 429.599 141.606 430.286 141.606Z" fill="#FAFAFA"/>
<path d="M544.169 161.41H484.779V163.601H544.169V161.41Z" fill="#FAFAFA"/>
<path d="M544.169 170.432H484.779V172.623H544.169V170.432Z" fill="#FAFAFA"/>
<path d="M544.169 179.463H484.779V181.654H544.169V179.463Z" fill="#FAFAFA"/>
<path d="M544.169 188.493H484.779V190.684H544.169V188.493Z" fill="#FAFAFA"/>
<path d="M514.474 197.515H484.779V199.706H514.474V197.515Z" fill="#FAFAFA"/>
<path d="M421.697 217.468H481.087V215.277H421.697V217.468Z" fill="#FAFAFA"/>
<path d="M421.697 226.49H481.087V224.299H421.697V226.49Z" fill="#FAFAFA"/>
<path d="M421.697 235.521H481.087V233.33H421.697V235.521Z" fill="#FAFAFA"/>
<path d="M421.697 244.543H481.087V242.352H421.697V244.543Z" fill="#FAFAFA"/>
<path d="M451.392 253.573H481.087V251.382H451.392V253.573Z" fill="#FAFAFA"/>
<path d="M542.176 212.845H491.351V255.997H542.176V212.845Z" fill="#FAFAFA"/>
<path d="M491.27 242.966L506.284 232.226L516.768 239.629L533.246 225.395L542.176 234.425V255.997H491.351L491.27 242.966Z" fill="#EBEBEB"/>
<path d="M517.646 229.736C519.995 229.736 521.9 227.792 521.9 225.395C521.9 222.997 519.995 221.054 517.646 221.054C515.297 221.054 513.392 222.997 513.392 225.395C513.392 227.792 515.297 229.736 517.646 229.736Z" fill="#EBEBEB"/>
<path d="M472.53 160.082H421.705V203.234H472.53V160.082Z" fill="#FAFAFA"/>
<path d="M421.616 190.203L436.63 179.463L447.114 186.858L463.592 172.632L472.522 181.654V203.234H421.705L421.616 190.203Z" fill="#EBEBEB"/>
<path d="M447.992 176.973C450.341 176.973 452.246 175.029 452.246 172.632C452.246 170.234 450.341 168.291 447.992 168.291C445.643 168.291 443.738 170.234 443.738 172.632C443.738 175.029 445.643 176.973 447.992 176.973Z" fill="#EBEBEB"/>
<path d="M47.6938 199.648H236.908V300.377C236.908 301.401 236.509 302.382 235.8 303.106C235.091 303.83 234.129 304.237 233.126 304.237H51.4758C50.4728 304.237 49.5108 303.83 48.8016 303.106C48.0923 302.382 47.6938 301.401 47.6938 300.377V199.648Z" fill="#F5F5F5"/>
<path d="M236.908 199.648H47.6938V219.079H236.908V199.648Z" fill="#EBEBEB"/>
<path d="M59.2351 210.928C60.0616 210.928 60.7316 210.244 60.7316 209.401C60.7316 208.557 60.0616 207.874 59.2351 207.874C58.4085 207.874 57.7385 208.557 57.7385 209.401C57.7385 210.244 58.4085 210.928 59.2351 210.928Z" fill="#FAFAFA"/>
<path d="M68.1899 210.928C69.0164 210.928 69.6864 210.244 69.6864 209.401C69.6864 208.557 69.0164 207.874 68.1899 207.874C67.3634 207.874 66.6934 208.557 66.6934 209.401C66.6934 210.244 67.3634 210.928 68.1899 210.928Z" fill="#FAFAFA"/>
<path d="M77.1447 210.928C77.9712 210.928 78.6413 210.244 78.6413 209.401C78.6413 208.557 77.9712 207.874 77.1447 207.874C76.3182 207.874 75.6482 208.557 75.6482 209.401C75.6482 210.244 76.3182 210.928 77.1447 210.928Z" fill="#FAFAFA"/>
<path d="M214.159 234.749H142.708V237.388H214.159V234.749Z" fill="#EBEBEB"/>
<path d="M214.159 245.605H142.708V248.245H214.159V245.605Z" fill="#EBEBEB"/>
<path d="M214.159 256.462H142.708V259.101H214.159V256.462Z" fill="#EBEBEB"/>
<path d="M214.159 267.326H142.708V269.966H214.159V267.326Z" fill="#EBEBEB"/>
<path d="M178.429 278.183H142.708V280.822H178.429V278.183Z" fill="#EBEBEB"/>
<path d="M124.57 232.898H63.4319V284.815H124.57V232.898Z" fill="#FAFAFA"/>
<path d="M63.3262 269.136L81.3984 256.213L94.0051 265.119L113.826 247.996L124.57 258.852V284.815H63.4319L63.3262 269.136Z" fill="#EBEBEB"/>
<path d="M100.178 247.996C100.178 249.03 99.8775 250.042 99.3141 250.902C98.7507 251.762 97.9499 252.432 97.0132 252.827C96.0764 253.223 95.0457 253.326 94.0515 253.124C93.0574 252.921 92.1444 252.422 91.4281 251.69C90.7118 250.958 90.2244 250.026 90.0276 249.011C89.8309 247.996 89.9335 246.944 90.3226 245.989C90.7116 245.034 91.3697 244.218 92.2134 243.644C93.0571 243.07 94.0485 242.765 95.0623 242.767C96.4199 242.769 97.7211 243.321 98.6803 244.301C99.6394 245.282 100.178 246.61 100.178 247.996Z" fill="#EBEBEB"/>
<path d="M230.407 96.0355L185.331 105.973L198.656 168.92L243.732 158.983L230.407 96.0355Z" fill="white"/>
<path d="M243.715 158.995L243.642 158.688C243.593 158.48 243.528 158.181 243.447 157.8C243.268 156.97 243.016 155.857 242.691 154.372C242.048 151.359 241.105 146.985 239.909 141.449C237.542 130.376 234.216 114.673 230.214 96.0891L230.442 96.2385L185.375 106.198L185.538 105.941C190.499 129.455 195.094 151.226 198.819 168.897L198.616 168.756L231.369 161.634L240.486 159.667L242.926 159.161L243.74 158.995C243.74 158.995 243.479 159.069 242.926 159.194L240.56 159.733L231.499 161.775L198.681 169.104H198.51V168.938C194.761 151.267 190.141 129.505 185.147 105.999V105.783H185.351L230.425 95.8235H230.613L230.653 96.0144C234.557 114.673 237.859 130.434 240.185 141.54C241.332 147.068 242.243 151.433 242.861 154.438C243.17 155.915 243.398 157.061 243.561 157.841L243.732 158.713C243.731 158.807 243.725 158.901 243.715 158.995Z" fill="#263238"/>
<path d="M215.533 112.556C215.533 112.681 210.653 113.851 204.626 115.187C198.6 116.524 193.655 117.503 193.63 117.387C193.606 117.271 198.51 116.1 204.537 114.764C210.564 113.428 215.533 112.44 215.533 112.556Z" fill="#263238"/>
<path d="M228.547 115.42C228.547 115.536 221.031 117.296 211.719 119.346C202.406 121.396 194.818 122.973 194.793 122.857C194.769 122.74 202.308 120.981 211.629 118.931C220.95 116.881 228.547 115.304 228.547 115.42Z" fill="#263238"/>
<path d="M229.775 121.122C229.775 121.238 222.268 122.998 212.947 125.056C203.626 127.114 196.054 128.65 196.013 128.567C195.973 128.484 203.52 126.691 212.841 124.633C222.162 122.574 229.75 121.006 229.775 121.122Z" fill="#263238"/>
<path d="M230.987 126.832C230.987 126.948 223.472 128.708 214.159 130.758C204.846 132.808 197.258 134.385 197.233 134.269C197.209 134.153 204.741 132.393 214.069 130.343C223.398 128.293 230.987 126.716 230.987 126.832Z" fill="#263238"/>
<path d="M232.19 132.534C232.19 132.651 224.683 134.41 215.363 136.469C206.042 138.527 198.453 140.096 198.453 139.979C198.453 139.863 205.96 138.104 215.281 136.045C224.602 133.987 232.166 132.418 232.19 132.534Z" fill="#263238"/>
<path d="M233.427 138.245C233.427 138.361 225.912 140.121 216.599 142.171C207.286 144.221 199.698 145.798 199.673 145.682C199.649 145.565 207.18 143.806 216.509 141.747C225.838 139.689 233.378 138.129 233.427 138.245Z" fill="#263238"/>
<path d="M234.606 143.947C234.606 144.063 227.099 145.823 217.778 147.881C208.457 149.939 200.893 151.508 200.893 151.392C200.893 151.276 208.4 149.516 217.721 147.458C227.042 145.399 234.582 143.831 234.606 143.947Z" fill="#263238"/>
<path d="M220.21 153.093C220.21 153.21 216.192 154.206 211.182 155.31C206.172 156.413 202.089 157.21 202.065 157.094C202.04 156.978 206.082 155.99 211.093 154.886C216.103 153.782 220.186 152.977 220.21 153.093Z" fill="#263238"/>
<path d="M441.29 257.175L452.823 287.396L457.638 279.469L464.299 288.4L472.246 280.689L464.674 273.236L471.66 268.414L441.29 257.175Z" fill="#00AFDB"/>
<path d="M436.947 261.641C435.628 262.751 434.222 263.747 432.742 264.621C431.339 265.615 429.856 266.486 428.309 267.227C429.631 266.124 431.038 265.13 432.514 264.255C433.919 263.261 435.401 262.386 436.947 261.641Z" fill="#263238"/>
<path d="M437.842 255.549C437.206 255.462 436.583 255.295 435.987 255.051C434.865 254.686 433.32 254.129 431.652 253.391C429.985 252.652 428.488 252.021 427.423 251.507C426.828 251.267 426.26 250.961 425.731 250.594C426.354 250.735 426.96 250.946 427.537 251.224L431.807 252.992L436.093 254.727C436.703 254.936 437.29 255.211 437.842 255.549Z" fill="#263238"/>
<path d="M441.323 241.829C441.534 242.361 441.676 242.919 441.746 243.489C441.941 244.526 442.177 245.979 442.372 247.581C442.567 249.183 442.697 250.652 442.754 251.731C442.829 252.304 442.829 252.884 442.754 253.457C442.386 251.536 442.114 249.597 441.941 247.647C441.634 245.72 441.427 243.778 441.323 241.829Z" fill="#263238"/>
<path d="M457.289 248.593C457.337 248.71 455.206 249.647 452.799 251.224C450.392 252.801 448.488 254.171 448.415 254.063C448.342 253.955 448.814 253.615 449.562 253.026C450.528 252.252 451.533 251.529 452.571 250.859C454.008 249.84 455.603 249.074 457.289 248.593Z" fill="#263238"/>
<path d="M172.923 262.321C172.832 261.089 172.65 259.866 172.378 258.661C172.03 257.264 171.482 255.927 170.751 254.694C169.782 253.056 168.514 251.622 167.018 250.469C165.071 248.964 162.784 247.982 160.368 247.614C157.953 247.246 155.485 247.502 153.191 248.361C151.871 248.843 150.628 249.526 149.507 250.386C148.318 251.259 147.279 252.328 146.433 253.548C144.594 256.089 143.602 259.163 143.602 262.321C143.602 265.48 144.594 268.554 146.433 271.095C147.282 272.31 148.321 273.375 149.507 274.249C150.627 275.112 151.869 275.795 153.191 276.274C155.485 277.132 157.953 277.389 160.368 277.021C162.784 276.652 165.071 275.671 167.018 274.166C168.512 273.013 169.779 271.583 170.751 269.949C171.482 268.713 172.031 267.373 172.378 265.973C172.649 264.772 172.831 263.551 172.923 262.321C172.923 262.321 172.923 262.404 172.923 262.562V263.284C172.925 263.674 172.893 264.063 172.825 264.446C172.774 264.976 172.681 265.5 172.549 266.015C172.216 267.443 171.667 268.81 170.922 270.065C169.849 271.925 168.401 273.531 166.673 274.776C164.945 276.021 162.978 276.876 160.902 277.286C158.277 277.791 155.567 277.571 153.053 276.647C151.695 276.163 150.419 275.466 149.271 274.581C148.047 273.686 146.976 272.592 146.099 271.344C144.203 268.732 143.18 265.568 143.18 262.317C143.18 259.067 144.203 255.903 146.099 253.291C146.554 252.672 147.046 252.082 147.571 251.523C148.107 250.998 148.675 250.507 149.271 250.054C150.423 249.175 151.698 248.478 153.053 247.987C155.567 247.062 158.277 246.845 160.902 247.357C162.978 247.763 164.946 248.617 166.674 249.86C168.402 251.104 169.85 252.709 170.922 254.569C171.666 255.826 172.215 257.192 172.549 258.62C172.681 259.134 172.774 259.659 172.825 260.188C172.892 260.575 172.925 260.966 172.923 261.359V262.072C172.931 262.28 172.923 262.321 172.923 262.321Z" fill="#263238"/>
<path d="M158.161 269.883C157.952 267.368 157.881 264.844 157.949 262.321C157.881 259.799 157.952 257.275 158.161 254.76C158.381 257.274 158.455 259.799 158.381 262.321C158.455 264.844 158.381 267.369 158.161 269.883Z" fill="#263238"/>
<path d="M165.57 262.321C163.109 262.535 160.638 262.607 158.169 262.537C155.697 262.607 153.223 262.535 150.76 262.321C153.223 262.103 155.697 262.031 158.169 262.106C160.638 262.031 163.109 262.103 165.57 262.321Z" fill="#263238"/>
<path d="M399.347 310.993C399.249 311.051 389.034 294.932 376.533 274.979C364.032 255.026 353.971 238.791 354.069 238.733C354.166 238.675 364.374 254.81 376.85 274.73C389.327 294.65 399.404 310.926 399.347 310.993Z" fill="#263238"/>
<path d="M403.747 346.201C416.841 346.201 427.456 335.369 427.456 322.007C427.456 308.645 416.841 297.812 403.747 297.812C390.653 297.812 380.038 308.645 380.038 322.007C380.038 335.369 390.653 346.201 403.747 346.201Z" fill="white"/>
<path d="M410.5 314.25C410.5 313.653 410.737 313.081 411.159 312.659C411.581 312.237 412.154 312 412.75 312C413.347 312 413.919 312.237 414.341 312.659C414.763 313.081 415 313.653 415 314.25V330.75C415 331.347 414.763 331.919 414.341 332.341C413.919 332.763 413.347 333 412.75 333C412.154 333 411.581 332.763 411.159 332.341C410.737 331.919 410.5 331.347 410.5 330.75V314.25ZM409 315.336C405.9 316.761 402.192 317.558 398.5 317.82V327.176C399.045 327.206 399.589 327.249 400.132 327.303C403.212 327.609 406.189 328.305 409 329.643V315.336ZM397 327.098V317.901C395.98 317.942 394.902 317.966 393.988 317.981C393.194 317.992 392.435 318.314 391.876 318.879C391.318 319.444 391.003 320.205 391 321V324C391 325.659 392.344 326.994 393.991 327.014C394.239 327.017 394.487 327.021 394.735 327.026C395.491 327.041 396.246 327.065 397 327.098ZM399.085 328.719C399.513 328.751 399.939 328.79 400.36 328.836L400.74 331.371C400.781 331.588 400.774 331.811 400.719 332.025C400.664 332.239 400.562 332.438 400.421 332.608C400.281 332.778 400.104 332.915 399.904 333.009C399.704 333.103 399.486 333.152 399.265 333.152H398.443C398.152 333.151 397.866 333.066 397.622 332.907C397.378 332.747 397.186 332.52 397.069 332.253L395.098 328.533C395.945 328.554 396.791 328.586 397.636 328.629C398.127 328.655 398.611 328.685 399.085 328.719Z" fill="#263238"/>
<path d="M380.038 322.04C380.038 322.04 380.038 321.907 380.038 321.65C380.038 321.393 380.038 320.986 380.079 320.496C380.079 320.239 380.079 319.957 380.079 319.666C380.079 319.376 380.16 319.019 380.209 318.654C380.306 317.813 380.461 316.981 380.673 316.164C381.203 313.877 382.076 311.688 383.259 309.673C384.976 306.68 387.299 304.096 390.074 302.093C392.848 300.091 396.01 298.716 399.347 298.061C400.343 297.871 401.352 297.749 402.364 297.696C402.877 297.696 403.397 297.621 403.918 297.63L405.504 297.713C406.049 297.728 406.593 297.787 407.13 297.887C407.659 297.97 408.204 298.036 408.757 298.144C410.946 298.651 413.064 299.438 415.06 300.485C415.565 300.767 416.053 301.091 416.557 301.39C417.06 301.692 417.541 302.03 417.996 302.402C419.953 303.829 421.663 305.58 423.055 307.581C424.548 309.614 425.705 311.882 426.479 314.296C428.122 319.294 428.122 324.703 426.479 329.701C425.7 332.118 424.544 334.391 423.055 336.432C422.334 337.425 421.548 338.367 420.705 339.254C419.853 340.1 418.946 340.885 417.988 341.603C417.533 341.975 417.052 342.314 416.549 342.616C416.044 342.923 415.556 343.246 415.052 343.52C414.047 344.058 413.006 344.524 411.937 344.915C410.893 345.301 409.825 345.617 408.741 345.861C408.212 345.977 407.667 346.035 407.114 346.127C406.577 346.227 406.033 346.285 405.487 346.301L403.901 346.376C403.381 346.376 402.86 346.334 402.348 346.309C401.332 346.26 400.321 346.138 399.322 345.944C396.001 345.292 392.853 343.928 390.087 341.942C387.32 339.956 384.999 337.393 383.275 334.424C382.095 332.407 381.222 330.218 380.689 327.933C380.478 327.115 380.324 326.283 380.225 325.443C380.176 325.069 380.12 324.737 380.095 324.422C380.071 324.107 380.095 323.833 380.095 323.592C380.095 323.102 380.095 322.721 380.054 322.438C380.014 322.156 380.054 322.048 380.054 322.048C380.054 322.048 380.054 322.181 380.095 322.438C380.136 322.696 380.136 323.094 380.168 323.584L380.225 324.414C380.225 324.721 380.323 325.061 380.372 325.426C380.485 326.267 380.653 327.099 380.876 327.916C381.429 330.176 382.314 332.336 383.503 334.324C385.225 337.245 387.533 339.761 390.274 341.707C393.016 343.654 396.13 344.988 399.412 345.62C400.395 345.804 401.39 345.921 402.389 345.969C402.901 345.969 403.405 346.035 403.926 346.027L405.479 345.944C406.006 345.927 406.531 345.869 407.049 345.77C407.578 345.678 408.106 345.62 408.635 345.504C409.697 345.259 410.743 344.946 411.766 344.566C412.818 344.178 413.842 343.717 414.833 343.188C415.329 342.914 415.809 342.591 416.297 342.292C416.794 341.995 417.27 341.663 417.72 341.296C418.659 340.589 419.547 339.815 420.38 338.98C421.212 338.109 421.984 337.18 422.689 336.2C424.153 334.186 425.287 331.944 426.048 329.56C427.659 324.65 427.659 319.339 426.048 314.429C425.287 312.045 424.153 309.803 422.689 307.789C421.986 306.809 421.217 305.88 420.388 305.008C419.551 304.178 418.663 303.405 417.728 302.693C417.278 302.326 416.802 301.993 416.305 301.697C415.817 301.398 415.337 301.082 414.841 300.8C413.852 300.271 412.827 299.813 411.774 299.431C410.752 299.045 409.706 298.729 408.643 298.485C408.114 298.377 407.586 298.31 407.057 298.227C406.539 298.125 406.014 298.064 405.487 298.045L403.934 297.962C403.422 297.962 402.909 298.011 402.397 298.028C401.4 298.072 400.408 298.188 399.428 298.377C396.142 299.001 393.024 300.331 390.28 302.279C387.536 304.226 385.228 306.747 383.511 309.673C382.321 311.66 381.435 313.821 380.884 316.081C380.659 316.898 380.491 317.73 380.38 318.571C380.331 318.936 380.266 319.268 380.233 319.583C380.201 319.899 380.193 320.172 380.176 320.413C380.176 320.903 380.12 321.243 380.103 321.567C380.087 321.891 380.038 322.04 380.038 322.04Z" fill="#263238"/>
<path d="M309.14 312.611C309.018 312.611 308.928 295.953 308.928 275.402C308.928 254.852 309.018 238.193 309.14 238.193C309.263 238.193 309.352 254.843 309.352 275.402C309.352 295.961 309.254 312.611 309.14 312.611Z" fill="#263238"/>
<path d="M308.652 346.741C321.746 346.741 332.361 335.909 332.361 322.546C332.361 309.184 321.746 298.352 308.652 298.352C295.558 298.352 284.943 309.184 284.943 322.546C284.943 335.909 295.558 346.741 308.652 346.741Z" fill="white"/>
<path d="M296.5 326.5C296.5 326.102 296.658 325.721 296.94 325.439C297.221 325.158 297.602 325 298 325H301C301.398 325 301.78 325.158 302.061 325.439C302.342 325.721 302.5 326.102 302.5 326.5V331C302.5 331.398 302.342 331.779 302.061 332.061C301.78 332.342 301.398 332.5 301 332.5H298C297.602 332.5 297.221 332.342 296.94 332.061C296.658 331.779 296.5 331.398 296.5 331V326.5ZM304 320.5C304 320.102 304.158 319.721 304.44 319.439C304.721 319.158 305.102 319 305.5 319H308.5C308.898 319 309.28 319.158 309.561 319.439C309.842 319.721 310 320.102 310 320.5V331C310 331.398 309.842 331.779 309.561 332.061C309.28 332.342 308.898 332.5 308.5 332.5H305.5C305.102 332.5 304.721 332.342 304.44 332.061C304.158 331.779 304 331.398 304 331V320.5ZM311.5 313C311.5 312.602 311.658 312.221 311.94 311.939C312.221 311.658 312.602 311.5 313 311.5H316C316.398 311.5 316.78 311.658 317.061 311.939C317.342 312.221 317.5 312.602 317.5 313V331C317.5 331.398 317.342 331.779 317.061 332.061C316.78 332.342 316.398 332.5 316 332.5H313C312.602 332.5 312.221 332.342 311.94 332.061C311.658 331.779 311.5 331.398 311.5 331V313Z" fill="#263238"/>
<path d="M284.943 322.546C284.943 322.546 284.943 322.414 284.943 322.156C284.943 321.899 284.943 321.492 284.943 321.003C284.943 320.745 284.943 320.463 284.943 320.173C284.943 319.882 285.033 319.525 285.082 319.16C285.171 318.319 285.326 317.486 285.545 316.67C286.075 314.384 286.948 312.194 288.132 310.179C289.85 307.204 292.17 304.638 294.937 302.65C297.704 300.662 300.855 299.298 304.179 298.651C305.176 298.461 306.184 298.339 307.196 298.285C307.717 298.285 308.237 298.219 308.758 298.219L310.336 298.302C310.881 298.317 311.425 298.375 311.962 298.476C312.499 298.559 313.036 298.626 313.589 298.734C314.675 298.961 315.746 299.26 316.793 299.63C317.864 300.019 318.908 300.482 319.917 301.016C320.421 301.298 320.909 301.622 321.405 301.921C321.923 302.23 322.42 302.573 322.893 302.95C323.846 303.675 324.753 304.46 325.61 305.299C326.451 306.188 327.234 307.134 327.952 308.129C329.439 310.169 330.595 312.439 331.377 314.852C333.025 319.849 333.025 325.26 331.377 330.257C330.602 332.673 329.445 334.944 327.952 336.98C327.236 337.974 326.453 338.917 325.61 339.802C324.755 340.644 323.848 341.428 322.893 342.151C322.435 342.523 321.951 342.862 321.446 343.164C320.95 343.471 320.462 343.794 319.957 344.068C318.949 344.605 317.905 345.071 316.834 345.463C315.793 345.849 314.728 346.165 313.646 346.409C313.109 346.525 312.572 346.583 312.019 346.674C311.482 346.776 310.938 346.834 310.393 346.849L308.815 346.923C308.286 346.923 307.774 346.882 307.253 346.857C306.24 346.808 305.232 346.686 304.236 346.492C300.913 345.843 297.764 344.48 294.997 342.494C292.231 340.508 289.91 337.943 288.189 334.971C287.004 332.956 286.132 330.767 285.602 328.481C285.384 327.664 285.229 326.832 285.139 325.991C285.09 325.617 285.033 325.285 285 324.97C284.968 324.655 285 324.381 285 324.14C285 323.65 285 323.268 285 322.986C285 322.704 285 322.596 285 322.596C285.021 322.725 285.034 322.856 285.041 322.986C285.041 323.26 285.09 323.642 285.122 324.132C285.122 324.386 285.139 324.663 285.171 324.962C285.171 325.269 285.269 325.609 285.326 325.974C285.435 326.815 285.601 327.647 285.822 328.464C286.381 330.722 287.27 332.882 288.457 334.872C290.179 337.775 292.48 340.276 295.211 342.212C297.942 344.148 301.042 345.476 304.309 346.11C305.292 346.294 306.287 346.41 307.286 346.459C307.79 346.459 308.302 346.525 308.815 346.517L310.376 346.434C310.903 346.416 311.428 346.358 311.946 346.259C312.467 346.168 313.003 346.11 313.524 345.994C314.59 345.753 315.638 345.439 316.663 345.056C317.715 344.667 318.739 344.207 319.73 343.678C320.226 343.404 320.698 343.081 321.194 342.79C321.687 342.488 322.159 342.152 322.609 341.786C323.548 341.079 324.439 340.308 325.277 339.478C326.104 338.602 326.873 337.67 327.578 336.69C329.043 334.676 330.178 332.434 330.937 330.05C332.553 325.141 332.553 319.828 330.937 314.919C330.176 312.535 329.042 310.293 327.578 308.279C326.871 307.302 326.102 306.373 325.277 305.498C324.437 304.668 323.546 303.894 322.609 303.182C322.161 302.816 321.688 302.483 321.194 302.186C320.698 301.888 320.226 301.572 319.73 301.298C318.742 300.762 317.717 300.302 316.663 299.921C315.639 299.534 314.59 299.218 313.524 298.974C313.003 298.866 312.467 298.8 311.946 298.717C311.429 298.614 310.903 298.556 310.376 298.543L308.823 298.46C308.302 298.46 307.79 298.501 307.286 298.518C306.287 298.562 305.292 298.678 304.309 298.866C301.027 299.499 297.913 300.832 295.171 302.779C292.43 304.726 290.122 307.242 288.4 310.163C287.212 312.152 286.324 314.312 285.765 316.57C285.543 317.387 285.377 318.22 285.269 319.06C285.212 319.426 285.147 319.758 285.114 320.073C285.082 320.388 285.114 320.662 285.065 320.903C285.065 321.393 285.008 321.774 284.984 322.057C284.981 322.221 284.968 322.384 284.943 322.546Z" fill="#263238"/>
<path d="M217.363 311.831C217.266 311.773 227.473 295.297 240.137 275.054C252.8 254.81 263.195 238.434 263.292 238.534C263.39 238.633 253.183 255.059 240.519 275.319C227.855 295.58 217.461 311.897 217.363 311.831Z" fill="#263238"/>
<path d="M213.525 346.434C226.619 346.434 237.233 335.601 237.233 322.239C237.233 308.877 226.619 298.045 213.525 298.045C200.431 298.045 189.816 308.877 189.816 322.239C189.816 335.601 200.431 346.434 213.525 346.434Z" fill="white"/>
<path d="M237.233 322.239C237.213 322.11 237.199 321.98 237.192 321.849C237.192 321.567 237.144 321.185 237.111 320.695C237.111 320.446 237.111 320.164 237.062 319.865C237.013 319.567 236.965 319.218 236.908 318.853C236.803 318.011 236.638 317.179 236.412 316.363C235.857 314.103 234.968 311.942 233.776 309.955C232.054 307.035 229.747 304.518 227.005 302.572C224.264 300.625 221.15 299.291 217.868 298.659C216.885 298.471 215.89 298.354 214.891 298.31C214.387 298.31 213.874 298.244 213.362 298.252L211.8 298.335C211.273 298.348 210.748 298.407 210.23 298.509C209.71 298.592 209.173 298.659 208.653 298.767C207.587 299.011 206.538 299.327 205.513 299.713C204.46 300.097 203.436 300.558 202.447 301.091C201.951 301.365 201.479 301.68 200.983 301.979C200.489 302.277 200.016 302.61 199.568 302.975C198.632 303.689 197.741 304.462 196.9 305.291C196.074 306.166 195.306 307.094 194.598 308.071C193.135 310.085 192 312.327 191.239 314.711C189.624 319.62 189.624 324.933 191.239 329.842C191.999 332.226 193.133 334.469 194.598 336.482C195.304 337.463 196.072 338.395 196.9 339.271C197.737 340.101 198.628 340.871 199.568 341.578C200.015 341.947 200.488 342.283 200.983 342.582C201.479 342.873 201.951 343.197 202.447 343.471C203.439 343.997 204.463 344.457 205.513 344.848C206.537 345.235 207.586 345.549 208.653 345.786C209.173 345.902 209.71 345.961 210.23 346.052C210.749 346.15 211.273 346.209 211.8 346.226L213.362 346.309C213.874 346.309 214.387 346.309 214.891 346.251C215.89 346.204 216.884 346.087 217.868 345.902C221.151 345.273 224.266 343.941 227.008 341.994C229.75 340.047 232.057 337.529 233.776 334.606C234.967 332.618 235.856 330.458 236.412 328.199C236.636 327.382 236.802 326.55 236.908 325.709C236.965 325.343 237.03 325.003 237.062 324.696L237.111 323.866C237.111 323.376 237.176 323.036 237.192 322.721C237.199 322.59 237.213 322.46 237.233 322.33C237.233 322.33 237.233 322.463 237.233 322.721C237.233 322.978 237.233 323.385 237.233 323.874C237.233 324.132 237.233 324.414 237.233 324.704C237.233 324.995 237.144 325.36 237.095 325.725C237.003 326.566 236.851 327.398 236.639 328.215C236.106 330.502 235.231 332.691 234.045 334.706C232.316 337.671 229.989 340.228 227.218 342.205C224.447 344.183 221.296 345.536 217.973 346.176C216.977 346.37 215.969 346.492 214.956 346.542C214.443 346.542 213.923 346.616 213.394 346.608L211.816 346.533C211.271 346.518 210.727 346.46 210.19 346.359C209.653 346.268 209.116 346.21 208.563 346.093C207.481 345.849 206.416 345.533 205.375 345.147C204.304 344.755 203.26 344.289 202.252 343.753C201.747 343.479 201.259 343.155 200.763 342.848C200.258 342.546 199.774 342.208 199.315 341.835C198.361 341.113 197.454 340.328 196.599 339.487C195.756 338.602 194.973 337.659 194.257 336.665C192.77 334.625 191.614 332.355 190.832 329.942C189.184 324.944 189.184 319.534 190.832 314.537C191.614 312.123 192.77 309.853 194.257 307.814C194.978 306.818 195.763 305.873 196.607 304.983C197.46 304.142 198.364 303.358 199.315 302.635C199.776 302.265 200.259 301.927 200.763 301.622C201.267 301.323 201.747 300.999 202.252 300.717C203.261 300.183 204.304 299.72 205.375 299.331C206.415 298.941 207.48 298.625 208.563 298.385C209.1 298.269 209.637 298.202 210.19 298.119C210.727 298.018 211.271 297.96 211.816 297.945L213.394 297.862C213.923 297.862 214.435 297.912 214.956 297.928C215.969 297.982 216.977 298.104 217.973 298.294C221.297 298.942 224.448 300.305 227.215 302.293C229.982 304.281 232.302 306.848 234.02 309.822C235.207 311.837 236.082 314.026 236.615 316.313C236.828 317.13 236.98 317.963 237.07 318.803C237.119 319.168 237.184 319.508 237.209 319.816C237.233 320.123 237.209 320.413 237.209 320.646C237.209 321.135 237.209 321.517 237.209 321.799C237.209 322.081 237.233 322.239 237.233 322.239Z" fill="#263238"/>
<path d="M418.2 197.457H208.303C197.617 197.457 188.954 206.297 188.954 217.203V219.369C188.954 230.274 197.617 239.115 208.303 239.115H418.2C428.886 239.115 437.549 230.274 437.549 219.369V217.203C437.549 206.297 428.886 197.457 418.2 197.457Z" fill="white"/>
<path d="M382.47 197.083V239.115H417.24C422.702 239.115 427.941 236.901 431.805 232.96C435.668 229.019 437.84 223.674 437.842 218.099C437.842 215.339 437.309 212.605 436.273 210.055C435.238 207.505 433.72 205.187 431.807 203.236C429.894 201.284 427.623 199.736 425.123 198.681C422.624 197.625 419.945 197.082 417.24 197.083H382.47Z" fill="#00AFDB"/>
<path d="M414.8 216.929C414.723 216.209 414.606 215.494 414.45 214.787C413.947 212.874 412.83 211.188 411.278 209.998C410.141 209.123 408.806 208.553 407.396 208.342C405.986 208.13 404.547 208.283 403.21 208.786C402.435 209.072 401.708 209.478 401.055 209.99C400.367 210.507 399.761 211.129 399.257 211.833C398.19 213.318 397.614 215.112 397.614 216.954C397.614 218.796 398.19 220.59 399.257 222.075C399.755 222.784 400.362 223.407 401.055 223.917C401.707 224.423 402.431 224.823 403.202 225.104C404.323 225.518 405.516 225.69 406.705 225.609C407.894 225.528 409.054 225.195 410.111 224.633C411.167 224.07 412.098 223.289 412.844 222.341C413.589 221.392 414.134 220.295 414.442 219.12C414.599 218.411 414.715 217.693 414.792 216.97C414.841 217.707 414.776 218.446 414.597 219.161C414.14 221.142 413.029 222.901 411.449 224.141C410.278 225.069 408.895 225.679 407.43 225.914C405.965 226.149 404.466 226.002 403.072 225.486C402.26 225.2 401.497 224.786 400.811 224.258C400.086 223.722 399.449 223.072 398.924 222.332C397.798 220.777 397.191 218.895 397.191 216.962C397.191 215.029 397.798 213.147 398.924 211.592C399.969 210.143 401.413 209.045 403.072 208.438C404.565 207.894 406.175 207.768 407.732 208.073C409.387 208.398 410.916 209.204 412.133 210.393C413.351 211.583 414.206 213.106 414.597 214.779C414.775 215.48 414.843 216.206 414.8 216.929Z" fill="white"/>
<path d="M422.868 229.346C421.126 228.329 419.452 227.195 417.858 225.951C416.186 224.816 414.593 223.562 413.092 222.199C414.837 223.212 416.511 224.346 418.102 225.594C419.775 226.729 421.367 227.983 422.868 229.346Z" fill="white"/>
<path d="M364.56 214.381H212.589V223.295H364.56V214.381Z" fill="#EBEBEB"/>
<path d="M418.2 239.115C418.2 239.115 418.68 239.115 419.607 239.023C420.183 238.988 420.757 238.913 421.323 238.799C422.112 238.673 422.892 238.493 423.657 238.26C425.798 237.596 427.812 236.563 429.611 235.205L430.424 234.591C430.684 234.359 430.937 234.11 431.197 233.869C431.746 233.368 432.262 232.83 432.742 232.259C433.271 231.694 433.686 231.006 434.19 230.35L434.824 229.279L435.15 228.723L435.426 228.134C436.242 226.479 436.817 224.712 437.134 222.888C437.199 222.407 437.272 221.917 437.346 221.427C437.419 220.938 437.403 220.423 437.427 219.917C437.427 218.904 437.427 217.842 437.427 216.779C437.311 211.76 435.315 206.977 431.849 203.414C428.383 199.851 423.711 197.779 418.794 197.623C413.247 197.573 407.358 197.623 401.193 197.623L208.311 197.689C203.636 197.707 199.126 199.46 195.623 202.62C192.157 205.733 189.921 210.03 189.336 214.704C189.257 215.277 189.211 215.853 189.198 216.431C189.198 217.004 189.157 217.585 189.198 218.166C189.183 219.321 189.227 220.476 189.328 221.627C189.576 223.908 190.229 226.124 191.255 228.167C193.275 232.238 196.619 235.465 200.714 237.297C202.729 238.174 204.873 238.699 207.058 238.849C208.14 238.924 209.238 238.916 210.312 238.916H251.597L338.314 238.965L396.768 239.032L412.669 239.073H416.801H418.208H416.801H412.669L396.768 239.115L338.314 239.181L251.597 239.231H210.304C209.206 239.231 208.116 239.231 207.002 239.164C203.609 238.947 200.331 237.824 197.496 235.909C194.662 233.994 192.37 231.353 190.849 228.25C189.8 226.163 189.133 223.899 188.88 221.569C188.774 220.402 188.727 219.23 188.742 218.058C188.742 217.477 188.742 216.896 188.783 216.306C188.792 215.715 188.838 215.124 188.921 214.538C189.516 209.762 191.797 205.37 195.338 202.188C198.932 198.95 203.558 197.159 208.352 197.15L401.234 197.216C407.407 197.216 413.279 197.216 418.842 197.258C423.82 197.42 428.548 199.525 432.051 203.138C435.554 206.752 437.565 211.598 437.671 216.68C437.671 217.759 437.671 218.805 437.671 219.834C437.671 220.348 437.614 220.855 437.582 221.353C437.549 221.851 437.435 222.349 437.362 222.83C437.039 224.67 436.452 226.451 435.621 228.117L435.345 228.715L435.011 229.263C434.792 229.636 434.58 229.993 434.361 230.35C433.905 231.011 433.416 231.648 432.897 232.259C432.418 232.836 431.899 233.377 431.343 233.877C431.075 234.126 430.815 234.375 430.53 234.599L429.717 235.222C427.902 236.577 425.871 237.602 423.714 238.251C422.943 238.48 422.158 238.655 421.364 238.774C420.794 238.882 420.218 238.949 419.639 238.974C418.68 239.106 418.2 239.115 418.2 239.115Z" fill="#263238"/>
<path d="M310.49 213.219C309.75 212.339 309.677 211.559 311.344 211.443C315.012 211.102 317.712 209.467 318.144 208.521C318.575 207.575 317.403 206.653 316.411 207.218C315.271 207.722 314.071 208.069 312.841 208.247C311.853 208.418 310.844 208.418 309.856 208.247C309.002 208.114 308.229 207.965 307.578 207.824C307.578 207.824 303.699 206.994 302.023 205.633L293.809 214.588L297.664 219.029C298.241 219.857 299.016 220.521 299.916 220.957C300.816 221.393 301.81 221.586 302.804 221.519C306.106 221.187 310.555 218.771 310.555 218.771C311.157 217.825 316.476 221.178 318.192 222.432C319.908 223.685 321.169 223.37 321.104 222.166C321.063 221.336 315.907 217.369 314.183 216.165C312.849 215.315 311.611 214.319 310.49 213.194" fill="#FFBE9D"/>
<path d="M305.667 220.996C305.667 221.054 305.431 221.153 305 221.145C304.446 221.109 303.914 220.907 303.472 220.564C303.029 220.222 302.695 219.754 302.511 219.22C302.381 218.813 302.422 218.539 302.471 218.531C302.784 219.16 303.212 219.724 303.731 220.191C304.319 220.585 304.977 220.858 305.667 220.996Z" fill="#EB996E"/>
<path d="M308.92 219.693C308.92 219.743 308.684 219.834 308.278 219.809C307.749 219.756 307.246 219.551 306.827 219.217C306.408 218.883 306.09 218.435 305.911 217.925C305.789 217.535 305.813 217.277 305.862 217.269C305.911 217.261 306.204 218.19 307.09 218.879C307.655 219.246 308.272 219.521 308.92 219.693Z" fill="#EB996E"/>
<path d="M317.777 126.517C318.119 133.871 326.911 143.947 333.45 145.607C336.883 146.437 340.835 146.063 343.56 148.421C348.237 152.463 345.504 160.871 348.652 166.266C350.587 169.586 354.434 171.246 356.614 174.391C360.233 179.654 357.802 187.605 352.865 191.523C347.928 195.44 341.34 196.187 335.15 196.021C321.527 195.664 307.578 191.249 297.737 181.397C293.109 176.765 275.012 162.481 281.324 128.609" fill="#263238"/>
<path d="M366.935 179.139L315.15 163.452C312.737 162.375 310.206 161.598 307.611 161.136L290.124 161.252C287.815 161.26 285.532 161.749 283.414 162.688L236.281 178.666C232.792 179.795 230.385 183.447 230.385 187.605C230.385 192.726 234.004 196.884 238.469 196.884H260.267L260.177 197.208L335.882 197.499L364.78 197.557C369.245 197.557 372.864 193.365 372.864 188.186C372.832 183.97 370.424 180.276 366.935 179.139Z" fill="#00AFDB"/>
<path d="M356.557 184.858C356.4 184.874 356.242 184.874 356.085 184.858L354.751 184.7C353.597 184.551 351.921 184.36 349.871 184.16C344.466 183.628 339.035 183.396 333.605 183.463C328.183 183.545 322.769 183.921 317.387 184.592C315.321 184.849 313.646 185.082 312.507 185.264L311.173 185.455C311.02 185.484 310.865 185.498 310.709 185.497C310.852 185.433 311.003 185.391 311.157 185.372L312.474 185.098C313.621 184.866 315.289 184.584 317.354 184.268C322.746 183.509 328.179 183.091 333.621 183.015C339.055 182.946 344.488 183.224 349.888 183.845C351.962 184.086 353.637 184.326 354.768 184.526L356.093 184.758C356.252 184.769 356.408 184.802 356.557 184.858Z" fill="#263238"/>
<g opacity="0.6">
<path d="M344.406 172.018C344.367 172.083 344.317 172.142 344.259 172.192L343.804 172.682C343.397 173.105 342.796 173.736 341.974 174.499C340.983 175.431 339.931 176.293 338.826 177.081C337.36 178.148 335.723 178.946 333.987 179.438C331.858 179.977 329.627 179.931 327.521 179.305C325.141 178.553 322.854 177.522 320.705 176.234C318.368 174.809 315.897 173.627 313.328 172.706C310.566 171.739 307.545 171.897 304.894 173.146C302.17 174.4 299.852 176.309 297.322 177.686C296.696 178.043 296.029 178.317 295.386 178.616C294.734 178.875 294.069 179.099 293.394 179.288C292.094 179.667 290.758 179.904 289.408 179.994C284.705 180.342 280.027 179.029 276.159 176.275C274.739 175.169 273.402 173.956 272.158 172.648C271.215 171.681 270.176 170.816 269.059 170.067C268.094 169.446 267.014 169.034 265.887 168.855C266.185 168.86 266.481 168.894 266.773 168.955C267.612 169.138 268.415 169.463 269.148 169.918C270.29 170.655 271.353 171.511 272.32 172.474C273.571 173.755 274.911 174.943 276.33 176.026C280.155 178.7 284.761 179.959 289.384 179.595C290.706 179.503 292.014 179.27 293.288 178.898C293.947 178.709 294.596 178.485 295.232 178.226C295.858 177.935 296.509 177.67 297.119 177.313C299.616 175.96 301.926 174.043 304.723 172.748C307.469 171.463 310.593 171.302 313.45 172.3C316.043 173.236 318.537 174.437 320.892 175.885C323.01 177.167 325.264 178.197 327.611 178.956C329.659 179.585 331.834 179.648 333.914 179.139C335.623 178.67 337.24 177.907 338.696 176.881C339.803 176.123 340.86 175.291 341.86 174.391C342.674 173.653 343.316 173.047 343.747 172.648L344.227 172.184C344.341 172.059 344.398 172.009 344.406 172.018Z" fill="white"/>
</g>
<g opacity="0.2">
<path d="M263.935 184.75L296.671 191.049L292.889 197.332L291.889 197.349L263.935 184.75Z" fill="black"/>
</g>
<g opacity="0.6">
<path d="M363.023 178.151C363.041 178.319 363.041 178.489 363.023 178.657C363.005 179.147 362.956 179.635 362.877 180.118C362.355 183.154 360.777 185.896 358.432 187.838C356.088 189.781 353.134 190.795 350.116 190.692C348.459 190.587 346.821 190.28 345.236 189.779C343.609 189.306 342.023 188.784 340.469 188.468C338.986 188.131 337.457 188.049 335.947 188.227C333.793 188.491 331.724 189.24 329.888 190.42C328.052 191.6 326.497 193.181 325.333 195.05L324.91 195.772C324.807 195.982 324.718 196.165 324.642 196.32C324.575 196.479 324.491 196.629 324.39 196.768C324.435 196.603 324.492 196.442 324.561 196.287C324.634 196.121 324.707 195.93 324.797 195.714L325.195 194.967C326.076 193.392 327.254 192.01 328.66 190.9C330.755 189.219 333.261 188.157 335.907 187.829C337.459 187.64 339.031 187.716 340.559 188.053C342.145 188.369 343.731 188.883 345.366 189.364C346.928 189.858 348.541 190.162 350.173 190.269C352.221 190.338 354.254 189.888 356.091 188.96C357.927 188.032 359.51 186.654 360.697 184.949C361.693 183.493 362.39 181.847 362.747 180.11C362.983 178.857 362.974 178.143 363.023 178.151Z" fill="white"/>
</g>
<path d="M236.322 195.814C236.322 195.814 295.5 222.44 295.24 221.851C294.98 221.261 304.634 203.773 304.634 203.773L256.688 179.587L236.322 195.814Z" fill="#00AFDB"/>
<path d="M263.52 183.04C263.939 183.182 264.347 183.357 264.74 183.563L267.993 185.132C270.742 186.468 274.5 188.344 278.672 190.444C282.845 192.543 286.586 194.461 289.295 195.872L292.491 197.532C292.891 197.723 293.274 197.948 293.638 198.204C293.217 198.07 292.808 197.898 292.418 197.689L289.164 196.121C286.423 194.784 282.658 192.909 278.485 190.809C274.313 188.709 270.572 186.792 267.863 185.381L264.667 183.721C264.268 183.524 263.885 183.297 263.52 183.04Z" fill="#263238"/>
<g opacity="0.6">
<path d="M276.484 191.124C276.408 191.751 276.221 192.359 275.931 192.917C275.146 194.46 273.913 195.718 272.402 196.519C271.386 197.091 270.288 197.494 269.148 197.714C267.822 197.923 266.473 197.923 265.147 197.714C262.14 197.183 259.23 196.187 256.517 194.76C253.816 193.364 250.985 192.246 248.067 191.423C246.801 191.098 245.5 190.945 244.195 190.966C243.057 190.998 241.929 191.193 240.844 191.547C239.257 192.027 237.829 192.94 236.712 194.187C236.332 194.665 235.976 195.164 235.647 195.681C235.87 195.096 236.189 194.554 236.59 194.079C237.688 192.754 239.132 191.775 240.755 191.257C241.86 190.874 243.013 190.656 244.179 190.61C245.518 190.57 246.855 190.715 248.156 191.041C251.091 191.86 253.934 192.989 256.639 194.411C259.317 195.817 262.184 196.813 265.147 197.366C266.435 197.569 267.746 197.569 269.034 197.366C270.153 197.168 271.234 196.793 272.239 196.254C273.717 195.5 274.943 194.316 275.761 192.851C276.04 192.292 276.282 191.716 276.484 191.124Z" fill="white"/>
</g>
<g opacity="0.6">
<path d="M301.608 209.392C301.608 209.467 300.299 209.251 298.184 209.21C296.948 209.198 295.712 209.264 294.484 209.409C292.981 209.596 291.494 209.896 290.035 210.305C288.583 210.737 287.164 211.275 285.789 211.916C284.669 212.453 283.583 213.06 282.536 213.733C280.754 214.895 279.762 215.783 279.713 215.717C279.905 215.468 280.126 215.245 280.372 215.053C281.005 214.487 281.674 213.963 282.373 213.484C283.408 212.759 284.496 212.115 285.626 211.559C288.392 210.193 291.37 209.331 294.427 209.011C295.675 208.882 296.931 208.849 298.184 208.911C299.027 208.94 299.867 209.029 300.697 209.177C301.009 209.206 301.316 209.279 301.608 209.392Z" fill="white"/>
</g>
<g opacity="0.2">
<path d="M308.904 161.02C307.928 163.809 309.392 166.83 310.824 169.403C311.735 171.25 312.89 172.962 314.256 174.491C314.94 175.256 315.77 175.871 316.694 176.299C317.618 176.727 318.617 176.959 319.632 176.981C322.292 176.89 324.666 174.889 327.326 175.047C329.132 175.155 330.71 176.242 332.206 177.271C334.744 179.151 337.497 180.709 340.404 181.911C343.338 183.109 346.571 183.315 349.628 182.5C351.143 182.072 352.526 181.254 353.644 180.125C354.762 178.996 355.577 177.594 356.012 176.051" fill="black"/>
</g>
<path d="M309.124 160.256C309.262 157.003 309.433 154.065 309.433 154.065C309.433 154.065 316.558 153.143 316.858 145.765C317.159 138.386 316.444 121.271 316.444 121.271L303.373 114.814L289.278 126.434L291.482 160.464C291.637 162.824 292.693 165.027 294.421 166.602C296.15 168.177 298.415 168.998 300.73 168.888C302.932 168.777 305.013 167.829 306.566 166.232C308.119 164.635 309.031 162.504 309.124 160.256Z" fill="#FFBE9D"/>
<path d="M315.215 134.643C315.214 134.824 315.16 135 315.06 135.15C314.961 135.3 314.82 135.417 314.656 135.486C314.492 135.555 314.312 135.573 314.138 135.538C313.963 135.503 313.803 135.416 313.677 135.289C313.551 135.161 313.465 134.998 313.429 134.821C313.393 134.644 313.409 134.459 313.475 134.291C313.541 134.123 313.654 133.979 313.8 133.876C313.946 133.773 314.119 133.716 314.296 133.713C314.539 133.713 314.771 133.811 314.943 133.985C315.116 134.159 315.213 134.395 315.215 134.643Z" fill="#263238"/>
<path d="M316.094 132.667C315.98 132.792 315.28 132.202 314.329 132.169C313.377 132.136 312.629 132.634 312.523 132.501C312.418 132.368 312.588 132.211 312.906 131.978C313.327 131.673 313.837 131.521 314.353 131.547C314.868 131.576 315.361 131.77 315.76 132.103C316.053 132.368 316.151 132.609 316.094 132.667Z" fill="#263238"/>
<path d="M304.414 134.643C304.414 134.826 304.361 135.005 304.262 135.157C304.163 135.31 304.021 135.429 303.856 135.5C303.69 135.571 303.508 135.59 303.332 135.555C303.155 135.521 302.993 135.434 302.865 135.306C302.737 135.177 302.649 135.013 302.612 134.834C302.575 134.655 302.591 134.468 302.657 134.298C302.724 134.128 302.838 133.982 302.986 133.878C303.133 133.774 303.308 133.716 303.487 133.713C303.608 133.712 303.728 133.735 303.84 133.781C303.951 133.827 304.053 133.895 304.139 133.982C304.226 134.068 304.294 134.171 304.341 134.284C304.388 134.398 304.413 134.519 304.414 134.643Z" fill="#263238"/>
<path d="M305.293 132.858C305.179 132.983 304.479 132.393 303.52 132.36C302.56 132.327 301.82 132.825 301.722 132.692C301.625 132.559 301.787 132.402 302.105 132.169C302.524 131.865 303.031 131.713 303.544 131.738C304.062 131.761 304.557 131.96 304.951 132.302C305.252 132.559 305.35 132.8 305.293 132.858Z" fill="#263238"/>
<path d="M308.953 141.415C309.482 141.261 310.029 141.177 310.579 141.166C310.823 141.166 311.067 141.108 311.108 140.926C311.138 140.64 311.084 140.351 310.954 140.096C310.734 139.423 310.498 138.726 310.246 137.988C309.592 136.198 309.067 134.361 308.676 132.493C309.464 134.224 310.122 136.014 310.645 137.846C310.88 138.585 311.108 139.291 311.32 139.963C311.473 140.297 311.513 140.674 311.433 141.034C311.398 141.126 311.342 141.208 311.27 141.274C311.198 141.341 311.112 141.389 311.019 141.415C310.88 141.45 310.738 141.467 310.596 141.465C310.048 141.524 309.496 141.507 308.953 141.415Z" fill="#263238"/>
<path d="M305.748 142.436C304.756 141.772 308.506 144.096 310.49 144.055C310.151 144.576 309.646 144.961 309.061 145.147C308.476 145.333 307.846 145.308 307.277 145.076C305.179 144.188 305.748 142.436 305.748 142.436Z" fill="white"/>
<path d="M309.433 154.065C306.057 153.97 302.782 152.874 300.006 150.911C300.006 150.911 302.227 156.314 309.311 155.891L309.433 154.065Z" fill="#EB996E"/>
<path d="M281.592 133.713C281.592 140.129 279.925 157.102 291.352 159.443L290.97 136.12C290.97 136.12 302.072 130.775 303.983 119.645L304.048 119.711C304.756 121.371 306.025 124.998 305.252 127.936L315.655 130.551L316.85 131.663C316.85 131.663 320.551 123.363 313.41 115.893C306.269 108.423 300.161 113.826 296.33 113.403C293.784 113.088 284.943 113.146 281.356 128.667L281.592 133.713Z" fill="#263238"/>
<path d="M291.255 136.344C290.287 135.73 288.961 136.236 288.196 137.091C287.583 137.77 287.202 138.634 287.112 139.553C287.022 140.471 287.227 141.395 287.696 142.185C288.165 142.974 288.873 143.587 289.713 143.93C290.553 144.274 291.479 144.329 292.353 144.088" fill="#FFBE9D"/>
<path d="M291.035 141.872C291.035 141.922 290.71 141.98 290.222 141.872C289.879 141.784 289.561 141.613 289.296 141.373C289.032 141.133 288.827 140.832 288.701 140.494C288.567 140.098 288.584 139.665 288.75 139.282C288.884 138.982 289.098 138.726 289.368 138.544C289.823 138.245 290.181 138.27 290.181 138.319C290.181 138.369 289.896 138.477 289.555 138.793C289.336 138.977 289.177 139.225 289.098 139.503C289.02 139.782 289.026 140.078 289.116 140.353C289.225 140.632 289.39 140.885 289.6 141.097C289.81 141.308 290.061 141.473 290.336 141.581C290.734 141.747 291.035 141.805 291.035 141.872Z" fill="#EB996E"/>
<path d="M290.083 143.333C289.885 143.373 289.709 143.487 289.589 143.652C289.469 143.818 289.413 144.023 289.433 144.228C289.452 144.433 289.546 144.623 289.696 144.762C289.845 144.9 290.04 144.977 290.242 144.977C290.444 144.977 290.639 144.9 290.788 144.762C290.938 144.623 291.032 144.433 291.051 144.228C291.071 144.023 291.016 143.818 290.895 143.652C290.775 143.487 290.599 143.373 290.401 143.333" fill="#00AFDB"/>
<path d="M311.149 197.54V185.347C311.149 185.347 293.41 189.099 293.085 197.391L311.149 197.54Z" fill="#FFBE9D"/>
<path d="M309.302 158.97C309.6 162.725 311.255 166.233 313.946 168.813C316.636 171.393 320.17 172.86 323.861 172.93C326.48 172.972 329.237 172.341 331.628 173.428C333.711 174.383 335.053 176.433 336.687 178.052C338.638 179.929 341.046 181.238 343.661 181.842C346.276 182.447 349.002 182.324 351.555 181.488C353.71 180.749 357.118 179.172 357.517 176.898C357.826 175.163 355.744 173.437 354.524 172.2C353.235 171.022 351.758 170.079 350.156 169.411C337.517 163.352 323.959 158.953 310.018 158.198" fill="#263238"/>
<g clip-path="url(#clip0_437_6241)">
<path d="M202 312.375C202 312.01 202.145 311.661 202.403 311.403C202.661 311.145 203.01 311 203.375 311H210.25C210.615 311 210.964 311.145 211.222 311.403C211.48 311.661 211.625 312.01 211.625 312.375V331.625C211.625 331.99 211.48 332.339 211.222 332.597C210.964 332.855 210.615 333 210.25 333H203.375C203.01 333 202.661 332.855 202.403 332.597C202.145 332.339 202 331.99 202 331.625V312.375ZM214.375 312.375C214.375 312.01 214.52 311.661 214.778 311.403C215.036 311.145 215.385 311 215.75 311H222.625C222.99 311 223.339 311.145 223.597 311.403C223.855 311.661 224 312.01 224 312.375V319.25C224 319.615 223.855 319.964 223.597 320.222C223.339 320.48 222.99 320.625 222.625 320.625H215.75C215.385 320.625 215.036 320.48 214.778 320.222C214.52 319.964 214.375 319.615 214.375 319.25V312.375ZM214.375 324.75C214.375 324.385 214.52 324.036 214.778 323.778C215.036 323.52 215.385 323.375 215.75 323.375H222.625C222.99 323.375 223.339 323.52 223.597 323.778C223.855 324.036 224 324.385 224 324.75V331.625C224 331.99 223.855 332.339 223.597 332.597C223.339 332.855 222.99 333 222.625 333H215.75C215.385 333 215.036 332.855 214.778 332.597C214.52 332.339 214.375 331.99 214.375 331.625V324.75Z" fill="#263238"/>
</g>
<path d="M139.812 115.062H145.938V121.188H139.812V115.062ZM139.812 124.25H145.938V130.375H139.812V124.25ZM130.625 115.062H136.75V121.188H130.625V115.062ZM130.625 124.25H136.75V130.375H130.625V124.25Z" fill="#E0E0E0"/>
<path d="M142.875 136.5V145.688H106.125V121.188H124.5V118.125H106.125C105.313 118.125 104.534 118.448 103.959 119.022C103.385 119.596 103.062 120.375 103.062 121.188V145.688C103.062 146.5 103.385 147.279 103.959 147.853C104.534 148.427 105.313 148.75 106.125 148.75H118.375V154.875H112.25V157.938H136.75V154.875H130.625V148.75H142.875C143.687 148.75 144.466 148.427 145.041 147.853C145.615 147.279 145.938 146.5 145.938 145.688V136.5H142.875ZM127.562 154.875H121.438V148.75H127.562V154.875Z" fill="#E0E0E0"/>
<defs>
<clipPath id="clip0_437_6241">
<rect width="22" height="22" fill="white" transform="translate(202 311)"/>
</clipPath>
</defs>
</svg>
