<svg width="56" height="55" viewBox="0 0 56 55" fill="none" xmlns="http://www.w3.org/2000/svg">
<path d="M13.4212 12.0168C13.2579 11.5993 12.8554 11.3244 12.407 11.3243C12.4069 11.3243 12.4069 11.3243 12.4068 11.3243C11.9585 11.3243 11.5559 11.5989 11.3925 12.0165L8.17676 20.2344C7.95753 20.7945 8.23394 21.4263 8.79406 21.6455C8.92443 21.6965 9.05871 21.7207 9.19071 21.7207C9.62602 21.7207 10.037 21.458 10.2052 21.0282L10.7506 19.6345H14.0605L14.6053 21.0279C14.8242 21.5881 15.4561 21.8649 16.0161 21.6456C16.5764 21.4266 16.8529 20.7949 16.6339 20.2347L13.4212 12.0168ZM11.6031 17.4562L12.4064 15.4033L13.209 17.4562H11.6031Z" fill="white"/>
<path d="M19.4397 21.7203C20.0411 21.7203 20.5288 21.2327 20.5288 20.6312V12.4134C20.5288 11.8119 20.0411 11.3243 19.4397 11.3243C18.8383 11.3243 18.3506 11.8119 18.3506 12.4134V20.6312C18.3506 21.2327 18.8383 21.7203 19.4397 21.7203Z" fill="white"/>
<path d="M51.7419 25.2693C50.0694 25.2693 48.6515 26.3805 48.1851 27.9042H45.8146L44.9123 23.9996C44.7996 23.512 44.3511 23.1557 43.8512 23.1557H41.6862C42.1191 21.8364 42.4146 20.3559 42.5011 18.6392L48.4858 18.6403C48.9524 20.1624 50.3699 21.2724 52.0423 21.2724C54.0931 21.2724 55.7616 19.6031 55.7616 17.5513C55.7616 15.4978 54.0931 13.8272 52.0423 13.8272C50.3697 13.8272 48.9519 14.9384 48.4856 16.4621L42.4976 16.461C42.4149 14.8833 42.1535 13.3719 41.7193 11.9441H43.851C44.351 11.9441 44.7991 11.5877 44.9121 11.1001L45.8144 7.19552H48.1852C48.6518 8.71753 50.0696 9.82754 51.7418 9.82754C53.7944 9.82754 55.4642 8.15828 55.4642 6.10643C55.4642 4.05458 53.7944 2.38543 51.7418 2.38543C50.0696 2.38543 48.6519 3.49533 48.1852 5.01734H44.9483C44.4512 5.01734 44.0325 5.35092 43.9021 5.80627C43.8968 5.82327 43.8918 5.84134 43.8872 5.86127L42.9849 9.76589H40.8934C40.1425 8.13171 39.1391 6.63616 37.894 5.3115C37.4823 4.87314 36.7931 4.85179 36.3546 5.2638C35.9164 5.6758 35.8949 6.36498 36.3069 6.80323C37.1521 7.70239 37.8691 8.69455 38.4547 9.76589H34.9883C34.3869 9.76589 33.8993 10.2535 33.8993 10.855C33.8993 11.4565 34.3869 11.9441 34.9883 11.9441H39.4251C39.9223 13.3539 40.222 14.8671 40.3163 16.4606L33.5877 16.4592C33.5876 16.4592 33.5876 16.4592 33.5874 16.4592C32.986 16.4592 32.4985 16.9467 32.4983 17.5481C32.4982 18.1496 32.9858 18.6373 33.5872 18.6374L40.3182 18.6387C40.218 20.387 39.8723 21.8544 39.3686 23.1557H34.9885C34.3871 23.1557 33.8994 23.6432 33.8994 24.2447C33.8994 24.8463 34.3871 25.3338 34.9885 25.3338H38.3168C37.6425 26.502 36.8591 27.5699 36.059 28.6591C34.3537 30.9808 32.5958 33.3761 31.8772 36.8643H18.9961C18.6094 34.99 17.9305 33.4552 17.1826 32.152C18.1223 31.9045 18.8182 31.0497 18.8182 30.0331V29.7205C19.6898 29.4616 20.5294 29.1129 21.3282 28.6781L21.551 28.9012C21.9644 29.3147 22.5151 29.5424 23.1015 29.5424C23.688 29.5424 24.2387 29.3147 24.6521 28.9011L26.8378 26.7138C27.6923 25.8589 27.6923 24.4677 26.8378 23.6127L26.6142 23.389C27.049 22.5895 27.3976 21.749 27.6565 20.8765H27.9679C29.177 20.8765 30.1607 19.8925 30.1607 18.6831V15.591C30.1607 14.3816 29.177 13.3976 27.9679 13.3976H27.6565C27.3976 12.5251 27.049 11.6847 26.6142 10.885L26.8378 10.6613C27.6922 9.80641 27.6922 8.41531 26.8378 7.56026L24.6521 5.37303C24.2387 4.9595 23.688 4.73178 23.1015 4.73178C22.5151 4.73178 21.9644 4.9595 21.551 5.37314L21.3282 5.59608C20.5293 5.1612 19.6898 4.81259 18.8182 4.55371V4.24114C18.8182 4.05752 18.7931 3.87999 18.7504 3.70933C20.8375 2.67448 23.1248 2.14681 25.4238 2.1797C25.4338 2.17981 25.4437 2.17981 25.4537 2.1797C26.5211 2.16576 27.5915 2.27184 28.6383 2.49619C29.2263 2.62187 29.8053 2.24755 29.9314 1.65933C30.0573 1.07122 29.6827 0.492259 29.0945 0.366251C27.8934 0.108898 26.6635 -0.01417 25.4394 0.00151296C22.5475 -0.0378033 19.6831 0.689821 17.1174 2.10532C16.9589 2.06883 16.7948 2.04759 16.6255 2.04759H13.5354C12.3263 2.04759 11.3426 3.03159 11.3426 4.24103V4.5536C10.471 4.81248 9.63151 5.1611 8.83266 5.59597L8.60983 5.37303C8.19641 4.9595 7.64577 4.73178 7.05929 4.73178C6.47281 4.73178 5.92217 4.9595 5.50875 5.37314L3.32304 7.5607C2.46865 8.41564 2.46865 9.80674 3.32304 10.6618L3.54663 10.8855C3.11187 11.6851 2.76325 12.5255 2.50437 13.398H2.19289C0.98367 13.3979 0 14.3819 0 15.5914V18.6834C0 19.8928 0.98367 20.8768 2.19278 20.8768H2.50426C2.76314 21.7493 3.11176 22.5899 3.54653 23.3894L3.32293 23.6131C2.46843 24.468 2.46843 25.8592 3.32293 26.7142L5.50864 28.9014C5.92206 29.3149 6.4727 29.5426 7.05918 29.5426C7.64566 29.5426 8.1963 29.3149 8.60972 28.9013L8.83255 28.6783C9.63129 29.1131 10.4709 29.4618 11.3425 29.7207V30.0333C11.3425 31.2427 12.3261 32.2267 13.5353 32.2267H14.6722C15.5834 33.622 16.4907 35.3228 16.9086 37.5322C16.0332 38.1685 15.4626 39.1994 15.4626 40.3616C15.4626 41.2953 15.8306 42.144 16.4282 42.7722C15.8306 43.3998 15.4626 44.2478 15.4626 45.1807C15.4626 46.8183 16.5947 48.1959 18.1175 48.5743V50.7513C18.1175 53.0941 20.0226 55 22.3641 55H28.5106C30.8539 55 32.7604 53.0941 32.7604 50.7513V48.5741C34.2815 48.1954 35.4122 46.818 35.4122 45.1807C35.4122 44.2479 35.0445 43.3999 34.4474 42.7722C35.0445 42.144 35.4122 41.2953 35.4122 40.3616C35.4122 39.1986 34.8412 38.167 33.9656 37.5308C34.5578 34.3837 36.1422 32.2255 37.8145 29.9488C38.8682 28.5142 39.9375 27.0565 40.7911 25.3341H42.985L43.8873 29.2387C44.0001 29.7264 44.4484 30.0826 44.9484 30.0826H48.1853C48.6519 31.6046 50.0697 32.7145 51.7419 32.7145C53.7945 32.7145 55.4643 31.0453 55.4643 28.9935C55.4643 26.9398 53.7945 25.2693 51.7419 25.2693ZM52.0423 16.0055C52.8921 16.0055 53.5834 16.6991 53.5834 17.5514C53.5834 18.4022 52.892 19.0943 52.0423 19.0943C51.1925 19.0943 50.5012 18.4022 50.5012 17.5514C50.5011 16.6991 51.1924 16.0055 52.0423 16.0055ZM51.7419 4.56373C52.5933 4.56373 53.2861 5.25585 53.2861 6.10654C53.2861 6.95734 52.5934 7.64946 51.7419 7.64946C50.8921 7.64946 50.2007 6.95734 50.2007 6.10654C50.2006 5.25585 50.8921 4.56373 51.7419 4.56373ZM16.64 28.8798V30.0332C16.64 30.0395 16.6306 30.0484 16.6255 30.0484H15.253C15.2506 30.0484 15.2482 30.0484 15.2457 30.0484H13.5354C13.5303 30.0484 13.5208 30.0395 13.5208 30.0332V28.8798C13.5208 28.3706 13.1679 27.9294 12.6712 27.8174C11.4515 27.5425 10.2976 27.0632 9.24173 26.3929C9.06224 26.2788 8.85967 26.2232 8.65841 26.2232C8.37698 26.2232 8.09796 26.3321 7.88776 26.5424L7.0692 27.3614C7.06452 27.3662 7.05406 27.3661 7.04938 27.3614L4.86368 25.1742C4.85954 25.17 4.85954 25.1568 4.86368 25.1526L5.68224 24.3335C6.04251 23.973 6.10459 23.4109 5.83166 22.9805C5.16176 21.9237 4.68267 20.769 4.40789 19.5484C4.29604 19.0514 3.85474 18.6984 3.34537 18.6984H2.19278C2.18766 18.6984 2.17819 18.6895 2.17819 18.6832V15.5911C2.17819 15.5848 2.18766 15.5759 2.19278 15.5759H3.34537C3.85474 15.5759 4.29604 15.2229 4.40789 14.726C4.68267 13.5054 5.16176 12.3506 5.83166 11.2938C6.10459 10.8633 6.04251 10.3012 5.68224 9.9408L4.86368 9.1218C4.85943 9.11756 4.85943 9.10427 4.86368 9.10013L7.04938 6.91301C7.05406 6.90833 7.06452 6.90844 7.0692 6.91301L7.88776 7.73201C8.24847 8.09283 8.81121 8.15491 9.24183 7.88165C10.2978 7.21132 11.4517 6.73201 12.6712 6.45712C13.168 6.34516 13.5209 5.90386 13.5209 5.39471V4.24136C13.5209 4.23504 13.5304 4.22611 13.5355 4.22611H16.6256C16.6307 4.22611 16.6402 4.23504 16.6402 4.24136V5.39471C16.6402 5.90397 16.993 6.34527 17.4899 6.45712C18.7093 6.7319 19.8632 7.21121 20.9192 7.88165C21.3496 8.15501 21.9126 8.09294 22.2733 7.73201L23.0918 6.91301C23.0965 6.90833 23.107 6.90844 23.1117 6.91301L25.2974 9.10013C25.3016 9.10438 25.3016 9.11767 25.2974 9.1218L24.4788 9.9408C24.1185 10.3013 24.0565 10.8634 24.3294 11.2938C24.9993 12.3506 25.4784 13.5054 25.7532 14.726C25.865 15.2229 26.3063 15.5759 26.8157 15.5759H27.9683C27.9734 15.5759 27.9829 15.5848 27.9829 15.5911V18.6832C27.9829 18.6895 27.9734 18.6984 27.9683 18.6984H26.8157C26.3063 18.6984 25.865 19.0514 25.7532 19.5484C25.4784 20.769 24.9993 21.9237 24.3294 22.9805C24.0565 23.4109 24.1185 23.973 24.4788 24.3335L25.2974 25.1526C25.3015 25.1568 25.3015 25.17 25.2974 25.1742L23.1117 27.3613C23.107 27.366 23.0965 27.366 23.0918 27.3613L22.2733 26.5422C21.9126 26.1814 21.3497 26.1192 20.9192 26.3925C19.8633 27.0629 18.7094 27.5422 17.4898 27.8171C16.9929 27.9294 16.64 28.3706 16.64 28.8798ZM30.5823 50.7512C30.5823 51.8928 29.6531 52.8217 28.5107 52.8217H22.3642C21.2236 52.8217 20.2958 51.8929 20.2958 50.7512V48.6777H30.5822V50.7512H30.5823ZM31.9167 46.4995H18.9616C18.2334 46.4995 17.641 45.9078 17.641 45.1806C17.641 44.4533 18.2334 43.8617 18.9616 43.8617H31.9167C32.6431 43.8617 33.2341 44.4534 33.2341 45.1806C33.234 45.9078 32.6431 46.4995 31.9167 46.4995ZM31.9167 41.6835H18.9616C18.2334 41.6835 17.641 41.0905 17.641 40.3616C17.641 39.6343 18.2334 39.0427 18.9616 39.0427H31.9167C32.6431 39.0427 33.2341 39.6344 33.2341 40.3616C33.234 41.0904 32.6431 41.6835 31.9167 41.6835ZM51.7419 30.5361C50.8921 30.5361 50.2007 29.844 50.2007 28.9933C50.2007 28.1409 50.8922 27.4474 51.7419 27.4474C52.5933 27.4474 53.2861 28.141 53.2861 28.9933C53.2861 29.844 52.5933 30.5361 51.7419 30.5361Z" fill="white"/>
<path d="M32.825 4.07753L32.8312 4.08058C32.9872 4.15856 33.1526 4.19548 33.3156 4.19548C33.7145 4.19548 34.0983 3.97396 34.2892 3.59191C34.5582 3.0539 34.337 2.39815 33.799 2.12915C33.2611 1.86014 32.6068 2.07818 32.3379 2.61619C32.0689 3.15442 32.2869 3.80853 32.825 4.07753Z" fill="white"/>
</svg>
