<svg width="58" height="55" viewBox="0 0 58 55" fill="none" xmlns="http://www.w3.org/2000/svg">
<path d="M10.5452 4.8772C8.44281 4.8772 6.73242 6.58702 6.73242 8.68849C6.73242 10.79 8.44281 12.4998 10.5452 12.4998C12.6492 12.4998 14.3611 10.79 14.3611 8.68849C14.3611 6.58702 12.6492 4.8772 10.5452 4.8772ZM10.5452 10.2268C9.69619 10.2268 9.00554 9.5367 9.00554 8.68849C9.00554 7.84029 9.69619 7.15032 10.5452 7.15032C11.3959 7.15032 12.0881 7.8404 12.0881 8.68861C12.0881 9.53681 11.3959 10.2268 10.5452 10.2268Z" fill="white"/>
<path d="M43.8829 4.87726H33.804C31.7016 4.87726 29.9912 6.58708 29.9912 8.68855C29.9912 10.79 31.7016 12.4998 33.804 12.4998H43.8829C45.9853 12.4998 47.6957 10.79 47.6957 8.68855C47.6957 6.58708 45.9853 4.87726 43.8829 4.87726ZM43.8829 10.2268H33.804C32.955 10.2268 32.2643 9.53676 32.2643 8.68855C32.2643 7.84035 32.9551 7.15026 33.804 7.15026H43.8829C44.7319 7.15026 45.4226 7.84035 45.4226 8.68855C45.4226 9.53676 44.7319 10.2268 43.8829 10.2268Z" fill="white"/>
<path d="M20.426 4.87726C18.3237 4.87726 16.6133 6.58708 16.6133 8.68855C16.6133 10.79 18.3237 12.4998 20.426 12.4998C22.5301 12.4998 24.242 10.79 24.242 8.68855C24.242 6.58708 22.5301 4.87726 20.426 4.87726ZM20.426 10.2268C19.577 10.2268 18.8864 9.53676 18.8864 8.68855C18.8864 7.84035 19.5772 7.15026 20.426 7.15026C21.2767 7.15026 21.969 7.84035 21.969 8.68855C21.969 9.53676 21.2767 10.2268 20.426 10.2268Z" fill="white"/>
<path d="M18.5727 23.7183C17.9624 23.5721 17.3489 23.9488 17.2031 24.5595L14.9484 33.9948C14.8025 34.6053 15.1791 35.2185 15.7896 35.3644C15.8784 35.3855 15.9673 35.3958 16.0548 35.3958C16.5686 35.3958 17.0345 35.0448 17.1592 34.5231L19.4139 25.0878C19.5599 24.4773 19.1832 23.8642 18.5727 23.7183Z" fill="white"/>
<path d="M22.7449 34.2555C22.9616 34.4484 23.2316 34.5433 23.5005 34.5433C23.8135 34.5433 24.1251 34.4148 24.3497 34.1627L27.5368 30.5851C28.0626 29.9997 28.0626 29.0829 27.54 28.5013L24.3496 24.9199C23.9319 24.4511 23.2135 24.4098 22.7449 24.8271C22.2761 25.2447 22.2346 25.9632 22.6522 26.4318L25.4221 29.5412L22.6522 32.6507C22.2347 33.1195 22.2762 33.838 22.7449 34.2555Z" fill="white"/>
<path d="M11.6174 24.8272C11.1485 24.4097 10.4303 24.4515 10.0127 24.92L6.82603 28.4973C6.29948 29.0828 6.29948 30 6.82242 30.5814L10.0128 34.1628C10.2375 34.415 10.549 34.5434 10.8621 34.5434C11.131 34.5434 11.4011 34.4485 11.6176 34.2556C12.0865 33.838 12.1279 33.1195 11.7104 32.6509L8.94046 29.5415L11.7104 26.432C12.1277 25.9632 12.0862 25.2447 11.6174 24.8272Z" fill="white"/>
<path d="M55.1561 36.9145H54.7341C54.5131 36.1986 54.2267 35.5075 53.8774 34.847L54.1785 34.5449C54.6594 34.0669 54.9248 33.4287 54.9258 32.7477C54.9269 32.0652 54.6623 31.4243 54.1809 30.943L53.5941 30.3566V6.14786C53.5941 2.75785 51.2019 0 48.2612 0H5.33291C2.39225 0 0 2.75785 0 6.14786V37.9137C0 41.3037 2.39225 44.0616 5.33291 44.0616H12.0011C12.6288 44.0616 13.1376 43.5527 13.1376 42.9251C13.1376 42.2974 12.6288 41.7886 12.0011 41.7886H5.33291C3.67436 41.7886 2.27312 40.014 2.27312 37.9138V17.2942H51.3209V28.7793C51.1914 28.7593 51.0602 28.7463 50.9267 28.7463C50.9253 28.7463 50.924 28.7463 50.9227 28.7463C50.2418 28.7474 49.6035 29.0125 49.1293 29.4893L48.822 29.7952C48.1477 29.439 47.4455 29.1492 46.7214 28.928V28.5231C46.7214 27.1184 45.5783 25.9757 44.1732 25.9757H42.1165C40.7132 25.9757 39.5717 27.1184 39.5717 28.5231V28.9557C38.8612 29.1789 38.1752 29.4662 37.5195 29.8152L37.2251 29.5217C36.747 29.0412 36.1086 28.7759 35.4277 28.7749C35.4264 28.7749 35.4252 28.7749 35.4238 28.7749C34.7428 28.7749 34.1033 29.0392 33.6228 29.5193L32.1698 30.9717C31.6883 31.453 31.4238 32.0939 31.4248 32.7763C31.4258 33.4573 31.6911 34.0955 32.1684 34.5698L32.4823 34.8846C32.1416 35.5349 31.8617 36.2132 31.6452 36.9142H31.2136C29.8102 36.9142 28.6686 38.0555 28.6686 39.4584V41.5172C28.6686 41.6087 28.6737 41.6991 28.6832 41.7881H22.0703C21.4426 41.7881 20.9338 42.297 20.9338 42.9246C20.9338 43.5523 21.4426 44.0611 22.0703 44.0611H31.2135H31.6495C31.8693 44.7688 32.1534 45.4525 32.5 46.1071L32.1929 46.4129C31.2041 47.4069 31.205 49.0207 32.1952 50.0102L33.6491 51.4635C34.1272 51.9439 34.7655 52.2092 35.4465 52.2102H35.4502C36.1314 52.2102 36.7709 51.946 37.2513 51.4657L37.5557 51.1615C38.2162 51.5097 38.9029 51.7941 39.6098 52.0127V52.4526C39.6098 53.8573 40.7513 55 42.1547 55H44.2146C45.6179 55 46.7595 53.8573 46.7595 52.4526V52.0154C47.473 51.7953 48.1625 51.5097 48.8222 51.1614L49.1252 51.4634C49.6032 51.9439 50.2414 52.2091 50.9224 52.2102H50.9263C51.6074 52.2102 52.2469 51.946 52.7282 51.4649L54.1782 50.0125C54.6591 49.5346 54.9245 48.8963 54.9255 48.2154C54.9265 47.5328 54.662 46.892 54.1804 46.4106L53.8771 46.1075C54.223 45.4523 54.5069 44.7681 54.7264 44.0612H55.1559C56.5609 44.0612 57.704 42.92 57.704 41.5172V39.4584C57.7042 38.0557 56.5612 36.9145 55.1561 36.9145ZM2.27312 15.0211V6.14786C2.27312 4.04763 3.67436 2.27312 5.33291 2.27312H48.2612C49.9198 2.27312 51.321 4.04763 51.321 6.14786V15.0212H2.27312V15.0211ZM55.4311 41.5174C55.4311 41.6618 55.3026 41.7883 55.156 41.7883H53.8563C53.3264 41.7883 52.8667 42.1545 52.7484 42.671C52.5029 43.7423 52.0813 44.7582 51.4951 45.6908C51.2128 46.1399 51.2788 46.7246 51.6541 47.0996L52.5737 48.0187C52.6425 48.0874 52.6526 48.1695 52.6526 48.2123C52.6525 48.2635 52.6392 48.3378 52.5728 48.4036L51.1207 49.8582C51.0519 49.927 50.9697 49.9374 50.9264 49.9374C50.9263 49.9374 50.9262 49.9374 50.9262 49.9374C50.8746 49.9374 50.8001 49.9239 50.7335 49.8569L49.8105 48.9377C49.435 48.5638 48.8515 48.499 48.4032 48.7808C47.4693 49.3683 46.4491 49.7906 45.3708 50.036C44.8536 50.1539 44.4866 50.6137 44.4866 51.1443V52.4529C44.4866 52.599 44.3595 52.7272 44.2148 52.7272H42.155C42.0101 52.7272 41.8831 52.5991 41.8831 52.4529V51.141C41.8831 50.61 41.5152 50.1496 40.9973 50.0325C39.9328 49.7917 38.9144 49.3701 37.9706 48.7796C37.7846 48.6631 37.5757 48.6063 37.368 48.6063C37.0744 48.6063 36.7834 48.7198 36.5642 48.9391L35.6446 49.8582C35.5758 49.927 35.4936 49.9374 35.4503 49.9374C35.4502 49.9374 35.4501 49.9374 35.45 49.9374C35.3985 49.9374 35.3239 49.9239 35.2586 49.8584L33.8024 48.4028C33.7004 48.3009 33.7015 48.1203 33.801 48.0203L34.724 47.1011C35.1011 46.7255 35.167 46.1388 34.8829 45.6889C34.2958 44.7593 33.8736 43.7441 33.6279 42.6714C33.5096 42.1548 33.05 41.7886 32.5199 41.7886H31.2137C31.0664 41.7886 30.9419 41.6645 30.9419 41.5176V39.4589C30.9419 39.312 31.0664 39.1878 31.2137 39.1878H32.5167C33.0472 39.1878 33.5072 38.8207 33.625 38.3035C33.8675 37.2377 34.2843 36.2266 34.8637 35.2982C35.1434 34.85 35.0774 34.2681 34.7042 33.8939L33.7744 32.9614C33.7113 32.8987 33.698 32.8245 33.6979 32.7733C33.6979 32.7305 33.708 32.6484 33.7768 32.5798L35.2298 31.1275C35.2986 31.0587 35.3808 31.0484 35.4241 31.0484H35.4244C35.4759 31.0485 35.5505 31.0618 35.6171 31.1288L36.5336 32.0417C36.9102 32.4167 37.4959 32.4809 37.9442 32.1965C38.8729 31.6077 39.8901 31.1812 40.9673 30.9291C41.4812 30.8089 41.8447 30.3504 41.8447 29.8225V28.5235C41.8447 28.3748 41.9691 28.2491 42.1164 28.2491H44.1731C44.3222 28.2491 44.4482 28.3748 44.4482 28.5235V29.8033C44.4482 30.3358 44.8179 30.7969 45.3378 30.9127C46.4192 31.1535 47.4509 31.5789 48.4043 32.177C48.8522 32.4578 49.4353 32.3929 49.8103 32.0194L50.7371 31.0964C50.8 31.0331 50.8745 31.0198 50.926 31.0197H50.9263C50.9696 31.0197 51.0518 31.0301 51.1205 31.0988L52.5736 32.551C52.6424 32.6198 52.6525 32.7018 52.6525 32.7447C52.6524 32.7958 52.6391 32.8701 52.5723 32.9365L51.6525 33.859C51.278 34.2346 51.213 34.8193 51.496 35.2679C52.0845 36.2007 52.5078 37.2223 52.7544 38.304C52.8723 38.8211 53.3321 39.1879 53.8626 39.1879H55.156C55.3025 39.1879 55.4311 39.3147 55.4311 39.459V41.5174Z" fill="white"/>
<path d="M43.1869 33.5469C39.357 33.5469 36.2412 36.6613 36.2412 40.4895C36.2412 44.3159 39.357 47.429 43.1869 47.429C47.0151 47.429 50.1294 44.316 50.1294 40.4895C50.1294 36.6614 47.0151 33.5469 43.1869 33.5469ZM43.1869 45.1559C40.6105 45.1559 38.5143 43.0625 38.5143 40.4895C38.5143 37.9147 40.6105 35.82 43.1869 35.82C45.7616 35.82 47.8563 37.9147 47.8563 40.4895C47.8563 43.0625 45.7615 45.1559 43.1869 45.1559Z" fill="white"/>
<path d="M17.069 41.7885H17.0467C16.419 41.7885 15.9102 42.2973 15.9102 42.925C15.9102 43.5526 16.419 44.0615 17.0467 44.0615H17.069C17.6966 44.0615 18.2055 43.5526 18.2055 42.925C18.2055 42.2973 17.6966 41.7885 17.069 41.7885Z" fill="white"/>
</svg>
