<svg width="56" height="55" viewBox="0 0 56 55" fill="none" xmlns="http://www.w3.org/2000/svg">
<path d="M17.4156 5.50401C17.9218 5.50401 18.3321 5.09365 18.3321 4.58745C18.3321 4.08125 17.9218 3.6709 17.4156 3.6709C16.9094 3.6709 16.499 4.08125 16.499 4.58745C16.499 5.09365 16.9094 5.50401 17.4156 5.50401Z" fill="white"/>
<path d="M3.66632 47.6671H24.4839C29.9514 52.1048 37.6415 52.5567 43.5911 48.7899L48.7332 53.9429C49.4132 54.6266 50.34 55.0075 51.3042 54.9998H51.3198C52.8068 55.0166 54.1552 54.1291 54.7275 52.7564C55.2998 51.3839 54.9815 49.8013 53.9229 48.7568L48.7809 43.6028C51.9907 38.5253 52.181 32.1028 49.2776 26.844C46.3741 21.5852 40.8374 18.3247 34.8304 18.3361V8.25382C34.8304 6.22898 33.1889 4.58749 31.1641 4.58749H26.2311C25.5696 3.99984 24.7162 3.67384 23.8315 3.67094H21.9066C21.4729 1.53504 19.5949 0 17.4154 0C15.2359 0 13.3579 1.53504 12.9241 3.67094H10.9991C10.1142 3.67395 9.26092 3.99984 8.59947 4.58749H3.66632C1.64148 4.58739 0 6.22887 0 8.25382V44.0008C0 46.0256 1.64148 47.6671 3.66632 47.6671ZM52.6251 52.6533C52.2751 52.99 51.8063 53.1745 51.3208 53.1667H51.3116C50.8353 53.1722 50.3763 52.9875 50.0366 52.6533L47.9285 50.5451L50.5242 47.942L52.625 50.0502C53.342 50.7698 53.342 51.9338 52.6251 52.6533ZM49.2336 46.6479L46.6415 49.2464L45.1154 47.7166C46.0743 46.9504 46.9452 46.0801 47.7121 45.1218L49.2336 46.6479ZM49.4958 34.8348C49.4958 42.9343 42.9299 49.5002 34.8304 49.5002C26.731 49.5002 20.165 42.9343 20.165 34.8348C20.165 26.7354 26.731 20.1694 34.8304 20.1694C42.9259 20.179 49.4863 26.7393 49.4958 34.8348ZM32.9972 8.25382V18.4445C32.3807 18.5153 31.7685 18.6212 31.164 18.7617V10.0869C31.164 9.07445 30.3433 8.25371 29.3308 8.25371H27.4977V7.33715C27.4938 7.02727 27.4501 6.71921 27.3675 6.4206H31.164C32.1765 6.4206 32.9972 7.24134 32.9972 8.25382ZM9.16586 7.33715C9.16586 6.32468 9.9866 5.50394 10.9991 5.50394H12.8323V6.42049C12.8323 6.92673 13.2427 7.33705 13.7488 7.33705C14.2551 7.33705 14.6654 6.92662 14.6654 6.42049V4.58739C14.6654 3.06878 15.8966 1.83762 17.4152 1.83762C18.9338 1.83762 20.1649 3.06878 20.1649 4.58739V6.4206C20.1649 6.92684 20.5754 7.33715 21.0815 7.33715C21.5876 7.33715 21.998 6.92673 21.998 6.4206V5.50405H23.8312C24.8437 5.50405 25.6645 6.32479 25.6645 7.33726V9.17048H9.16586V7.33715ZM25.6645 11.0036C26.3165 11.0016 26.918 10.6523 27.2428 10.087H29.3308V19.2988C27.5739 19.9197 25.935 20.8339 24.4839 22.0027H14.6654C14.1592 22.0027 13.7488 22.4131 13.7488 22.9192C13.7488 23.4254 14.1593 23.8358 14.6654 23.8358H22.5682C21.3436 25.1906 20.3524 26.7392 19.6351 28.4187H14.6653C14.159 28.4187 13.7487 28.8292 13.7487 29.3353C13.7487 29.8414 14.1592 30.2519 14.6653 30.2519H18.9925C18.5569 31.7406 18.3344 33.2836 18.3316 34.8348H14.6653C14.159 34.8348 13.7487 35.2453 13.7487 35.7514C13.7487 36.2575 14.1592 36.6679 14.6653 36.6679H18.4398C18.6555 38.5831 19.2084 40.445 20.0731 42.1675H5.49954V10.0869H7.58753C7.91235 10.6522 8.51386 11.0015 9.16586 11.0035H25.6645V11.0036ZM1.83321 8.25382C1.83321 7.24134 2.65396 6.4206 3.66643 6.4206H7.46293C7.38044 6.71932 7.33662 7.02738 7.33275 7.33715V8.25371H5.49954C4.48706 8.25371 3.66632 9.07445 3.66632 10.0869V43.0841C3.66632 43.5904 4.07675 44.0007 4.58287 44.0007H21.1218C21.5601 44.6451 22.0434 45.2576 22.5682 45.8339H3.66632C2.65385 45.8339 1.83311 45.0132 1.83311 44.0007V8.25382H1.83321Z" fill="white"/>
<path d="M7.60108 17.1511L8.51763 18.0677C8.68949 18.2395 8.92258 18.3362 9.16565 18.3362H9.25728C9.53032 18.3091 9.77683 18.1611 9.92914 17.9329L11.7624 15.1831C12.0433 14.7619 11.9296 14.1928 11.5084 13.9118C11.0873 13.6308 10.5181 13.7445 10.2371 14.1657L9.02355 15.9815L8.89701 15.855C8.5374 15.5076 7.96564 15.5125 7.61214 15.8661C7.25865 16.2198 7.2537 16.7914 7.60108 17.1511Z" fill="white"/>
<path d="M14.6653 17.4197H26.581C27.0872 17.4197 27.4975 17.0092 27.4975 16.5031C27.4975 15.9969 27.0872 15.5866 26.581 15.5866H14.6653C14.1591 15.5866 13.7488 15.997 13.7488 16.5031C13.7488 17.0092 14.1592 17.4197 14.6653 17.4197Z" fill="white"/>
<path d="M10.2366 20.5773L9.02388 22.3976L8.89735 22.2711C8.53773 21.9237 7.96598 21.9286 7.61248 22.2822C7.25888 22.6358 7.25394 23.2075 7.60131 23.5671L8.51786 24.4837C8.68972 24.6555 8.92281 24.7522 9.16588 24.7522H9.25751C9.53055 24.7251 9.77706 24.5771 9.92937 24.3489L11.7626 21.5991C12.0436 21.1779 11.9298 20.6088 11.5087 20.3278C11.0875 20.0468 10.5183 20.1605 10.2373 20.5817L10.2366 20.5773Z" fill="white"/>
<path d="M10.2366 26.9935L9.02388 28.8138L8.89735 28.6873C8.53773 28.3399 7.96598 28.3448 7.61248 28.6984C7.25888 29.052 7.25394 29.6237 7.60131 29.9833L8.51786 30.8999C8.68972 31.0717 8.92281 31.1684 9.16588 31.1684C9.19521 31.1684 9.2255 31.1684 9.25751 31.1638C9.53055 31.1367 9.77706 30.9887 9.92937 30.7604L11.7626 28.0107C12.0436 27.5895 11.9298 27.0203 11.5087 26.7393C11.0875 26.4583 10.5183 26.5721 10.2373 26.9933H10.2366V26.9935Z" fill="white"/>
<path d="M10.2366 33.4095L9.02388 35.2299L8.89735 35.1033C8.53773 34.756 7.96598 34.7609 7.61248 35.1145C7.25888 35.4681 7.25394 36.0398 7.60131 36.3994L8.51786 37.3159C8.68972 37.4878 8.92281 37.5845 9.16588 37.5845C9.19521 37.5845 9.2255 37.5845 9.25751 37.5798C9.53055 37.5528 9.77706 37.4048 9.92937 37.1765L11.7626 34.4267C11.9443 34.1543 11.9669 33.8056 11.8219 33.5119C11.6768 33.2182 11.3861 33.0244 11.0592 33.0032C10.7324 32.982 10.4192 33.1368 10.2374 33.4093H10.2366V33.4095Z" fill="white"/>
<path d="M37.5801 33.9183C37.1717 33.9199 36.7691 34.0139 36.4023 34.1932L33.6388 31.4297C33.8178 31.0628 33.9117 30.6602 33.9138 30.252C33.9215 29.1432 33.2626 28.1384 32.2428 27.7034C31.2229 27.2685 30.0415 27.4885 29.2468 28.2616C28.4521 29.0346 28.1993 30.2094 28.6058 31.2409L26.1071 33.3756C25.6948 33.1337 25.2259 33.0048 24.7478 33.0016C23.2292 33.0016 21.998 34.2328 21.998 35.7514C21.998 37.27 23.2292 38.5011 24.7478 38.5011C26.2665 38.5011 27.4976 37.27 27.4976 35.7514C27.496 35.4126 27.431 35.0771 27.3061 34.7624L29.8047 32.6277C30.5791 33.0883 31.5342 33.1252 32.3418 32.7258L35.1053 35.4903C34.9264 35.8572 34.8324 36.2598 34.8303 36.668C34.8314 37.8446 35.5809 38.8902 36.6948 39.2689C37.8088 39.6477 39.0403 39.2758 39.7583 38.3438C40.4764 37.4118 40.5219 36.1261 39.8715 35.1456L42.2693 31.9476C42.5309 32.0345 42.804 32.0808 43.0795 32.0851C44.3441 32.088 45.4484 31.2299 45.7582 30.0039C46.0679 28.7778 45.5035 27.4983 44.3893 26.9003C43.2751 26.3024 41.8968 26.5393 41.0463 27.4752C40.1958 28.4111 40.0912 29.8056 40.7927 30.8578L38.3949 34.0558C38.132 33.9684 37.8571 33.922 37.5801 33.9183ZM24.7478 36.668C24.2416 36.668 23.8313 36.2577 23.8313 35.7515C23.8313 35.2452 24.2416 34.8349 24.7478 34.8349C25.2541 34.8349 25.6644 35.2454 25.6644 35.7515C25.6644 36.2576 25.2541 36.668 24.7478 36.668ZM30.2474 30.252C30.2474 29.7457 30.6578 29.3354 31.1639 29.3354C31.6701 29.3354 32.0805 29.7457 32.0805 30.252C32.0805 30.7582 31.67 31.1685 31.1639 31.1685C30.6578 31.1685 30.2474 30.7581 30.2474 30.252ZM37.5801 37.5846C37.0739 37.5846 36.6635 37.1743 36.6635 36.668C36.6635 36.1618 37.074 35.7515 37.5801 35.7515C38.0863 35.7515 38.4967 36.1618 38.4967 36.668C38.4967 37.1743 38.0862 37.5846 37.5801 37.5846ZM43.0796 28.4187C43.5859 28.4187 43.9962 28.8292 43.9962 29.3353C43.9962 29.8414 43.5858 30.2518 43.0796 30.2518C42.5735 30.2518 42.1631 29.8415 42.1631 29.3353C42.1631 28.8291 42.5734 28.4187 43.0796 28.4187Z" fill="white"/>
<path d="M43.9962 41.251H25.6644C25.1581 41.251 24.7478 41.6615 24.7478 42.1676C24.7478 42.6737 25.1582 43.0841 25.6644 43.0841H43.9962C44.5024 43.0841 44.9127 42.6738 44.9127 42.1676C44.9127 41.6614 44.5024 41.251 43.9962 41.251Z" fill="white"/>
</svg>
