<svg width="30" height="30" viewBox="0 0 30 30" fill="none" xmlns="http://www.w3.org/2000/svg">
<path d="M27.7775 0.00223697H2.21373C1.00554 -0.0113978 0.0147454 0.956413 0 2.16462V27.835C0.0142405 29.0437 1.00495 30.0125 2.21373 29.9998H27.7775C28.9886 30.0148 29.9832 29.0461 30 27.835V2.16277C29.9827 0.952174 28.9881 -0.0155815 27.7775 0.000190064" fill="#0A66C2"/>
<path d="M21.1165 25.5618H25.5616L25.5635 17.7087C25.5635 13.8534 24.7328 10.89 20.2275 10.89C18.5052 10.8261 16.8873 11.7147 16.0172 13.2024H15.9575V11.2461H11.6902V25.5613H16.1353V18.4797C16.1353 16.6122 16.4895 14.8036 18.8046 14.8036C21.0869 14.8036 21.1165 16.9405 21.1165 18.6005V25.5618Z" fill="white"/>
<path d="M4.09473 6.71017C4.09498 8.13483 5.25008 9.28955 6.67471 9.28929C7.35885 9.28917 8.01491 9.01727 8.49858 8.53342C8.98225 8.04957 9.2539 7.39339 9.25378 6.70924C9.25352 5.28458 8.09842 4.12987 6.67379 4.13013C5.24916 4.13038 4.09447 5.28551 4.09473 6.71017Z" fill="white"/>
<path d="M4.44755 25.5618H8.89724V11.2461H4.44755V25.5618Z" fill="white"/>
</svg>
