<svg width="55" height="55" viewBox="0 0 55 55" fill="none" xmlns="http://www.w3.org/2000/svg">
<path d="M50.1392 18.4766H43.3978V5.63965C43.3978 2.52979 40.8676 0 37.7581 0H5.63965C2.52979 0 0 2.52979 0 5.63965V49.3604C0 52.4702 2.52979 55 5.63965 55H50.1392C52.8193 55 55 52.8193 55 50.1392V23.3374C55 20.6572 52.8193 18.4766 50.1392 18.4766ZM33.5156 35.035L38.8535 40.3725H37.7742C37.1811 40.3725 36.7 40.8539 36.7 41.4467C36.7 42.0402 37.1811 42.5209 37.7742 42.5209H41.4467C42.0402 42.5209 42.5209 42.0402 42.5209 41.4467V37.7742C42.5209 37.1811 42.0402 36.7 41.4467 36.7C40.8535 36.7 40.3725 37.1811 40.3725 37.7742V38.8535L33.5156 31.9963V27.1979H52.8516V46.7453H33.5156V35.035ZM52.8516 23.3374V25.0494H33.5156V23.3374C33.5156 21.8419 34.7325 20.625 36.228 20.625H50.1392C51.6347 20.625 52.8516 21.8419 52.8516 23.3374ZM2.14844 49.3604V5.63965C2.14844 3.71445 3.71445 2.14844 5.63965 2.14844H37.7581C39.683 2.14844 41.2493 3.71445 41.2493 5.63965V18.4766H39.1009V6.875C39.1009 6.28149 38.6195 5.80078 38.0267 5.80078H5.37042C4.77692 5.80078 4.2962 6.28149 4.2962 6.875V22.3438C4.2962 22.9373 4.77692 23.418 5.37042 23.418C5.96326 23.418 6.44464 22.9373 6.44464 22.3438V7.94922H36.9525V18.4766H36.228C33.5479 18.4766 31.3672 20.6572 31.3672 23.3374V29.8478L24.4727 22.954H25.3321C25.9253 22.954 26.4063 22.4727 26.4063 21.8798C26.4063 21.2863 25.9253 20.8056 25.3321 20.8056H21.8798C21.2863 20.8056 20.8056 21.2863 20.8056 21.8798V25.3318C20.8056 25.9253 21.2863 26.406 21.8798 26.406C22.4727 26.406 22.954 25.9253 22.954 25.3318V24.4727L31.3672 32.8865V45.332H6.44464V30.9375C6.44464 30.344 5.96326 29.8633 5.37042 29.8633C4.77692 29.8633 4.2962 30.344 4.2962 30.9375V46.4062C4.2962 46.9998 4.77692 47.4805 5.37042 47.4805H31.3672V50.1392C31.3672 51.1429 31.673 52.0761 32.1964 52.8516H5.63965C3.71445 52.8516 2.14844 51.2856 2.14844 49.3604ZM50.1392 52.8516H36.228C34.7325 52.8516 33.5156 51.6347 33.5156 50.1392V48.8937H52.8516V50.1392C52.8516 51.6347 51.6347 52.8516 50.1392 52.8516Z" fill="white"/>
</svg>
